<?xml version="1.0" standalone="no"?>
<svg
  width="600"
  height="600"
  viewBox="0 0 600 600"
  xmlns="http://www.w3.org/2000/svg"
>
  <g transform="translate(300,300)">
    <path d="M120,-152.3C157.2,-111.7,190.4,-75.6,208.1,-28.8C225.8,18.1,228.1,75.5,196.8,98.4C165.4,121.2,100.5,109.5,54.9,107.1C9.3,104.6,-16.9,111.5,-34.9,102.2C-53,92.9,-62.9,67.5,-67,45.7C-71.1,24,-69.5,6,-63.4,-8.1C-57.3,-22.3,-46.6,-32.6,-35.3,-77.8C-24,-122.9,-12,-203,14.7,-220.5C41.4,-237.9,82.7,-192.9,120,-152.3Z" fill="#FFB4BC" />
  </g>
</svg>
  