;Layer: Drill PTH
;EasyEDA v6.3.22, 2020-01-19T16:38:24+00:00
;a2d37a9207c24dc198fa5f1151cfaccd,4b468aaabfa54ef3be77053c06c4e1f4,10
;Gerber Generator version 0.2
M48
INCH,LZ,00.0000
;Holesize 1 = 0.012 INCH
T01C0.012
;Holesize 2 = 0.032 INCH
T02C0.032
;Holesize 3 = 0.036 INCH
T03C0.036
%
G05
G90
T01
X+001980Y+035026
X+001980Y+034514
X+003121Y+034868
X+002649Y+034002
X+004224Y+034356
X+004421Y+033490
X+005326Y+034868
X+008121Y+035065
X+007413Y+034868
X+006389Y+034829
X+004657Y+036876
X+006114Y+037742
X+001586Y+037742
X+005090Y+037073
X+003791Y+029553
X+008988Y+029907
X+009381Y+027191
X+005366Y+035380
X+005326Y+031325
X+000877Y+037466
X+003594Y+037427
T02
X+006539Y+026020
X+005539Y+026020
X+004539Y+026020
X+003539Y+026020
T03
X+002151Y+038622
X+003151Y+038622
X+004151Y+038622
X+000539Y+029451
X+000539Y+030451
X+000539Y+031451
X+000539Y+032451
X+000539Y+033451
X+000539Y+034451
X+000539Y+035451
X+000539Y+036451
X+009539Y+029451
X+009539Y+030451
X+009539Y+031451
X+009539Y+032451
X+009539Y+033451
X+009539Y+034451
X+009539Y+035451
X+009539Y+036451
M30
