G04 Layer: TopSilkLayer*
G04 EasyEDA v6.3.22, 2020-01-19T16:38:24+00:00*
G04 a2d37a9207c24dc198fa5f1151cfaccd,4b468aaabfa54ef3be77053c06c4e1f4,10*
G04 Gerber Generator version 0.2*
G04 Scale: 100 percent, Rotated: No, Reflected: No *
G04 Dimensions in inches *
G04 leading zeros omitted , absolute positions ,2 integer and 4 decimal *
%FSLAX24Y24*%
%MOIN*%
G90*
G70D02*

%ADD10C,0.010000*%
%ADD25C,0.007870*%
%ADD26C,0.007900*%
%ADD27C,0.008000*%
%ADD28C,0.004000*%

%LPD*%

%LPD*%
G36*
G01X7408Y25744D02*
G01X7379Y25755D01*
G01X7380Y25731D01*
G01X7381Y25722D01*
G01X7385Y25705D01*
G01X7391Y25681D01*
G01X7399Y25652D01*
G01X7409Y25618D01*
G01X7420Y25580D01*
G01X7432Y25539D01*
G01X7445Y25496D01*
G01X7463Y25438D01*
G01X7479Y25382D01*
G01X7486Y25356D01*
G01X7492Y25331D01*
G01X7497Y25308D01*
G01X7502Y25287D01*
G01X7506Y25268D01*
G01X7509Y25253D01*
G01X7511Y25240D01*
G01X7511Y25231D01*
G01X7512Y25218D01*
G01X7514Y25201D01*
G01X7518Y25181D01*
G01X7524Y25159D01*
G01X7530Y25135D01*
G01X7537Y25110D01*
G01X7545Y25086D01*
G01X7554Y25061D01*
G01X7596Y24946D01*
G01X7649Y24946D01*
G01X7634Y25039D01*
G01X7628Y25075D01*
G01X7622Y25110D01*
G01X7610Y25178D01*
G01X7604Y25211D01*
G01X7597Y25244D01*
G01X7590Y25276D01*
G01X7584Y25307D01*
G01X7577Y25337D01*
G01X7569Y25367D01*
G01X7562Y25396D01*
G01X7555Y25424D01*
G01X7548Y25450D01*
G01X7540Y25476D01*
G01X7533Y25501D01*
G01X7525Y25525D01*
G01X7518Y25548D01*
G01X7510Y25570D01*
G01X7503Y25591D01*
G01X7495Y25611D01*
G01X7487Y25629D01*
G01X7480Y25646D01*
G01X7472Y25662D01*
G01X7465Y25677D01*
G01X7457Y25690D01*
G01X7450Y25702D01*
G01X7443Y25713D01*
G01X7436Y25722D01*
G01X7428Y25730D01*
G01X7421Y25736D01*
G01X7415Y25741D01*
G01X7408Y25744D01*
G37*

%LPD*%
G36*
G01X8162Y24946D02*
G01X8117Y24946D01*
G01X8117Y24317D01*
G01X8141Y24302D01*
G01X8164Y24286D01*
G01X8178Y24344D01*
G01X8180Y24355D01*
G01X8181Y24369D01*
G01X8182Y24388D01*
G01X8183Y24411D01*
G01X8183Y24529D01*
G01X8182Y24564D01*
G01X8180Y24600D01*
G01X8179Y24637D01*
G01X8177Y24674D01*
G01X8162Y24946D01*
G37*

%LPD*%
G36*
G01X7412Y27702D02*
G01X7357Y27702D01*
G01X7274Y27392D01*
G01X7274Y26998D01*
G01X7374Y26798D01*
G01X7481Y26800D01*
G01X7589Y26803D01*
G01X7702Y26433D01*
G01X7672Y26363D01*
G01X7661Y26331D01*
G01X7652Y26295D01*
G01X7645Y26260D01*
G01X7643Y26231D01*
G01X7643Y26169D01*
G01X7557Y26256D01*
G01X7530Y26284D01*
G01X7504Y26309D01*
G01X7479Y26333D01*
G01X7456Y26354D01*
G01X7434Y26374D01*
G01X7414Y26392D01*
G01X7395Y26407D01*
G01X7377Y26421D01*
G01X7360Y26433D01*
G01X7346Y26443D01*
G01X7320Y26456D01*
G01X7309Y26460D01*
G01X7300Y26462D01*
G01X7292Y26461D01*
G01X7286Y26459D01*
G01X7280Y26455D01*
G01X7277Y26449D01*
G01X7275Y26440D01*
G01X7274Y26430D01*
G01X7274Y26393D01*
G01X7508Y26213D01*
G01X7555Y26132D01*
G01X7574Y26100D01*
G01X7592Y26071D01*
G01X7607Y26049D01*
G01X7616Y26037D01*
G01X7620Y26032D01*
G01X7627Y26022D01*
G01X7637Y26008D01*
G01X7648Y25991D01*
G01X7661Y25971D01*
G01X7675Y25949D01*
G01X7690Y25925D01*
G01X7706Y25901D01*
G01X7721Y25876D01*
G01X7737Y25853D01*
G01X7751Y25832D01*
G01X7765Y25814D01*
G01X7777Y25799D01*
G01X7787Y25788D01*
G01X7795Y25781D01*
G01X7800Y25779D01*
G01X7805Y25774D01*
G01X7814Y25763D01*
G01X7825Y25744D01*
G01X7838Y25719D01*
G01X7870Y25655D01*
G01X7887Y25617D01*
G01X7905Y25576D01*
G01X7992Y25374D01*
G01X7873Y25110D01*
G01X7755Y24845D01*
G01X7643Y24434D01*
G01X7643Y24173D01*
G01X7673Y24102D01*
G01X7702Y24031D01*
G01X7848Y23965D01*
G01X7921Y23974D01*
G01X7995Y23984D01*
G01X8005Y24020D01*
G01X8016Y24056D01*
G01X7942Y24056D01*
G01X7908Y24057D01*
G01X7872Y24061D01*
G01X7837Y24067D01*
G01X7809Y24073D01*
G01X7751Y24090D01*
G01X7693Y24280D01*
G01X7732Y24462D01*
G01X7737Y24484D01*
G01X7747Y24526D01*
G01X7751Y24546D01*
G01X7756Y24566D01*
G01X7761Y24585D01*
G01X7772Y24623D01*
G01X7777Y24642D01*
G01X7789Y24680D01*
G01X7796Y24700D01*
G01X7802Y24719D01*
G01X7809Y24739D01*
G01X7817Y24759D01*
G01X7833Y24801D01*
G01X7842Y24823D01*
G01X7851Y24846D01*
G01X7871Y24894D01*
G01X7882Y24920D01*
G01X7894Y24946D01*
G01X7906Y24974D01*
G01X7919Y25003D01*
G01X7932Y25033D01*
G01X7947Y25065D01*
G01X7962Y25098D01*
G01X8064Y25323D01*
G01X8064Y25389D01*
G01X8062Y25401D01*
G01X8058Y25415D01*
G01X8053Y25432D01*
G01X8047Y25451D01*
G01X8033Y25493D01*
G01X8024Y25517D01*
G01X8014Y25540D01*
G01X7994Y25590D01*
G01X7983Y25614D01*
G01X7901Y25793D01*
G01X7720Y25998D01*
G01X7705Y26102D01*
G01X7689Y26205D01*
G01X7913Y26696D01*
G01X8002Y26809D01*
G01X8035Y26851D01*
G01X8059Y26885D01*
G01X8076Y26910D01*
G01X8085Y26929D01*
G01X8087Y26942D01*
G01X8083Y26950D01*
G01X8072Y26955D01*
G01X8055Y26956D01*
G01X8018Y26956D01*
G01X7934Y26848D01*
G01X7917Y26825D01*
G01X7898Y26799D01*
G01X7880Y26772D01*
G01X7863Y26745D01*
G01X7847Y26718D01*
G01X7832Y26692D01*
G01X7819Y26668D01*
G01X7809Y26647D01*
G01X7801Y26631D01*
G01X7792Y26619D01*
G01X7782Y26610D01*
G01X7772Y26604D01*
G01X7761Y26602D01*
G01X7750Y26602D01*
G01X7739Y26606D01*
G01X7728Y26612D01*
G01X7717Y26622D01*
G01X7706Y26633D01*
G01X7695Y26647D01*
G01X7686Y26663D01*
G01X7677Y26681D01*
G01X7668Y26701D01*
G01X7661Y26722D01*
G01X7655Y26745D01*
G01X7649Y26769D01*
G01X7646Y26794D01*
G01X7643Y26821D01*
G01X7643Y26870D01*
G01X7804Y26870D01*
G01X7933Y27022D01*
G01X7933Y27191D01*
G01X7876Y27282D01*
G01X7867Y27295D01*
G01X7856Y27311D01*
G01X7843Y27329D01*
G01X7828Y27348D01*
G01X7811Y27368D01*
G01X7793Y27390D01*
G01X7774Y27412D01*
G01X7754Y27435D01*
G01X7734Y27457D01*
G01X7713Y27480D01*
G01X7693Y27502D01*
G01X7672Y27523D01*
G01X7524Y27674D01*
G01X7491Y27674D01*
G01X7481Y27673D01*
G01X7473Y27672D01*
G01X7468Y27669D01*
G01X7464Y27665D01*
G01X7463Y27660D01*
G01X7464Y27652D01*
G01X7468Y27643D01*
G01X7475Y27632D01*
G01X7484Y27618D01*
G01X7497Y27601D01*
G01X7513Y27582D01*
G01X7532Y27560D01*
G01X7554Y27535D01*
G01X7580Y27506D01*
G01X7609Y27474D01*
G01X7643Y27438D01*
G01X7827Y27241D01*
G01X7860Y27095D01*
G01X7833Y27029D01*
G01X7805Y26964D01*
G01X7699Y26933D01*
G01X7562Y27011D01*
G01X7532Y26940D01*
G01X7503Y26870D01*
G01X7415Y26870D01*
G01X7381Y26938D01*
G01X7348Y27006D01*
G01X7362Y27261D01*
G01X7366Y27332D01*
G01X7369Y27367D01*
G01X7371Y27402D01*
G01X7374Y27436D01*
G01X7377Y27468D01*
G01X7380Y27499D01*
G01X7383Y27527D01*
G01X7386Y27553D01*
G01X7388Y27575D01*
G01X7391Y27594D01*
G01X7394Y27609D01*
G01X7412Y27702D01*
G37*

%LPD*%
G36*
G01X8299Y28162D02*
G01X8287Y28164D01*
G01X8274Y28162D01*
G01X8261Y28159D01*
G01X8247Y28152D01*
G01X8234Y28144D01*
G01X8220Y28133D01*
G01X8206Y28121D01*
G01X8191Y28105D01*
G01X8176Y28088D01*
G01X8160Y28069D01*
G01X8141Y28043D01*
G01X8123Y28019D01*
G01X8107Y27995D01*
G01X8093Y27973D01*
G01X8081Y27954D01*
G01X8072Y27937D01*
G01X8067Y27924D01*
G01X8065Y27916D01*
G01X8059Y27898D01*
G01X8045Y27874D01*
G01X8024Y27846D01*
G01X7999Y27817D01*
G01X7933Y27750D01*
G01X7933Y27570D01*
G01X8009Y27490D01*
G01X8085Y27411D01*
G01X8171Y27459D01*
G01X8256Y27507D01*
G01X8243Y27301D01*
G01X8229Y27095D01*
G01X8170Y27030D01*
G01X8170Y27099D01*
G01X8087Y27099D01*
G01X8105Y27035D01*
G01X8110Y27020D01*
G01X8117Y27002D01*
G01X8138Y26960D01*
G01X8151Y26937D01*
G01X8179Y26891D01*
G01X8194Y26870D01*
G01X8202Y26858D01*
G01X8211Y26845D01*
G01X8220Y26830D01*
G01X8230Y26813D01*
G01X8241Y26794D01*
G01X8252Y26774D01*
G01X8264Y26753D01*
G01X8276Y26731D01*
G01X8300Y26685D01*
G01X8312Y26661D01*
G01X8325Y26636D01*
G01X8337Y26612D01*
G01X8349Y26587D01*
G01X8360Y26563D01*
G01X8372Y26539D01*
G01X8386Y26508D01*
G01X8401Y26476D01*
G01X8415Y26445D01*
G01X8429Y26416D01*
G01X8442Y26387D01*
G01X8455Y26360D01*
G01X8466Y26335D01*
G01X8477Y26312D01*
G01X8486Y26292D01*
G01X8494Y26275D01*
G01X8500Y26262D01*
G01X8505Y26252D01*
G01X8513Y26235D01*
G01X8521Y26217D01*
G01X8530Y26197D01*
G01X8538Y26176D01*
G01X8556Y26130D01*
G01X8565Y26106D01*
G01X8574Y26081D01*
G01X8584Y26055D01*
G01X8602Y26003D01*
G01X8611Y25976D01*
G01X8620Y25948D01*
G01X8628Y25921D01*
G01X8637Y25894D01*
G01X8645Y25866D01*
G01X8654Y25839D01*
G01X8661Y25813D01*
G01X8669Y25786D01*
G01X8683Y25736D01*
G01X8689Y25711D01*
G01X8701Y25665D01*
G01X8706Y25644D01*
G01X8710Y25624D01*
G01X8714Y25605D01*
G01X8717Y25588D01*
G01X8720Y25572D01*
G01X8722Y25558D01*
G01X8723Y25546D01*
G01X8723Y25460D01*
G01X8659Y25390D01*
G01X8594Y25319D01*
G01X8446Y25319D01*
G01X8347Y25392D01*
G01X8249Y25465D01*
G01X8249Y25645D01*
G01X8248Y25665D01*
G01X8247Y25686D01*
G01X8246Y25709D01*
G01X8244Y25759D01*
G01X8242Y25785D01*
G01X8240Y25812D01*
G01X8237Y25840D01*
G01X8235Y25867D01*
G01X8232Y25895D01*
G01X8230Y25923D01*
G01X8224Y25977D01*
G01X8221Y26003D01*
G01X8217Y26028D01*
G01X8186Y26267D01*
G01X8110Y26267D01*
G01X8128Y26087D01*
G01X8131Y26062D01*
G01X8133Y26034D01*
G01X8139Y25976D01*
G01X8143Y25945D01*
G01X8149Y25885D01*
G01X8152Y25856D01*
G01X8155Y25828D01*
G01X8157Y25801D01*
G01X8160Y25776D01*
G01X8162Y25754D01*
G01X8178Y25600D01*
G01X8121Y25619D01*
G01X8064Y25639D01*
G01X8064Y25560D01*
G01X8167Y25452D01*
G01X8269Y25343D01*
G01X8342Y25137D01*
G01X8352Y25109D01*
G01X8363Y25080D01*
G01X8385Y25024D01*
G01X8397Y24998D01*
G01X8408Y24972D01*
G01X8418Y24948D01*
G01X8429Y24927D01*
G01X8439Y24907D01*
G01X8447Y24890D01*
G01X8456Y24876D01*
G01X8463Y24865D01*
G01X8473Y24848D01*
G01X8484Y24827D01*
G01X8496Y24802D01*
G01X8508Y24773D01*
G01X8519Y24743D01*
G01X8531Y24711D01*
G01X8541Y24679D01*
G01X8550Y24647D01*
G01X8590Y24496D01*
G01X8601Y24059D01*
G01X8566Y24014D01*
G01X8532Y23969D01*
G01X8468Y23969D01*
G01X8451Y23970D01*
G01X8415Y23976D01*
G01X8397Y23982D01*
G01X8379Y23989D01*
G01X8360Y23997D01*
G01X8341Y24007D01*
G01X8323Y24018D01*
G01X8285Y24044D01*
G01X8266Y24060D01*
G01X8248Y24076D01*
G01X8229Y24094D01*
G01X8211Y24113D01*
G01X8192Y24133D01*
G01X8175Y24155D01*
G01X8152Y24182D01*
G01X8133Y24205D01*
G01X8117Y24223D01*
G01X8103Y24237D01*
G01X8092Y24246D01*
G01X8083Y24251D01*
G01X8077Y24251D01*
G01X8072Y24247D01*
G01X8068Y24240D01*
G01X8066Y24228D01*
G01X8066Y24192D01*
G01X8067Y24127D01*
G01X8315Y23921D01*
G01X8465Y23881D01*
G01X8643Y23945D01*
G01X8670Y24050D01*
G01X8680Y24093D01*
G01X8689Y24133D01*
G01X8695Y24163D01*
G01X8697Y24182D01*
G01X8698Y24199D01*
G01X8700Y24218D01*
G01X8704Y24238D01*
G01X8710Y24258D01*
G01X8716Y24279D01*
G01X8724Y24300D01*
G01X8733Y24321D01*
G01X8742Y24341D01*
G01X8752Y24362D01*
G01X8774Y24400D01*
G01X8786Y24418D01*
G01X8797Y24435D01*
G01X8808Y24450D01*
G01X8820Y24463D01*
G01X8831Y24475D01*
G01X8841Y24484D01*
G01X8851Y24491D01*
G01X8860Y24496D01*
G01X8869Y24498D01*
G01X8876Y24497D01*
G01X8883Y24493D01*
G01X8888Y24486D01*
G01X8891Y24475D01*
G01X8907Y24407D01*
G01X9001Y24317D01*
G01X9094Y24228D01*
G01X9332Y24228D01*
G01X9492Y24318D01*
G01X9543Y24444D01*
G01X9594Y24569D01*
G01X9625Y24779D01*
G01X9657Y24989D01*
G01X9653Y25318D01*
G01X9652Y25352D01*
G01X9651Y25385D01*
G01X9651Y25419D01*
G01X9649Y25483D01*
G01X9648Y25513D01*
G01X9646Y25542D01*
G01X9645Y25570D01*
G01X9644Y25596D01*
G01X9642Y25620D01*
G01X9641Y25642D01*
G01X9639Y25661D01*
G01X9638Y25678D01*
G01X9636Y25693D01*
G01X9635Y25704D01*
G01X9633Y25713D01*
G01X9618Y25779D01*
G01X9570Y25779D01*
G01X9560Y25778D01*
G01X9547Y25775D01*
G01X9532Y25771D01*
G01X9514Y25766D01*
G01X9493Y25759D01*
G01X9471Y25751D01*
G01X9447Y25742D01*
G01X9422Y25732D01*
G01X9395Y25721D01*
G01X9368Y25709D01*
G01X9340Y25697D01*
G01X9312Y25684D01*
G01X9283Y25671D01*
G01X9255Y25658D01*
G01X9228Y25644D01*
G01X9201Y25631D01*
G01X9175Y25617D01*
G01X9151Y25604D01*
G01X9128Y25591D01*
G01X9107Y25578D01*
G01X9013Y25521D01*
G01X9013Y25657D01*
G01X9016Y25744D01*
G01X9018Y25772D01*
G01X9021Y25798D01*
G01X9023Y25821D01*
G01X9026Y25841D01*
G01X9030Y25857D01*
G01X9045Y25921D01*
G01X9156Y25836D01*
G01X9293Y25836D01*
G01X9395Y25918D01*
G01X9395Y26453D01*
G01X9332Y26597D01*
G01X9323Y26618D01*
G01X9313Y26640D01*
G01X9303Y26664D01*
G01X9292Y26690D01*
G01X9281Y26715D01*
G01X9258Y26768D01*
G01X9247Y26794D01*
G01X9237Y26820D01*
G01X9227Y26844D01*
G01X9217Y26867D01*
G01X9208Y26889D01*
G01X9196Y26919D01*
G01X9183Y26947D01*
G01X9170Y26974D01*
G01X9158Y26998D01*
G01X9147Y27018D01*
G01X9138Y27035D01*
G01X9130Y27047D01*
G01X9124Y27053D01*
G01X9100Y27069D01*
G01X8991Y26905D01*
G01X8961Y26859D01*
G01X8945Y26835D01*
G01X8915Y26789D01*
G01X8887Y26747D01*
G01X8874Y26727D01*
G01X8863Y26710D01*
G01X8852Y26694D01*
G01X8843Y26680D01*
G01X8836Y26669D01*
G01X8826Y26652D01*
G01X8815Y26633D01*
G01X8804Y26611D01*
G01X8782Y26565D01*
G01X8772Y26541D01*
G01X8763Y26518D01*
G01X8755Y26496D01*
G01X8721Y26396D01*
G01X8716Y26224D01*
G01X8711Y26051D01*
G01X8732Y26015D01*
G01X8753Y25980D01*
G01X8984Y25980D01*
G01X8971Y25829D01*
G01X8968Y25797D01*
G01X8959Y25695D01*
G01X8956Y25662D01*
G01X8953Y25632D01*
G01X8950Y25606D01*
G01X8948Y25584D01*
G01X8937Y25490D01*
G01X8703Y25236D01*
G01X8647Y25118D01*
G01X8591Y25001D01*
G01X8591Y24824D01*
G01X8697Y24709D01*
G01X8803Y24593D01*
G01X8763Y24526D01*
G01X8748Y24497D01*
G01X8735Y24466D01*
G01X8726Y24438D01*
G01X8723Y24416D01*
G01X8723Y24371D01*
G01X8671Y24371D01*
G01X8671Y24439D01*
G01X8670Y24453D01*
G01X8668Y24470D01*
G01X8665Y24489D01*
G01X8660Y24511D01*
G01X8655Y24535D01*
G01X8649Y24560D01*
G01X8642Y24586D01*
G01X8635Y24614D01*
G01X8626Y24642D01*
G01X8618Y24671D01*
G01X8609Y24700D01*
G01X8599Y24728D01*
G01X8590Y24756D01*
G01X8580Y24783D01*
G01X8570Y24809D01*
G01X8561Y24833D01*
G01X8551Y24855D01*
G01X8542Y24875D01*
G01X8533Y24893D01*
G01X8525Y24907D01*
G01X8510Y24936D01*
G01X8498Y24966D01*
G01X8489Y24994D01*
G01X8486Y25017D01*
G01X8484Y25034D01*
G01X8480Y25048D01*
G01X8473Y25057D01*
G01X8464Y25061D01*
G01X8453Y25069D01*
G01X8440Y25090D01*
G01X8427Y25122D01*
G01X8414Y25161D01*
G01X8386Y25261D01*
G01X8482Y25245D01*
G01X8578Y25228D01*
G01X8671Y25296D01*
G01X8763Y25364D01*
G01X8779Y25726D01*
G01X8755Y25759D01*
G01X8750Y25769D01*
G01X8743Y25784D01*
G01X8736Y25803D01*
G01X8728Y25825D01*
G01X8721Y25851D01*
G01X8713Y25878D01*
G01X8705Y25907D01*
G01X8698Y25936D01*
G01X8664Y26080D01*
G01X8494Y26459D01*
G01X8466Y26521D01*
G01X8452Y26551D01*
G01X8438Y26580D01*
G01X8425Y26609D01*
G01X8399Y26663D01*
G01X8374Y26713D01*
G01X8363Y26736D01*
G01X8342Y26778D01*
G01X8332Y26796D01*
G01X8323Y26813D01*
G01X8315Y26828D01*
G01X8308Y26840D01*
G01X8302Y26851D01*
G01X8292Y26866D01*
G01X8288Y26870D01*
G01X8253Y26901D01*
G01X8277Y26993D01*
G01X8282Y27014D01*
G01X8287Y27038D01*
G01X8291Y27065D01*
G01X8295Y27094D01*
G01X8297Y27123D01*
G01X8300Y27152D01*
G01X8301Y27180D01*
G01X8302Y27207D01*
G01X8302Y27329D01*
G01X8504Y27329D01*
G01X8548Y27382D01*
G01X8591Y27434D01*
G01X8591Y27726D01*
G01X8570Y27736D01*
G01X8565Y27741D01*
G01X8558Y27750D01*
G01X8549Y27764D01*
G01X8539Y27781D01*
G01X8528Y27802D01*
G01X8517Y27825D01*
G01X8493Y27877D01*
G01X8477Y27915D01*
G01X8461Y27951D01*
G01X8446Y27983D01*
G01X8431Y28012D01*
G01X8416Y28039D01*
G01X8403Y28063D01*
G01X8389Y28085D01*
G01X8376Y28104D01*
G01X8363Y28120D01*
G01X8350Y28133D01*
G01X8337Y28144D01*
G01X8324Y28153D01*
G01X8312Y28159D01*
G01X8299Y28162D01*
G37*

%LPC*%
G36*
G01X9538Y25681D02*
G01X9527Y25681D01*
G01X9514Y25678D01*
G01X9499Y25674D01*
G01X9481Y25667D01*
G01X9460Y25658D01*
G01X9436Y25647D01*
G01X9409Y25634D01*
G01X9377Y25619D01*
G01X9342Y25602D01*
G01X9303Y25583D01*
G01X9269Y25567D01*
G01X9236Y25551D01*
G01X9205Y25535D01*
G01X9175Y25520D01*
G01X9147Y25505D01*
G01X9120Y25490D01*
G01X9094Y25476D01*
G01X9070Y25462D01*
G01X9024Y25434D01*
G01X9003Y25421D01*
G01X8983Y25407D01*
G01X8964Y25393D01*
G01X8946Y25380D01*
G01X8912Y25352D01*
G01X8897Y25338D01*
G01X8882Y25323D01*
G01X8867Y25309D01*
G01X8853Y25293D01*
G01X8840Y25278D01*
G01X8827Y25262D01*
G01X8815Y25246D01*
G01X8791Y25212D01*
G01X8780Y25193D01*
G01X8769Y25175D01*
G01X8747Y25135D01*
G01X8736Y25114D01*
G01X8725Y25092D01*
G01X8714Y25069D01*
G01X8671Y24977D01*
G01X8671Y24841D01*
G01X8730Y24781D01*
G01X8756Y24757D01*
G01X8783Y24736D01*
G01X8809Y24721D01*
G01X8829Y24713D01*
G01X8868Y24704D01*
G01X8958Y24798D01*
G01X9048Y24891D01*
G01X9074Y24862D01*
G01X9101Y24832D01*
G01X8910Y24630D01*
G01X8946Y24538D01*
G01X8954Y24518D01*
G01X8964Y24497D01*
G01X8975Y24476D01*
G01X8987Y24454D01*
G01X9000Y24433D01*
G01X9013Y24414D01*
G01X9026Y24397D01*
G01X9038Y24382D01*
G01X9094Y24318D01*
G01X9167Y24301D01*
G01X9239Y24283D01*
G01X9332Y24325D01*
G01X9424Y24367D01*
G01X9454Y24434D01*
G01X9461Y24451D01*
G01X9469Y24473D01*
G01X9478Y24500D01*
G01X9488Y24531D01*
G01X9498Y24564D01*
G01X9518Y24634D01*
G01X9527Y24669D01*
G01X9570Y24838D01*
G01X9600Y25424D01*
G01X9582Y25558D01*
G01X9579Y25581D01*
G01X9576Y25601D01*
G01X9573Y25619D01*
G01X9571Y25635D01*
G01X9568Y25648D01*
G01X9564Y25659D01*
G01X9559Y25668D01*
G01X9554Y25675D01*
G01X9547Y25679D01*
G01X9538Y25681D01*
G37*
G36*
G01X8282Y28068D02*
G01X8257Y28078D01*
G01X8154Y27912D01*
G01X8133Y27878D01*
G01X8113Y27846D01*
G01X8093Y27817D01*
G01X8076Y27791D01*
G01X8060Y27770D01*
G01X8047Y27753D01*
G01X8038Y27741D01*
G01X8032Y27736D01*
G01X8024Y27727D01*
G01X8018Y27710D01*
G01X8013Y27687D01*
G01X8012Y27660D01*
G01X8012Y27595D01*
G01X8091Y27523D01*
G01X8207Y27557D01*
G01X8377Y27415D01*
G01X8426Y27415D01*
G01X8448Y27418D01*
G01X8470Y27425D01*
G01X8491Y27436D01*
G01X8507Y27450D01*
G01X8539Y27484D01*
G01X8537Y27602D01*
G01X8422Y27831D01*
G01X8407Y27862D01*
G01X8391Y27892D01*
G01X8376Y27920D01*
G01X8361Y27947D01*
G01X8347Y27972D01*
G01X8334Y27995D01*
G01X8322Y28015D01*
G01X8311Y28032D01*
G01X8301Y28047D01*
G01X8293Y28058D01*
G01X8287Y28065D01*
G01X8282Y28068D01*
G37*
G36*
G01X9127Y26898D02*
G01X9100Y26970D01*
G01X9054Y26872D01*
G01X9044Y26852D01*
G01X9032Y26830D01*
G01X9008Y26788D01*
G01X8995Y26768D01*
G01X8983Y26750D01*
G01X8972Y26734D01*
G01X8962Y26722D01*
G01X8952Y26708D01*
G01X8926Y26669D01*
G01X8912Y26644D01*
G01X8897Y26618D01*
G01X8882Y26590D01*
G01X8867Y26561D01*
G01X8854Y26532D01*
G01X8790Y26396D01*
G01X8790Y26224D01*
G01X8789Y26051D01*
G01X8971Y26051D01*
G01X8989Y26123D01*
G01X8993Y26140D01*
G01X8997Y26161D01*
G01X9000Y26184D01*
G01X9006Y26236D01*
G01X9008Y26264D01*
G01X9010Y26291D01*
G01X9010Y26317D01*
G01X9013Y26439D01*
G01X9099Y26439D01*
G01X9074Y26118D01*
G01X9044Y26097D01*
G01X9013Y26077D01*
G01X9165Y25917D01*
G01X9227Y25927D01*
G01X9288Y25936D01*
G01X9327Y26013D01*
G01X9366Y26089D01*
G01X9331Y26285D01*
G01X9296Y26482D01*
G01X9225Y26654D01*
G01X9215Y26678D01*
G01X9205Y26703D01*
G01X9186Y26751D01*
G01X9176Y26774D01*
G01X9167Y26797D01*
G01X9159Y26819D01*
G01X9151Y26839D01*
G01X9143Y26857D01*
G01X9137Y26873D01*
G01X9132Y26887D01*
G01X9127Y26898D01*
G37*

%LPD*%
G36*
G01X1300Y24367D02*
G01X1287Y24367D01*
G01X1276Y24364D01*
G01X1266Y24359D01*
G01X1258Y24351D01*
G01X1249Y24341D01*
G01X1240Y24328D01*
G01X1207Y24285D01*
G01X1220Y24091D01*
G01X1234Y23898D01*
G01X1266Y23822D01*
G01X1299Y23746D01*
G01X1427Y23682D01*
G01X1625Y23682D01*
G01X1709Y23777D01*
G01X1794Y23872D01*
G01X1794Y24132D01*
G01X1734Y24190D01*
G01X1675Y24249D01*
G01X1493Y24310D01*
G01X1443Y24327D01*
G01X1401Y24341D01*
G01X1367Y24352D01*
G01X1340Y24359D01*
G01X1318Y24365D01*
G01X1300Y24367D01*
G37*

%LPC*%
G36*
G01X1405Y24244D02*
G01X1303Y24262D01*
G01X1314Y24066D01*
G01X1325Y23869D01*
G01X1366Y23819D01*
G01X1406Y23768D01*
G01X1605Y23768D01*
G01X1661Y23846D01*
G01X1717Y23923D01*
G01X1701Y24127D01*
G01X1604Y24177D01*
G01X1583Y24187D01*
G01X1558Y24198D01*
G01X1532Y24208D01*
G01X1506Y24217D01*
G01X1479Y24226D01*
G01X1452Y24234D01*
G01X1428Y24240D01*
G01X1405Y24244D01*
G37*

%LPD*%
G36*
G01X6943Y23992D02*
G01X6931Y23998D01*
G01X6921Y23996D01*
G01X6913Y23992D01*
G01X6907Y23984D01*
G01X6905Y23976D01*
G01X6906Y23964D01*
G01X6909Y23948D01*
G01X6914Y23928D01*
G01X6921Y23905D01*
G01X6929Y23879D01*
G01X6938Y23851D01*
G01X6948Y23822D01*
G01X6959Y23791D01*
G01X6971Y23761D01*
G01X6982Y23731D01*
G01X6994Y23702D01*
G01X7006Y23674D01*
G01X7017Y23648D01*
G01X7028Y23625D01*
G01X7038Y23605D01*
G01X7047Y23589D01*
G01X7096Y23510D01*
G01X7132Y23510D01*
G01X7149Y23512D01*
G01X7160Y23517D01*
G01X7166Y23527D01*
G01X7165Y23542D01*
G01X7159Y23563D01*
G01X7146Y23590D01*
G01X7128Y23624D01*
G01X7103Y23665D01*
G01X7077Y23709D01*
G01X7066Y23729D01*
G01X7056Y23748D01*
G01X7048Y23766D01*
G01X7042Y23780D01*
G01X7038Y23792D01*
G01X7037Y23800D01*
G01X7033Y23823D01*
G01X7024Y23852D01*
G01X7010Y23885D01*
G01X6994Y23918D01*
G01X6976Y23949D01*
G01X6959Y23974D01*
G01X6943Y23992D01*
G37*

%LPD*%
G36*
G01X3695Y23711D02*
G01X3671Y23711D01*
G01X3562Y23482D01*
G01X3547Y23450D01*
G01X3533Y23420D01*
G01X3520Y23390D01*
G01X3507Y23362D01*
G01X3496Y23336D01*
G01X3485Y23311D01*
G01X3476Y23289D01*
G01X3468Y23269D01*
G01X3462Y23253D01*
G01X3457Y23239D01*
G01X3454Y23229D01*
G01X3453Y23223D01*
G01X3453Y23194D01*
G01X3529Y23194D01*
G01X3613Y23374D01*
G01X3647Y23446D01*
G01X3664Y23480D01*
G01X3679Y23511D01*
G01X3693Y23538D01*
G01X3706Y23561D01*
G01X3715Y23578D01*
G01X3723Y23589D01*
G01X3749Y23624D01*
G01X3734Y23668D01*
G01X3726Y23684D01*
G01X3716Y23698D01*
G01X3705Y23708D01*
G01X3695Y23711D01*
G37*

%LPD*%
G36*
G01X5154Y29907D02*
G01X5115Y29907D01*
G01X5075Y29903D01*
G01X5054Y29900D01*
G01X5032Y29897D01*
G01X5008Y29893D01*
G01X4984Y29888D01*
G01X4957Y29882D01*
G01X4940Y29878D01*
G01X4922Y29874D01*
G01X4902Y29869D01*
G01X4881Y29863D01*
G01X4837Y29851D01*
G01X4815Y29844D01*
G01X4793Y29838D01*
G01X4771Y29831D01*
G01X4731Y29817D01*
G01X4712Y29811D01*
G01X4584Y29764D01*
G01X4521Y29656D01*
G01X4459Y29548D01*
G01X4251Y29512D01*
G01X4176Y29404D01*
G01X4165Y29388D01*
G01X4152Y29371D01*
G01X4138Y29353D01*
G01X4124Y29333D01*
G01X4108Y29313D01*
G01X4060Y29250D01*
G01X4043Y29230D01*
G01X4027Y29210D01*
G01X3997Y29174D01*
G01X3963Y29134D01*
G01X3933Y29096D01*
G01X3919Y29077D01*
G01X3906Y29059D01*
G01X3894Y29042D01*
G01X3882Y29024D01*
G01X3860Y28988D01*
G01X3840Y28952D01*
G01X3822Y28914D01*
G01X3813Y28894D01*
G01X3805Y28874D01*
G01X3797Y28853D01*
G01X3781Y28807D01*
G01X3773Y28783D01*
G01X3765Y28758D01*
G01X3756Y28731D01*
G01X3748Y28703D01*
G01X3740Y28673D01*
G01X3682Y28464D01*
G01X3777Y27838D01*
G01X3617Y27677D01*
G01X3457Y27515D01*
G01X3349Y27257D01*
G01X3349Y27078D01*
G01X3348Y26898D01*
G01X3401Y26898D01*
G01X3401Y27049D01*
G01X3402Y27074D01*
G01X3404Y27100D01*
G01X3407Y27125D01*
G01X3410Y27151D01*
G01X3415Y27176D01*
G01X3420Y27202D01*
G01X3425Y27227D01*
G01X3432Y27253D01*
G01X3439Y27278D01*
G01X3447Y27303D01*
G01X3456Y27329D01*
G01X3476Y27379D01*
G01X3487Y27404D01*
G01X3499Y27430D01*
G01X3541Y27516D01*
G01X3687Y27661D01*
G01X3832Y27807D01*
G01X3797Y28137D01*
G01X3762Y28468D01*
G01X3796Y28623D01*
G01X3803Y28652D01*
G01X3819Y28710D01*
G01X3828Y28740D01*
G01X3838Y28769D01*
G01X3848Y28797D01*
G01X3859Y28825D01*
G01X3870Y28852D01*
G01X3881Y28877D01*
G01X3893Y28902D01*
G01X3904Y28925D01*
G01X3916Y28946D01*
G01X3927Y28965D01*
G01X3939Y28982D01*
G01X3950Y28997D01*
G01X3960Y29009D01*
G01X3988Y29038D01*
G01X3943Y28923D01*
G01X3933Y28523D01*
G01X3924Y28124D01*
G01X4012Y27911D01*
G01X3933Y27706D01*
G01X3926Y27689D01*
G01X3910Y27651D01*
G01X3892Y27609D01*
G01X3872Y27565D01*
G01X3861Y27543D01*
G01X3850Y27520D01*
G01X3839Y27496D01*
G01X3827Y27473D01*
G01X3816Y27450D01*
G01X3792Y27404D01*
G01X3780Y27382D01*
G01X3769Y27360D01*
G01X3757Y27338D01*
G01X3735Y27298D01*
G01X3724Y27279D01*
G01X3706Y27249D01*
G01X3690Y27220D01*
G01X3674Y27192D01*
G01X3646Y27140D01*
G01X3633Y27115D01*
G01X3611Y27069D01*
G01X3600Y27047D01*
G01X3591Y27025D01*
G01X3582Y27004D01*
G01X3574Y26984D01*
G01X3567Y26965D01*
G01X3555Y26927D01*
G01X3550Y26909D01*
G01X3546Y26891D01*
G01X3542Y26874D01*
G01X3539Y26857D01*
G01X3535Y26823D01*
G01X3533Y26789D01*
G01X3533Y26684D01*
G01X3615Y26503D01*
G01X3698Y26321D01*
G01X3772Y26280D01*
G01X3846Y26238D01*
G01X3985Y26238D01*
G01X3975Y26204D01*
G01X3964Y26171D01*
G01X3773Y26178D01*
G01X3582Y26184D01*
G01X3511Y26120D01*
G01X3480Y26229D01*
G01X3474Y26253D01*
G01X3467Y26276D01*
G01X3460Y26300D01*
G01X3452Y26323D01*
G01X3445Y26345D01*
G01X3439Y26365D01*
G01X3433Y26382D01*
G01X3428Y26396D01*
G01X3415Y26429D01*
G01X3403Y26461D01*
G01X3391Y26491D01*
G01X3380Y26519D01*
G01X3370Y26545D01*
G01X3360Y26570D01*
G01X3350Y26593D01*
G01X3341Y26614D01*
G01X3333Y26633D01*
G01X3325Y26650D01*
G01X3318Y26666D01*
G01X3305Y26692D01*
G01X3299Y26703D01*
G01X3294Y26711D01*
G01X3264Y26753D01*
G01X3203Y26709D01*
G01X3141Y26665D01*
G01X3123Y26803D01*
G01X3118Y26832D01*
G01X3113Y26863D01*
G01X3106Y26894D01*
G01X3099Y26924D01*
G01X3091Y26952D01*
G01X3083Y26978D01*
G01X3076Y27001D01*
G01X3068Y27019D01*
G01X3061Y27036D01*
G01X3054Y27055D01*
G01X3048Y27074D01*
G01X3042Y27094D01*
G01X3038Y27114D01*
G01X3035Y27133D01*
G01X3033Y27151D01*
G01X3032Y27166D01*
G01X3032Y27236D01*
G01X3164Y27560D01*
G01X3243Y27516D01*
G01X3322Y27471D01*
G01X3425Y27531D01*
G01X3453Y27642D01*
G01X3480Y27752D01*
G01X3465Y27849D01*
G01X3461Y27870D01*
G01X3457Y27892D01*
G01X3452Y27913D01*
G01X3447Y27935D01*
G01X3442Y27955D01*
G01X3437Y27974D01*
G01X3433Y27990D01*
G01X3423Y28018D01*
G01X3418Y28035D01*
G01X3412Y28056D01*
G01X3406Y28078D01*
G01X3400Y28102D01*
G01X3395Y28127D01*
G01X3389Y28152D01*
G01X3384Y28176D01*
G01X3361Y28291D01*
G01X3218Y28309D01*
G01X3063Y28194D01*
G01X2907Y28078D01*
G01X2890Y28032D01*
G01X2887Y28019D01*
G01X2884Y28002D01*
G01X2881Y27980D01*
G01X2879Y27954D01*
G01X2877Y27926D01*
G01X2875Y27896D01*
G01X2874Y27865D01*
G01X2874Y27683D01*
G01X2941Y27650D01*
G01X2971Y27637D01*
G01X3003Y27626D01*
G01X3034Y27619D01*
G01X3058Y27616D01*
G01X3109Y27616D01*
G01X3047Y27480D01*
G01X3035Y27452D01*
G01X3022Y27424D01*
G01X3011Y27396D01*
G01X3000Y27371D01*
G01X2990Y27348D01*
G01X2982Y27328D01*
G01X2976Y27312D01*
G01X2972Y27300D01*
G01X2959Y27257D01*
G01X2940Y27315D01*
G01X2932Y27337D01*
G01X2923Y27360D01*
G01X2915Y27382D01*
G01X2906Y27405D01*
G01X2888Y27449D01*
G01X2858Y27512D01*
G01X2847Y27533D01*
G01X2837Y27553D01*
G01X2826Y27573D01*
G01X2804Y27611D01*
G01X2792Y27630D01*
G01X2781Y27648D01*
G01X2769Y27665D01*
G01X2758Y27682D01*
G01X2746Y27698D01*
G01X2734Y27713D01*
G01X2647Y27825D01*
G01X2591Y27805D01*
G01X2535Y27786D01*
G01X2457Y27651D01*
G01X2449Y27638D01*
G01X2442Y27624D01*
G01X2434Y27610D01*
G01X2401Y27544D01*
G01X2393Y27526D01*
G01X2384Y27507D01*
G01X2375Y27487D01*
G01X2357Y27445D01*
G01X2339Y27399D01*
G01X2329Y27376D01*
G01X2319Y27351D01*
G01X2299Y27299D01*
G01X2289Y27272D01*
G01X2278Y27244D01*
G01X2268Y27215D01*
G01X2257Y27186D01*
G01X2246Y27155D01*
G01X2234Y27124D01*
G01X2223Y27092D01*
G01X2211Y27059D01*
G01X2200Y27025D01*
G01X2188Y26991D01*
G01X2155Y26896D01*
G01X2018Y27044D01*
G01X1999Y27064D01*
G01X1979Y27085D01*
G01X1958Y27106D01*
G01X1936Y27126D01*
G01X1915Y27146D01*
G01X1893Y27166D01*
G01X1872Y27184D01*
G01X1852Y27201D01*
G01X1833Y27216D01*
G01X1815Y27230D01*
G01X1799Y27242D01*
G01X1785Y27252D01*
G01X1688Y27312D01*
G01X1660Y27281D01*
G01X1656Y27275D01*
G01X1651Y27266D01*
G01X1645Y27254D01*
G01X1639Y27239D01*
G01X1633Y27222D01*
G01X1627Y27203D01*
G01X1620Y27181D01*
G01X1613Y27158D01*
G01X1606Y27133D01*
G01X1598Y27106D01*
G01X1591Y27078D01*
G01X1583Y27049D01*
G01X1576Y27018D01*
G01X1568Y26987D01*
G01X1554Y26923D01*
G01X1546Y26891D01*
G01X1539Y26858D01*
G01X1533Y26826D01*
G01X1526Y26794D01*
G01X1520Y26762D01*
G01X1514Y26731D01*
G01X1509Y26700D01*
G01X1504Y26671D01*
G01X1500Y26643D01*
G01X1496Y26617D01*
G01X1493Y26591D01*
G01X1490Y26568D01*
G01X1473Y26396D01*
G01X1535Y26295D01*
G01X1598Y26195D01*
G01X1722Y26175D01*
G01X1791Y26213D01*
G01X1821Y26230D01*
G01X1851Y26250D01*
G01X1879Y26269D01*
G01X1901Y26287D01*
G01X1942Y26323D01*
G01X1984Y26216D01*
G01X1993Y26193D01*
G01X2003Y26167D01*
G01X2023Y26109D01*
G01X2033Y26078D01*
G01X2044Y26046D01*
G01X2054Y26014D01*
G01X2064Y25983D01*
G01X2073Y25953D01*
G01X2082Y25925D01*
G01X2090Y25898D01*
G01X2096Y25874D01*
G01X2102Y25854D01*
G01X2106Y25837D01*
G01X2109Y25824D01*
G01X2110Y25816D01*
G01X2104Y25814D01*
G01X2090Y25822D01*
G01X2069Y25840D01*
G01X2044Y25865D01*
G01X1978Y25932D01*
G01X1939Y25877D01*
G01X1924Y25853D01*
G01X1912Y25827D01*
G01X1903Y25804D01*
G01X1900Y25786D01*
G01X1899Y25773D01*
G01X1897Y25764D01*
G01X1895Y25757D01*
G01X1890Y25755D01*
G01X1883Y25756D01*
G01X1874Y25762D01*
G01X1862Y25772D01*
G01X1846Y25787D01*
G01X1827Y25807D01*
G01X1804Y25832D01*
G01X1777Y25863D01*
G01X1744Y25901D01*
G01X1613Y26051D01*
G01X1166Y26300D01*
G01X1062Y26240D01*
G01X1045Y26160D01*
G01X1044Y26152D01*
G01X1042Y26141D01*
G01X1041Y26127D01*
G01X1039Y26111D01*
G01X1037Y26093D01*
G01X1035Y26072D01*
G01X1034Y26050D01*
G01X1032Y26025D01*
G01X1030Y25998D01*
G01X1028Y25970D01*
G01X1026Y25940D01*
G01X1025Y25909D01*
G01X1023Y25877D01*
G01X1019Y25809D01*
G01X1018Y25773D01*
G01X1016Y25737D01*
G01X1015Y25700D01*
G01X1013Y25663D01*
G01X1012Y25626D01*
G01X995Y25172D01*
G01X1097Y25059D01*
G01X1198Y24946D01*
G01X1402Y24946D01*
G01X1498Y25044D01*
G01X1594Y25143D01*
G01X1613Y25130D01*
G01X1618Y25124D01*
G01X1627Y25112D01*
G01X1637Y25095D01*
G01X1650Y25073D01*
G01X1664Y25047D01*
G01X1680Y25019D01*
G01X1696Y24987D01*
G01X1713Y24954D01*
G01X1794Y24792D01*
G01X1794Y24579D01*
G01X1835Y24468D01*
G01X1877Y24357D01*
G01X2041Y24170D01*
G01X2115Y24170D01*
G01X2097Y24030D01*
G01X2079Y23889D01*
G01X2123Y23798D01*
G01X2166Y23707D01*
G01X2259Y23664D01*
G01X2352Y23622D01*
G01X2429Y23640D01*
G01X2505Y23658D01*
G01X2505Y23338D01*
G01X2558Y23338D01*
G01X2558Y23682D01*
G01X2625Y23682D01*
G01X2655Y23685D01*
G01X2688Y23691D01*
G01X2719Y23700D01*
G01X2744Y23712D01*
G01X2795Y23742D01*
G01X2795Y23780D01*
G01X2798Y23798D01*
G01X2806Y23818D01*
G01X2819Y23838D01*
G01X2834Y23855D01*
G01X2874Y23890D01*
G01X2872Y24038D01*
G01X2871Y24185D01*
G01X2825Y24309D01*
G01X2778Y24434D01*
G01X2867Y24531D01*
G01X2957Y24628D01*
G01X2940Y24694D01*
G01X2922Y24752D01*
G01X2912Y24781D01*
G01X2901Y24810D01*
G01X2890Y24837D01*
G01X2878Y24863D01*
G01X2866Y24888D01*
G01X2855Y24910D01*
G01X2844Y24929D01*
G01X2833Y24945D01*
G01X2823Y24957D01*
G01X2815Y24964D01*
G01X2784Y24985D01*
G01X2934Y25052D01*
G01X3118Y24829D01*
G01X3077Y24722D01*
G01X3068Y24697D01*
G01X3050Y24645D01*
G01X3026Y24564D01*
G01X3012Y24508D01*
G01X3006Y24481D01*
G01X3000Y24453D01*
G01X2994Y24426D01*
G01X2989Y24398D01*
G01X2984Y24371D01*
G01X2980Y24345D01*
G01X2977Y24318D01*
G01X2974Y24293D01*
G01X2970Y24243D01*
G01X2968Y24220D01*
G01X2968Y24197D01*
G01X2966Y24062D01*
G01X3048Y23950D01*
G01X3130Y23839D01*
G01X2979Y23641D01*
G01X2980Y23295D01*
G01X3046Y23151D01*
G01X3230Y23103D01*
G01X3378Y23165D01*
G01X3346Y23221D01*
G01X3116Y23187D01*
G01X3071Y23292D01*
G01X3025Y23397D01*
G01X3056Y23606D01*
G01X3130Y23705D01*
G01X3203Y23804D01*
G01X3396Y23915D01*
G01X3423Y23930D01*
G01X3449Y23945D01*
G01X3474Y23959D01*
G01X3499Y23971D01*
G01X3522Y23983D01*
G01X3564Y24004D01*
G01X3582Y24012D01*
G01X3598Y24018D01*
G01X3611Y24023D01*
G01X3621Y24026D01*
G01X3628Y24027D01*
G01X3649Y24032D01*
G01X3678Y24045D01*
G01X3711Y24065D01*
G01X3745Y24090D01*
G01X3823Y24153D01*
G01X3845Y24126D01*
G01X3849Y24119D01*
G01X3854Y24109D01*
G01X3858Y24096D01*
G01X3863Y24080D01*
G01X3867Y24062D01*
G01X3872Y24041D01*
G01X3877Y24018D01*
G01X3881Y23993D01*
G01X3886Y23966D01*
G01X3890Y23938D01*
G01X3895Y23909D01*
G01X3903Y23847D01*
G01X3907Y23814D01*
G01X3910Y23782D01*
G01X3914Y23749D01*
G01X3917Y23716D01*
G01X3919Y23684D01*
G01X3922Y23651D01*
G01X3924Y23620D01*
G01X3925Y23589D01*
G01X3927Y23531D01*
G01X3927Y23323D01*
G01X3893Y23198D01*
G01X3858Y23072D01*
G01X3794Y23034D01*
G01X3766Y23019D01*
G01X3736Y23006D01*
G01X3707Y22998D01*
G01X3685Y22994D01*
G01X3639Y22993D01*
G01X3596Y23065D01*
G01X3577Y23093D01*
G01X3558Y23116D01*
G01X3541Y23131D01*
G01X3528Y23137D01*
G01X3503Y23137D01*
G01X3519Y23013D01*
G01X3587Y22958D01*
G01X3656Y22903D01*
G01X3745Y22928D01*
G01X3835Y22954D01*
G01X3921Y23076D01*
G01X4007Y23199D01*
G01X4007Y23459D01*
G01X4092Y23443D01*
G01X4106Y23441D01*
G01X4123Y23438D01*
G01X4143Y23435D01*
G01X4166Y23432D01*
G01X4192Y23429D01*
G01X4219Y23426D01*
G01X4248Y23423D01*
G01X4278Y23420D01*
G01X4309Y23417D01*
G01X4341Y23414D01*
G01X4372Y23411D01*
G01X4404Y23408D01*
G01X4629Y23389D01*
G01X4838Y23425D01*
G01X4860Y23429D01*
G01X4883Y23433D01*
G01X4931Y23443D01*
G01X4955Y23449D01*
G01X5003Y23460D01*
G01X5027Y23467D01*
G01X5073Y23479D01*
G01X5095Y23486D01*
G01X5116Y23492D01*
G01X5154Y23504D01*
G01X5171Y23510D01*
G01X5186Y23516D01*
G01X5324Y23572D01*
G01X5324Y23674D01*
G01X5457Y23691D01*
G01X5590Y23709D01*
G01X5656Y23681D01*
G01X5723Y23654D01*
G01X6031Y23655D01*
G01X6063Y23656D01*
G01X6095Y23656D01*
G01X6128Y23657D01*
G01X6192Y23659D01*
G01X6254Y23661D01*
G01X6284Y23663D01*
G01X6312Y23665D01*
G01X6340Y23666D01*
G01X6365Y23668D01*
G01X6389Y23670D01*
G01X6410Y23672D01*
G01X6429Y23674D01*
G01X6446Y23677D01*
G01X6460Y23679D01*
G01X6582Y23701D01*
G01X6599Y23419D01*
G01X6616Y23138D01*
G01X6716Y22958D01*
G01X6817Y22891D01*
G01X6918Y22823D01*
G01X7013Y22822D01*
G01X7107Y22821D01*
G01X7219Y22951D01*
G01X7237Y23072D01*
G01X7254Y23194D01*
G01X7169Y23194D01*
G01X7167Y23008D01*
G01X7132Y22957D01*
G01X7097Y22907D01*
G01X6959Y22907D01*
G01X6856Y22966D01*
G01X6752Y23025D01*
G01X6681Y23209D01*
G01X6684Y23640D01*
G01X6684Y23670D01*
G01X6685Y23700D01*
G01X6685Y23761D01*
G01X6687Y23821D01*
G01X6687Y23851D01*
G01X6688Y23881D01*
G01X6690Y23939D01*
G01X6691Y23967D01*
G01X6693Y24021D01*
G01X6694Y24047D01*
G01X6695Y24072D01*
G01X6697Y24118D01*
G01X6698Y24140D01*
G01X6700Y24160D01*
G01X6701Y24179D01*
G01X6702Y24196D01*
G01X6703Y24212D01*
G01X6705Y24226D01*
G01X6706Y24238D01*
G01X6725Y24405D01*
G01X6769Y24363D01*
G01X6789Y24348D01*
G01X6822Y24326D01*
G01X6843Y24313D01*
G01X6866Y24299D01*
G01X6891Y24284D01*
G01X6918Y24269D01*
G01X6946Y24253D01*
G01X6976Y24236D01*
G01X7006Y24220D01*
G01X7037Y24203D01*
G01X7261Y24084D01*
G01X7362Y23982D01*
G01X7462Y23879D01*
G01X7500Y23763D01*
G01X7508Y23736D01*
G01X7515Y23711D01*
G01X7521Y23686D01*
G01X7526Y23663D01*
G01X7530Y23640D01*
G01X7533Y23618D01*
G01X7535Y23596D01*
G01X7535Y23555D01*
G01X7534Y23535D01*
G01X7531Y23515D01*
G01X7528Y23496D01*
G01X7518Y23460D01*
G01X7511Y23442D01*
G01X7503Y23424D01*
G01X7470Y23352D01*
G01X7381Y23338D01*
G01X7291Y23323D01*
G01X7281Y23287D01*
G01X7270Y23252D01*
G01X7476Y23252D01*
G01X7540Y23326D01*
G01X7603Y23400D01*
G01X7603Y23791D01*
G01X7557Y23847D01*
G01X7539Y23870D01*
G01X7525Y23893D01*
G01X7515Y23912D01*
G01X7511Y23926D01*
G01X7504Y23942D01*
G01X7484Y23968D01*
G01X7454Y24002D01*
G01X7418Y24038D01*
G01X7324Y24127D01*
G01X7365Y24271D01*
G01X7373Y24301D01*
G01X7380Y24333D01*
G01X7387Y24364D01*
G01X7393Y24395D01*
G01X7398Y24423D01*
G01X7402Y24449D01*
G01X7405Y24472D01*
G01X7405Y24490D01*
G01X7406Y24565D01*
G01X7491Y24603D01*
G01X7513Y24614D01*
G01X7534Y24626D01*
G01X7555Y24640D01*
G01X7575Y24655D01*
G01X7595Y24671D01*
G01X7612Y24687D01*
G01X7628Y24704D01*
G01X7642Y24720D01*
G01X7653Y24736D01*
G01X7662Y24752D01*
G01X7667Y24765D01*
G01X7669Y24778D01*
G01X7667Y24791D01*
G01X7660Y24799D01*
G01X7650Y24802D01*
G01X7636Y24800D01*
G01X7619Y24793D01*
G01X7600Y24781D01*
G01X7580Y24766D01*
G01X7558Y24745D01*
G01X7546Y24733D01*
G01X7530Y24721D01*
G01X7513Y24709D01*
G01X7475Y24685D01*
G01X7456Y24675D01*
G01X7437Y24666D01*
G01X7419Y24659D01*
G01X7336Y24629D01*
G01X7239Y24673D01*
G01X7143Y24717D01*
G01X7068Y24912D01*
G01X7032Y25278D01*
G01X7091Y25607D01*
G01X7151Y25936D01*
G01X7212Y26078D01*
G01X7225Y26107D01*
G01X7235Y26134D01*
G01X7245Y26160D01*
G01X7253Y26183D01*
G01X7259Y26205D01*
G01X7264Y26224D01*
G01X7268Y26242D01*
G01X7271Y26257D01*
G01X7272Y26271D01*
G01X7273Y26282D01*
G01X7272Y26290D01*
G01X7270Y26297D01*
G01X7266Y26300D01*
G01X7262Y26302D01*
G01X7257Y26301D01*
G01X7250Y26297D01*
G01X7243Y26290D01*
G01X7235Y26281D01*
G01X7226Y26269D01*
G01X7216Y26254D01*
G01X7205Y26236D01*
G01X7193Y26215D01*
G01X7181Y26191D01*
G01X7168Y26164D01*
G01X7106Y26033D01*
G01X7061Y26128D01*
G01X7050Y26149D01*
G01X7037Y26172D01*
G01X7005Y26220D01*
G01X6987Y26245D01*
G01X6969Y26268D01*
G01X6951Y26289D01*
G01X6934Y26308D01*
G01X6906Y26338D01*
G01X6885Y26366D01*
G01X6868Y26392D01*
G01X6858Y26414D01*
G01X6853Y26434D01*
G01X6854Y26451D01*
G01X6862Y26463D01*
G01X6875Y26472D01*
G01X6882Y26478D01*
G01X6911Y26507D01*
G01X6931Y26529D01*
G01X6954Y26555D01*
G01X6979Y26585D01*
G01X7005Y26617D01*
G01X7033Y26652D01*
G01X7169Y26821D01*
G01X7169Y26876D01*
G01X7167Y26889D01*
G01X7163Y26907D01*
G01X7157Y26928D01*
G01X7149Y26952D01*
G01X7140Y26978D01*
G01X7129Y27004D01*
G01X7116Y27032D01*
G01X7096Y27072D01*
G01X7075Y27111D01*
G01X7061Y27136D01*
G01X7053Y27148D01*
G01X7037Y27174D01*
G01X7028Y27187D01*
G01X7019Y27201D01*
G01X7008Y27215D01*
G01X6997Y27230D01*
G01X6986Y27246D01*
G01X6973Y27262D01*
G01X6959Y27280D01*
G01X6944Y27299D01*
G01X6928Y27319D01*
G01X6911Y27341D01*
G01X6892Y27363D01*
G01X6872Y27388D01*
G01X6851Y27414D01*
G01X6827Y27442D01*
G01X6803Y27472D01*
G01X6776Y27504D01*
G01X6748Y27538D01*
G01X6717Y27574D01*
G01X6685Y27612D01*
G01X6504Y27828D01*
G01X6521Y27973D01*
G01X6523Y27995D01*
G01X6526Y28019D01*
G01X6531Y28073D01*
G01X6534Y28102D01*
G01X6540Y28162D01*
G01X6546Y28224D01*
G01X6548Y28253D01*
G01X6551Y28282D01*
G01X6553Y28309D01*
G01X6569Y28499D01*
G01X6523Y28653D01*
G01X6516Y28676D01*
G01X6508Y28700D01*
G01X6500Y28727D01*
G01X6491Y28754D01*
G01X6471Y28812D01*
G01X6461Y28842D01*
G01X6451Y28871D01*
G01X6431Y28927D01*
G01X6422Y28953D01*
G01X6412Y28977D01*
G01X6348Y29146D01*
G01X6246Y29296D01*
G01X6145Y29446D01*
G01X6014Y29551D01*
G01X5988Y29572D01*
G01X5962Y29591D01*
G01X5938Y29609D01*
G01X5917Y29624D01*
G01X5899Y29637D01*
G01X5884Y29647D01*
G01X5873Y29653D01*
G01X5867Y29655D01*
G01X5853Y29660D01*
G01X5826Y29675D01*
G01X5791Y29697D01*
G01X5751Y29723D01*
G01X5652Y29791D01*
G01X5430Y29852D01*
G01X5396Y29862D01*
G01X5364Y29870D01*
G01X5335Y29878D01*
G01X5308Y29884D01*
G01X5282Y29890D01*
G01X5258Y29895D01*
G01X5235Y29899D01*
G01X5193Y29905D01*
G01X5173Y29906D01*
G01X5154Y29907D01*
G37*

%LPC*%
G36*
G01X1180Y26181D02*
G01X1137Y26181D01*
G01X1124Y26087D01*
G01X1119Y26053D01*
G01X1115Y26019D01*
G01X1111Y25987D01*
G01X1103Y25925D01*
G01X1099Y25895D01*
G01X1093Y25839D01*
G01X1090Y25812D01*
G01X1088Y25785D01*
G01X1085Y25760D01*
G01X1081Y25710D01*
G01X1079Y25687D01*
G01X1078Y25664D01*
G01X1076Y25641D01*
G01X1074Y25597D01*
G01X1073Y25576D01*
G01X1073Y25535D01*
G01X1072Y25515D01*
G01X1072Y25475D01*
G01X1075Y25301D01*
G01X1139Y25088D01*
G01X1293Y25002D01*
G01X1370Y25045D01*
G01X1386Y25055D01*
G01X1404Y25068D01*
G01X1422Y25082D01*
G01X1440Y25098D01*
G01X1457Y25114D01*
G01X1474Y25131D01*
G01X1489Y25148D01*
G01X1501Y25164D01*
G01X1556Y25241D01*
G01X1504Y25333D01*
G01X1483Y25371D01*
G01X1468Y25400D01*
G01X1458Y25423D01*
G01X1454Y25440D01*
G01X1455Y25451D01*
G01X1462Y25458D01*
G01X1473Y25462D01*
G01X1490Y25463D01*
G01X1529Y25463D01*
G01X1615Y25319D01*
G01X1813Y25319D01*
G01X1828Y25466D01*
G01X1844Y25613D01*
G01X1808Y25688D01*
G01X1799Y25706D01*
G01X1786Y25726D01*
G01X1770Y25749D01*
G01X1753Y25773D01*
G01X1713Y25823D01*
G01X1692Y25847D01*
G01X1671Y25869D01*
G01X1570Y25974D01*
G01X1396Y26078D01*
G01X1360Y26098D01*
G01X1325Y26118D01*
G01X1292Y26135D01*
G01X1261Y26150D01*
G01X1233Y26163D01*
G01X1210Y26172D01*
G01X1192Y26178D01*
G01X1180Y26181D01*
G37*
G36*
G01X6079Y28621D02*
G01X5910Y28621D01*
G01X5870Y28528D01*
G01X5831Y28435D01*
G01X5842Y28191D01*
G01X5844Y28157D01*
G01X5848Y28091D01*
G01X5850Y28059D01*
G01X5852Y28028D01*
G01X5854Y28000D01*
G01X5856Y27973D01*
G01X5858Y27949D01*
G01X5860Y27927D01*
G01X5862Y27909D01*
G01X5864Y27894D01*
G01X5866Y27883D01*
G01X5878Y27820D01*
G01X6040Y27882D01*
G01X6092Y28012D01*
G01X6143Y28142D01*
G01X6149Y28306D01*
G01X6154Y28469D01*
G01X6117Y28545D01*
G01X6079Y28621D01*
G37*
G36*
G01X5495Y28455D02*
G01X5450Y28521D01*
G01X5466Y28116D01*
G01X5467Y28069D01*
G01X5469Y28025D01*
G01X5471Y27984D01*
G01X5473Y27945D01*
G01X5475Y27908D01*
G01X5477Y27874D01*
G01X5480Y27842D01*
G01X5482Y27812D01*
G01X5484Y27784D01*
G01X5487Y27759D01*
G01X5490Y27736D01*
G01X5492Y27714D01*
G01X5495Y27695D01*
G01X5499Y27678D01*
G01X5502Y27663D01*
G01X5506Y27650D01*
G01X5509Y27639D01*
G01X5513Y27630D01*
G01X5518Y27623D01*
G01X5522Y27617D01*
G01X5527Y27614D01*
G01X5532Y27612D01*
G01X5537Y27612D01*
G01X5542Y27613D01*
G01X5548Y27616D01*
G01X5554Y27621D01*
G01X5561Y27627D01*
G01X5568Y27635D01*
G01X5575Y27644D01*
G01X5582Y27655D01*
G01X5590Y27667D01*
G01X5598Y27681D01*
G01X5636Y27745D01*
G01X5611Y27903D01*
G01X5607Y27926D01*
G01X5603Y27951D01*
G01X5595Y28005D01*
G01X5590Y28034D01*
G01X5582Y28092D01*
G01X5577Y28121D01*
G01X5573Y28149D01*
G01X5569Y28176D01*
G01X5566Y28202D01*
G01X5562Y28225D01*
G01X5539Y28390D01*
G01X5495Y28455D01*
G37*
G36*
G01X2795Y24177D02*
G01X2597Y24629D01*
G01X2571Y24628D01*
G01X2566Y24627D01*
G01X2558Y24621D01*
G01X2548Y24612D01*
G01X2535Y24600D01*
G01X2520Y24585D01*
G01X2504Y24568D01*
G01X2486Y24548D01*
G01X2467Y24526D01*
G01X2446Y24502D01*
G01X2425Y24477D01*
G01X2403Y24450D01*
G01X2380Y24422D01*
G01X2216Y24216D01*
G01X2187Y24060D01*
G01X2157Y23905D01*
G01X2209Y23829D01*
G01X2260Y23754D01*
G01X2329Y23727D01*
G01X2398Y23701D01*
G01X2451Y23753D01*
G01X2505Y23806D01*
G01X2505Y24113D01*
G01X2577Y24113D01*
G01X2571Y23783D01*
G01X2713Y23765D01*
G01X2754Y23851D01*
G01X2795Y23938D01*
G01X2795Y24177D01*
G37*
G36*
G01X3285Y28219D02*
G01X3252Y28219D01*
G01X3237Y28216D01*
G01X3219Y28208D01*
G01X3201Y28196D01*
G01X3185Y28182D01*
G01X3165Y28163D01*
G01X3136Y28140D01*
G01X3102Y28115D01*
G01X3067Y28091D01*
G01X2984Y28037D01*
G01X2918Y27781D01*
G01X2967Y27741D01*
G01X3016Y27702D01*
G01X3188Y27702D01*
G01X3245Y27588D01*
G01X3349Y27588D01*
G01X3380Y27660D01*
G01X3410Y27733D01*
G01X3377Y27883D01*
G01X3372Y27904D01*
G01X3367Y27926D01*
G01X3361Y27948D01*
G01X3356Y27971D01*
G01X3350Y27994D01*
G01X3344Y28016D01*
G01X3339Y28038D01*
G01X3333Y28058D01*
G01X3328Y28078D01*
G01X3323Y28096D01*
G01X3318Y28112D01*
G01X3314Y28126D01*
G01X3285Y28219D01*
G37*
G36*
G01X4330Y28723D02*
G01X4307Y28865D01*
G01X4288Y28787D01*
G01X4286Y28775D01*
G01X4283Y28760D01*
G01X4281Y28743D01*
G01X4279Y28723D01*
G01X4277Y28702D01*
G01X4275Y28679D01*
G01X4273Y28655D01*
G01X4272Y28630D01*
G01X4270Y28605D01*
G01X4269Y28579D01*
G01X4269Y28529D01*
G01X4267Y28349D01*
G01X4320Y28153D01*
G01X4326Y28132D01*
G01X4332Y28110D01*
G01X4339Y28087D01*
G01X4355Y28037D01*
G01X4364Y28011D01*
G01X4373Y27984D01*
G01X4382Y27958D01*
G01X4391Y27931D01*
G01X4401Y27904D01*
G01X4410Y27878D01*
G01X4420Y27853D01*
G01X4429Y27828D01*
G01X4447Y27782D01*
G01X4456Y27761D01*
G01X4540Y27563D01*
G01X4609Y27492D01*
G01X4679Y27420D01*
G01X4819Y27371D01*
G01X4960Y27321D01*
G01X5232Y27388D01*
G01X5357Y27473D01*
G01X5481Y27558D01*
G01X5457Y27623D01*
G01X5453Y27634D01*
G01X5450Y27648D01*
G01X5446Y27663D01*
G01X5442Y27680D01*
G01X5438Y27699D01*
G01X5434Y27720D01*
G01X5430Y27742D01*
G01X5426Y27765D01*
G01X5418Y27815D01*
G01X5415Y27842D01*
G01X5411Y27869D01*
G01X5407Y27898D01*
G01X5404Y27926D01*
G01X5401Y27955D01*
G01X5397Y27985D01*
G01X5394Y28015D01*
G01X5392Y28044D01*
G01X5389Y28074D01*
G01X5383Y28161D01*
G01X5381Y28189D01*
G01X5380Y28216D01*
G01X5378Y28243D01*
G01X5378Y28268D01*
G01X5377Y28292D01*
G01X5377Y28495D01*
G01X5287Y28531D01*
G01X5196Y28566D01*
G01X5114Y28669D01*
G01X5031Y28771D01*
G01X5049Y28664D01*
G01X5068Y28558D01*
G01X5031Y28532D01*
G01X4995Y28507D01*
G01X4843Y28507D01*
G01X4692Y28506D01*
G01X4587Y28610D01*
G01X4481Y28714D01*
G01X4481Y28687D01*
G01X4485Y28672D01*
G01X4497Y28652D01*
G01X4513Y28629D01*
G01X4534Y28607D01*
G01X4554Y28585D01*
G01X4571Y28563D01*
G01X4582Y28544D01*
G01X4586Y28531D01*
G01X4586Y28506D01*
G01X4408Y28506D01*
G01X4380Y28543D01*
G01X4374Y28553D01*
G01X4368Y28569D01*
G01X4361Y28588D01*
G01X4354Y28611D01*
G01X4347Y28637D01*
G01X4341Y28664D01*
G01X4335Y28693D01*
G01X4330Y28723D01*
G37*
G36*
G01X4523Y24618D02*
G01X4506Y24619D01*
G01X4492Y24618D01*
G01X4481Y24616D01*
G01X4473Y24612D01*
G01X4467Y24608D01*
G01X4465Y24602D01*
G01X4465Y24595D01*
G01X4469Y24587D01*
G01X4475Y24577D01*
G01X4484Y24566D01*
G01X4496Y24554D01*
G01X4510Y24541D01*
G01X4527Y24526D01*
G01X4573Y24488D01*
G01X4646Y24487D01*
G01X4718Y24486D01*
G01X4718Y24421D01*
G01X4606Y24436D01*
G01X4583Y24439D01*
G01X4560Y24443D01*
G01X4537Y24446D01*
G01X4516Y24450D01*
G01X4496Y24453D01*
G01X4479Y24456D01*
G01X4465Y24459D01*
G01X4455Y24461D01*
G01X4415Y24472D01*
G01X4415Y24387D01*
G01X4491Y24347D01*
G01X4508Y24339D01*
G01X4528Y24331D01*
G01X4550Y24323D01*
G01X4574Y24315D01*
G01X4598Y24308D01*
G01X4623Y24302D01*
G01X4646Y24297D01*
G01X4668Y24293D01*
G01X4770Y24278D01*
G01X4741Y24228D01*
G01X4666Y24228D01*
G01X4649Y24229D01*
G01X4631Y24230D01*
G01X4611Y24233D01*
G01X4571Y24241D01*
G01X4552Y24246D01*
G01X4534Y24252D01*
G01X4518Y24258D01*
G01X4446Y24287D01*
G01X4392Y24229D01*
G01X4407Y24213D01*
G01X4413Y24208D01*
G01X4426Y24202D01*
G01X4444Y24195D01*
G01X4466Y24186D01*
G01X4523Y24167D01*
G01X4555Y24156D01*
G01X4588Y24146D01*
G01X4755Y24094D01*
G01X4778Y24019D01*
G01X4715Y24034D01*
G01X4701Y24038D01*
G01X4684Y24042D01*
G01X4665Y24046D01*
G01X4645Y24051D01*
G01X4624Y24057D01*
G01X4582Y24067D01*
G01X4563Y24071D01*
G01X4474Y24093D01*
G01X4498Y24013D01*
G01X4575Y23971D01*
G01X4652Y23930D01*
G01X4952Y23905D01*
G01X4947Y24222D01*
G01X4942Y24538D01*
G01X4731Y24584D01*
G01X4692Y24593D01*
G01X4656Y24600D01*
G01X4623Y24606D01*
G01X4593Y24611D01*
G01X4567Y24614D01*
G01X4544Y24617D01*
G01X4523Y24618D01*
G37*
G36*
G01X3323Y25175D02*
G01X3294Y25175D01*
G01X3279Y25125D01*
G01X3272Y25102D01*
G01X3262Y25075D01*
G01X3251Y25048D01*
G01X3241Y25025D01*
G01X3231Y25001D01*
G01X3223Y24971D01*
G01X3218Y24939D01*
G01X3216Y24910D01*
G01X3215Y24895D01*
G01X3212Y24876D01*
G01X3207Y24854D01*
G01X3202Y24831D01*
G01X3195Y24806D01*
G01X3187Y24780D01*
G01X3178Y24755D01*
G01X3168Y24730D01*
G01X3161Y24713D01*
G01X3154Y24692D01*
G01X3146Y24669D01*
G01X3138Y24643D01*
G01X3129Y24615D01*
G01X3121Y24585D01*
G01X3103Y24523D01*
G01X3079Y24427D01*
G01X3072Y24396D01*
G01X3023Y24177D01*
G01X3065Y24081D01*
G01X3108Y23984D01*
G01X3162Y23948D01*
G01X3217Y23911D01*
G01X3401Y24019D01*
G01X3584Y24127D01*
G01X3585Y24331D01*
G01X3585Y24376D01*
G01X3586Y24399D01*
G01X3586Y24424D01*
G01X3588Y24474D01*
G01X3588Y24500D01*
G01X3590Y24550D01*
G01X3592Y24575D01*
G01X3594Y24623D01*
G01X3596Y24645D01*
G01X3597Y24666D01*
G01X3598Y24686D01*
G01X3600Y24705D01*
G01X3615Y24874D01*
G01X3484Y25025D01*
G01X3457Y25055D01*
G01X3431Y25083D01*
G01X3406Y25109D01*
G01X3383Y25131D01*
G01X3362Y25150D01*
G01X3345Y25164D01*
G01X3332Y25172D01*
G01X3323Y25175D01*
G37*
G36*
G01X5501Y27454D02*
G01X5488Y27457D01*
G01X5473Y27455D01*
G01X5456Y27450D01*
G01X5436Y27441D01*
G01X5414Y27428D01*
G01X5387Y27412D01*
G01X5357Y27392D01*
G01X5317Y27364D01*
G01X5288Y27343D01*
G01X5267Y27325D01*
G01X5255Y27311D01*
G01X5250Y27297D01*
G01X5251Y27283D01*
G01X5258Y27267D01*
G01X5269Y27247D01*
G01X5291Y27208D01*
G01X5345Y27240D01*
G01X5371Y27252D01*
G01X5402Y27263D01*
G01X5433Y27269D01*
G01X5461Y27272D01*
G01X5487Y27274D01*
G01X5513Y27279D01*
G01X5536Y27286D01*
G01X5554Y27295D01*
G01X5585Y27316D01*
G01X5554Y27385D01*
G01X5543Y27407D01*
G01X5533Y27424D01*
G01X5523Y27438D01*
G01X5512Y27448D01*
G01X5501Y27454D01*
G37*
G36*
G01X6625Y27545D02*
G01X6621Y27547D01*
G01X6620Y27544D01*
G01X6624Y27535D01*
G01X6631Y27518D01*
G01X6640Y27495D01*
G01X6651Y27467D01*
G01X6665Y27435D01*
G01X6680Y27400D01*
G01X6696Y27362D01*
G01X6713Y27323D01*
G01X6724Y27295D01*
G01X6736Y27267D01*
G01X6747Y27239D01*
G01X6759Y27210D01*
G01X6781Y27154D01*
G01X6791Y27128D01*
G01X6800Y27102D01*
G01X6809Y27078D01*
G01X6816Y27057D01*
G01X6822Y27037D01*
G01X6828Y27021D01*
G01X6834Y26998D01*
G01X6842Y26974D01*
G01X6849Y26949D01*
G01X6857Y26925D01*
G01X6864Y26902D01*
G01X6871Y26881D01*
G01X6877Y26862D01*
G01X6882Y26847D01*
G01X6891Y26815D01*
G01X6898Y26778D01*
G01X6903Y26739D01*
G01X6905Y26704D01*
G01X6905Y26626D01*
G01X7122Y26863D01*
G01X7047Y27017D01*
G01X6971Y27170D01*
G01X6791Y27372D01*
G01X6767Y27399D01*
G01X6744Y27424D01*
G01X6722Y27448D01*
G01X6702Y27469D01*
G01X6683Y27489D01*
G01X6667Y27506D01*
G01X6653Y27520D01*
G01X6641Y27531D01*
G01X6631Y27540D01*
G01X6625Y27545D01*
G37*
G36*
G01X2000Y25773D02*
G01X1996Y25774D01*
G01X1992Y25773D01*
G01X1987Y25770D01*
G01X1983Y25765D01*
G01X1978Y25758D01*
G01X1974Y25750D01*
G01X1969Y25739D01*
G01X1960Y25712D01*
G01X1956Y25696D01*
G01X1951Y25678D01*
G01X1946Y25658D01*
G01X1942Y25636D01*
G01X1937Y25613D01*
G01X1933Y25588D01*
G01X1928Y25561D01*
G01X1923Y25532D01*
G01X1919Y25502D01*
G01X1914Y25470D01*
G01X1910Y25436D01*
G01X1905Y25401D01*
G01X1901Y25364D01*
G01X1897Y25326D01*
G01X1892Y25286D01*
G01X1888Y25245D01*
G01X1884Y25202D01*
G01X1879Y25157D01*
G01X1875Y25111D01*
G01X1848Y24803D01*
G01X1904Y24473D01*
G01X1956Y24394D01*
G01X1967Y24377D01*
G01X1980Y24360D01*
G01X1994Y24344D01*
G01X2022Y24314D01*
G01X2035Y24302D01*
G01X2048Y24292D01*
G01X2059Y24284D01*
G01X2110Y24254D01*
G01X2144Y24277D01*
G01X2154Y24284D01*
G01X2167Y24296D01*
G01X2183Y24313D01*
G01X2202Y24333D01*
G01X2222Y24355D01*
G01X2268Y24407D01*
G01X2291Y24435D01*
G01X2404Y24570D01*
G01X2340Y24664D01*
G01X2327Y24686D01*
G01X2313Y24709D01*
G01X2285Y24761D01*
G01X2272Y24787D01*
G01X2260Y24813D01*
G01X2250Y24838D01*
G01X2234Y24882D01*
G01X2226Y24905D01*
G01X2216Y24930D01*
G01X2207Y24956D01*
G01X2198Y24981D01*
G01X2189Y25005D01*
G01X2180Y25027D01*
G01X2172Y25046D01*
G01X2167Y25059D01*
G01X2162Y25075D01*
G01X2156Y25092D01*
G01X2150Y25111D01*
G01X2143Y25132D01*
G01X2137Y25154D01*
G01X2130Y25176D01*
G01X2106Y25268D01*
G01X2101Y25290D01*
G01X2064Y25448D01*
G01X2090Y25522D01*
G01X2156Y25462D01*
G01X2188Y25326D01*
G01X2202Y25268D01*
G01X2209Y25240D01*
G01X2217Y25213D01*
G01X2224Y25188D01*
G01X2230Y25165D01*
G01X2244Y25123D01*
G01X2249Y25110D01*
G01X2255Y25095D01*
G01X2261Y25077D01*
G01X2269Y25057D01*
G01X2277Y25035D01*
G01X2285Y25011D01*
G01X2294Y24987D01*
G01X2314Y24935D01*
G01X2334Y24881D01*
G01X2405Y24687D01*
G01X2505Y24687D01*
G01X2505Y24749D01*
G01X2623Y24730D01*
G01X2729Y24546D01*
G01X2758Y24545D01*
G01X2773Y24549D01*
G01X2792Y24561D01*
G01X2813Y24579D01*
G01X2834Y24601D01*
G01X2882Y24658D01*
G01X2800Y24824D01*
G01X2719Y24989D01*
G01X2671Y24997D01*
G01X2648Y25001D01*
G01X2620Y25007D01*
G01X2591Y25013D01*
G01X2565Y25019D01*
G01X2506Y25033D01*
G01X2416Y25181D01*
G01X2397Y25339D01*
G01X2377Y25496D01*
G01X2329Y25554D01*
G01X2317Y25568D01*
G01X2300Y25583D01*
G01X2280Y25600D01*
G01X2256Y25618D01*
G01X2231Y25636D01*
G01X2177Y25672D01*
G01X2149Y25688D01*
G01X2122Y25704D01*
G01X2097Y25718D01*
G01X2073Y25732D01*
G01X2051Y25744D01*
G01X2032Y25755D01*
G01X2017Y25763D01*
G01X2006Y25769D01*
G01X2000Y25773D01*
G37*
G36*
G01X1748Y27171D02*
G01X1690Y27189D01*
G01X1673Y27108D01*
G01X1670Y27096D01*
G01X1667Y27081D01*
G01X1663Y27063D01*
G01X1659Y27044D01*
G01X1655Y27023D01*
G01X1650Y27001D01*
G01X1645Y26978D01*
G01X1639Y26954D01*
G01X1634Y26929D01*
G01X1628Y26905D01*
G01X1623Y26880D01*
G01X1617Y26856D01*
G01X1578Y26685D01*
G01X1572Y26389D01*
G01X1660Y26242D01*
G01X1744Y26276D01*
G01X1827Y26310D01*
G01X1953Y26526D01*
G01X2030Y26482D01*
G01X2064Y26466D01*
G01X2100Y26452D01*
G01X2134Y26442D01*
G01X2161Y26439D01*
G01X2215Y26439D01*
G01X2214Y26475D01*
G01X2211Y26493D01*
G01X2202Y26517D01*
G01X2190Y26542D01*
G01X2175Y26566D01*
G01X2136Y26622D01*
G01X2136Y26783D01*
G01X1971Y26968D01*
G01X1807Y27153D01*
G01X1748Y27171D01*
G37*
G36*
G01X2622Y27719D02*
G01X2611Y27723D01*
G01X2600Y27722D01*
G01X2589Y27716D01*
G01X2578Y27704D01*
G01X2566Y27687D01*
G01X2552Y27665D01*
G01X2537Y27638D01*
G01X2513Y27594D01*
G01X2501Y27571D01*
G01X2479Y27525D01*
G01X2467Y27501D01*
G01X2445Y27453D01*
G01X2434Y27428D01*
G01X2424Y27403D01*
G01X2413Y27379D01*
G01X2403Y27354D01*
G01X2393Y27328D01*
G01X2383Y27303D01*
G01X2374Y27278D01*
G01X2364Y27253D01*
G01X2355Y27227D01*
G01X2347Y27202D01*
G01X2338Y27177D01*
G01X2322Y27127D01*
G01X2314Y27103D01*
G01X2307Y27079D01*
G01X2300Y27054D01*
G01X2293Y27031D01*
G01X2287Y27007D01*
G01X2275Y26961D01*
G01X2270Y26939D01*
G01X2266Y26917D01*
G01X2261Y26896D01*
G01X2257Y26875D01*
G01X2254Y26855D01*
G01X2250Y26835D01*
G01X2248Y26816D01*
G01X2244Y26780D01*
G01X2243Y26763D01*
G01X2242Y26747D01*
G01X2242Y26731D01*
G01X2241Y26607D01*
G01X2395Y26439D01*
G01X2667Y26439D01*
G01X2657Y26403D01*
G01X2646Y26367D01*
G01X2524Y26358D01*
G01X2401Y26350D01*
G01X2350Y26380D01*
G01X2298Y26410D01*
G01X2218Y26360D01*
G01X2137Y26310D01*
G01X2080Y26348D01*
G01X2024Y26387D01*
G01X2038Y26320D01*
G01X2050Y26272D01*
G01X2057Y26249D01*
G01X2065Y26223D01*
G01X2073Y26194D01*
G01X2082Y26163D01*
G01X2092Y26130D01*
G01X2114Y26060D01*
G01X2125Y26023D01*
G01X2136Y25987D01*
G01X2220Y25721D01*
G01X2249Y25721D01*
G01X2266Y25715D01*
G01X2291Y25699D01*
G01X2321Y25674D01*
G01X2351Y25645D01*
G01X2424Y25568D01*
G01X2440Y25623D01*
G01X2447Y25644D01*
G01X2453Y25665D01*
G01X2460Y25684D01*
G01X2467Y25704D01*
G01X2474Y25722D01*
G01X2482Y25741D01*
G01X2498Y25777D01*
G01X2508Y25796D01*
G01X2518Y25814D01*
G01X2528Y25833D01*
G01X2540Y25853D01*
G01X2553Y25872D01*
G01X2566Y25893D01*
G01X2581Y25915D01*
G01X2597Y25937D01*
G01X2614Y25961D01*
G01X2633Y25985D01*
G01X2652Y26012D01*
G01X2674Y26039D01*
G01X2697Y26068D01*
G01X2721Y26099D01*
G01X2748Y26132D01*
G01X2776Y26167D01*
G01X2876Y26290D01*
G01X2788Y26348D01*
G01X2700Y26407D01*
G01X2642Y26663D01*
G01X2634Y26698D01*
G01X2627Y26733D01*
G01X2620Y26766D01*
G01X2613Y26798D01*
G01X2607Y26829D01*
G01X2601Y26858D01*
G01X2596Y26884D01*
G01X2592Y26907D01*
G01X2589Y26927D01*
G01X2586Y26944D01*
G01X2584Y26957D01*
G01X2584Y27013D01*
G01X2607Y27013D01*
G01X2622Y27010D01*
G01X2636Y27001D01*
G01X2649Y26986D01*
G01X2662Y26966D01*
G01X2673Y26941D01*
G01X2683Y26912D01*
G01X2691Y26878D01*
G01X2697Y26841D01*
G01X2701Y26818D01*
G01X2706Y26791D01*
G01X2711Y26761D01*
G01X2717Y26729D01*
G01X2724Y26697D01*
G01X2731Y26664D01*
G01X2738Y26632D01*
G01X2745Y26602D01*
G01X2778Y26464D01*
G01X2922Y26352D01*
G01X2984Y26446D01*
G01X3045Y26539D01*
G01X3041Y26712D01*
G01X3037Y26884D01*
G01X2980Y27028D01*
G01X2966Y27062D01*
G01X2953Y27095D01*
G01X2940Y27127D01*
G01X2927Y27158D01*
G01X2915Y27189D01*
G01X2902Y27218D01*
G01X2890Y27247D01*
G01X2866Y27301D01*
G01X2854Y27327D01*
G01X2843Y27352D01*
G01X2831Y27377D01*
G01X2809Y27423D01*
G01X2798Y27445D01*
G01X2788Y27466D01*
G01X2777Y27486D01*
G01X2767Y27506D01*
G01X2756Y27525D01*
G01X2736Y27561D01*
G01X2726Y27578D01*
G01X2716Y27594D01*
G01X2706Y27609D01*
G01X2684Y27643D01*
G01X2666Y27670D01*
G01X2649Y27692D01*
G01X2635Y27708D01*
G01X2622Y27719D01*
G37*
G36*
G01X4639Y26474D02*
G01X4639Y26496D01*
G01X4488Y26494D01*
G01X4336Y26492D01*
G01X4265Y26457D01*
G01X4249Y26449D01*
G01X4232Y26439D01*
G01X4214Y26427D01*
G01X4196Y26414D01*
G01X4177Y26400D01*
G01X4160Y26385D01*
G01X4144Y26371D01*
G01X4129Y26357D01*
G01X4065Y26291D01*
G01X4047Y26190D01*
G01X4030Y26090D01*
G01X4071Y26021D01*
G01X4087Y25992D01*
G01X4100Y25964D01*
G01X4109Y25939D01*
G01X4112Y25922D01*
G01X4113Y25913D01*
G01X4116Y25900D01*
G01X4121Y25884D01*
G01X4128Y25864D01*
G01X4136Y25843D01*
G01X4145Y25819D01*
G01X4155Y25795D01*
G01X4166Y25770D01*
G01X4220Y25649D01*
G01X4251Y25405D01*
G01X4297Y25405D01*
G01X4297Y25233D01*
G01X4244Y25233D01*
G01X4240Y25391D01*
G01X4212Y25326D01*
G01X4199Y25301D01*
G01X4186Y25281D01*
G01X4175Y25267D01*
G01X4165Y25262D01*
G01X4147Y25262D01*
G01X4154Y25491D01*
G01X4161Y25721D01*
G01X4112Y25721D01*
G01X4048Y25877D01*
G01X3985Y26032D01*
G01X3937Y26059D01*
G01X3924Y26065D01*
G01X3907Y26071D01*
G01X3886Y26077D01*
G01X3862Y26083D01*
G01X3836Y26089D01*
G01X3808Y26095D01*
G01X3780Y26099D01*
G01X3751Y26103D01*
G01X3615Y26120D01*
G01X3453Y25920D01*
G01X3454Y25742D01*
G01X3454Y25563D01*
G01X3556Y25380D01*
G01X3670Y25346D01*
G01X3694Y25339D01*
G01X3720Y25331D01*
G01X3746Y25322D01*
G01X3773Y25313D01*
G01X3798Y25304D01*
G01X3822Y25295D01*
G01X3844Y25287D01*
G01X3862Y25280D01*
G01X3894Y25268D01*
G01X3925Y25257D01*
G01X3949Y25250D01*
G01X3965Y25248D01*
G01X3975Y25245D01*
G01X3985Y25237D01*
G01X3994Y25225D01*
G01X4000Y25211D01*
G01X4011Y25175D01*
G01X3938Y25175D01*
G01X3850Y25077D01*
G01X3762Y24978D01*
G01X3838Y24960D01*
G01X3856Y24956D01*
G01X3877Y24951D01*
G01X3900Y24946D01*
G01X3950Y24934D01*
G01X3976Y24927D01*
G01X4001Y24921D01*
G01X4025Y24915D01*
G01X4050Y24910D01*
G01X4079Y24905D01*
G01X4110Y24900D01*
G01X4142Y24896D01*
G01X4176Y24893D01*
G01X4209Y24890D01*
G01X4240Y24889D01*
G01X4269Y24888D01*
G01X4403Y24888D01*
G01X4451Y25024D01*
G01X4523Y25081D01*
G01X4594Y25138D01*
G01X4579Y25166D01*
G01X4564Y25180D01*
G01X4536Y25197D01*
G01X4499Y25215D01*
G01X4456Y25232D01*
G01X4349Y25271D01*
G01X4349Y25359D01*
G01X4421Y25440D01*
G01X4492Y25521D01*
G01X4448Y25602D01*
G01X4439Y25621D01*
G01X4429Y25644D01*
G01X4419Y25670D01*
G01X4399Y25728D01*
G01X4391Y25759D01*
G01X4383Y25789D01*
G01X4377Y25817D01*
G01X4349Y25952D01*
G01X4407Y26202D01*
G01X4523Y26327D01*
G01X4546Y26352D01*
G01X4568Y26377D01*
G01X4588Y26400D01*
G01X4605Y26421D01*
G01X4619Y26440D01*
G01X4630Y26455D01*
G01X4637Y26467D01*
G01X4639Y26474D01*
G37*
G36*
G01X4931Y26410D02*
G01X4758Y26410D01*
G01X4679Y26357D01*
G01X4641Y26329D01*
G01X4623Y26314D01*
G01X4606Y26299D01*
G01X4589Y26283D01*
G01X4574Y26266D01*
G01X4558Y26249D01*
G01X4530Y26213D01*
G01X4517Y26195D01*
G01X4505Y26176D01*
G01X4483Y26136D01*
G01X4473Y26115D01*
G01X4464Y26095D01*
G01X4456Y26073D01*
G01X4422Y25980D01*
G01X4441Y25872D01*
G01X4446Y25847D01*
G01X4452Y25821D01*
G01X4459Y25793D01*
G01X4477Y25735D01*
G01X4487Y25706D01*
G01X4497Y25678D01*
G01X4508Y25650D01*
G01X4519Y25623D01*
G01X4530Y25599D01*
G01X4541Y25576D01*
G01X4552Y25555D01*
G01X4562Y25537D01*
G01X4572Y25522D01*
G01X4581Y25511D01*
G01X4597Y25497D01*
G01X4606Y25485D01*
G01X4616Y25471D01*
G01X4626Y25453D01*
G01X4637Y25433D01*
G01X4648Y25411D01*
G01X4658Y25387D01*
G01X4678Y25337D01*
G01X4696Y25287D01*
G01X4703Y25263D01*
G01X4709Y25240D01*
G01X4714Y25219D01*
G01X4717Y25200D01*
G01X4718Y25185D01*
G01X4718Y25122D01*
G01X4672Y25106D01*
G01X4656Y25099D01*
G01X4638Y25088D01*
G01X4618Y25073D01*
G01X4597Y25056D01*
G01X4576Y25037D01*
G01X4555Y25017D01*
G01X4535Y24997D01*
G01X4518Y24977D01*
G01X4503Y24958D01*
G01X4491Y24942D01*
G01X4484Y24927D01*
G01X4481Y24916D01*
G01X4481Y24888D01*
G01X4606Y24888D01*
G01X4623Y24889D01*
G01X4642Y24890D01*
G01X4664Y24892D01*
G01X4689Y24894D01*
G01X4715Y24897D01*
G01X4744Y24900D01*
G01X4773Y24904D01*
G01X4804Y24908D01*
G01X4836Y24913D01*
G01X4868Y24917D01*
G01X4900Y24922D01*
G01X4932Y24928D01*
G01X4994Y24938D01*
G01X5023Y24944D01*
G01X5051Y24949D01*
G01X5077Y24954D01*
G01X5101Y24959D01*
G01X5123Y24964D01*
G01X5142Y24969D01*
G01X5158Y24973D01*
G01X5170Y24977D01*
G01X5179Y24981D01*
G01X5184Y24984D01*
G01X5180Y24995D01*
G01X5163Y25015D01*
G01X5136Y25042D01*
G01X5100Y25073D01*
G01X5007Y25151D01*
G01X5122Y25327D01*
G01X5241Y25416D01*
G01X5258Y25429D01*
G01X5296Y25459D01*
G01X5315Y25475D01*
G01X5335Y25491D01*
G01X5375Y25525D01*
G01X5394Y25541D01*
G01X5413Y25558D01*
G01X5430Y25574D01*
G01X5446Y25588D01*
G01X5461Y25602D01*
G01X5561Y25699D01*
G01X5561Y25884D01*
G01X5463Y25982D01*
G01X5279Y26014D01*
G01X5161Y25958D01*
G01X5043Y25901D01*
G01X4980Y25791D01*
G01X4918Y25680D01*
G01X4904Y25567D01*
G01X4889Y25453D01*
G01X4857Y25441D01*
G01X4824Y25429D01*
G01X4824Y25525D01*
G01X4825Y25621D01*
G01X4921Y25851D01*
G01X5017Y25943D01*
G01X5112Y26034D01*
G01X5061Y26069D01*
G01X5061Y26269D01*
G01X4996Y26340D01*
G01X4931Y26410D01*
G37*
G36*
G01X3765Y25251D02*
G01X3746Y25257D01*
G01X3732Y25256D01*
G01X3720Y25248D01*
G01X3710Y25234D01*
G01X3700Y25212D01*
G01X3690Y25183D01*
G01X3678Y25148D01*
G01X3665Y25113D01*
G01X3652Y25082D01*
G01X3640Y25058D01*
G01X3616Y25012D01*
G01X3658Y24938D01*
G01X3688Y24958D01*
G01X3699Y24969D01*
G01X3708Y24984D01*
G01X3715Y25001D01*
G01X3717Y25018D01*
G01X3717Y25059D01*
G01X3797Y25123D01*
G01X3876Y25187D01*
G01X3816Y25223D01*
G01X3788Y25240D01*
G01X3765Y25251D01*
G37*
G36*
G01X1817Y25204D02*
G01X1666Y25204D01*
G01X1723Y25091D01*
G01X1745Y25048D01*
G01X1764Y25013D01*
G01X1777Y24991D01*
G01X1783Y24984D01*
G01X1790Y25019D01*
G01X1795Y25054D01*
G01X1801Y25097D01*
G01X1817Y25204D01*
G37*
G36*
G01X3243Y26608D02*
G01X3239Y26611D01*
G01X3236Y26610D01*
G01X3231Y26607D01*
G01X3225Y26602D01*
G01X3209Y26586D01*
G01X3199Y26575D01*
G01X3175Y26549D01*
G01X3162Y26533D01*
G01X3147Y26516D01*
G01X3132Y26498D01*
G01X3116Y26479D01*
G01X3099Y26459D01*
G01X3082Y26438D01*
G01X3063Y26415D01*
G01X3045Y26392D01*
G01X3026Y26369D01*
G01X3006Y26344D01*
G01X2986Y26320D01*
G01X2966Y26294D01*
G01X2946Y26269D01*
G01X2846Y26139D01*
G01X2827Y26113D01*
G01X2789Y26063D01*
G01X2771Y26038D01*
G01X2753Y26014D01*
G01X2736Y25991D01*
G01X2720Y25969D01*
G01X2705Y25947D01*
G01X2677Y25907D01*
G01X2661Y25884D01*
G01X2645Y25862D01*
G01X2630Y25842D01*
G01X2616Y25824D01*
G01X2603Y25808D01*
G01X2593Y25796D01*
G01X2584Y25788D01*
G01X2578Y25783D01*
G01X2570Y25775D01*
G01X2564Y25761D01*
G01X2559Y25742D01*
G01X2558Y25720D01*
G01X2556Y25698D01*
G01X2551Y25678D01*
G01X2543Y25661D01*
G01X2534Y25651D01*
G01X2510Y25635D01*
G01X2492Y25492D01*
G01X2474Y25350D01*
G01X2492Y25261D01*
G01X2510Y25171D01*
G01X2588Y25119D01*
G01X2667Y25068D01*
G01X2750Y25089D01*
G01X2787Y25100D01*
G01X2823Y25111D01*
G01X2856Y25122D01*
G01X2880Y25132D01*
G01X2926Y25153D01*
G01X2926Y25324D01*
G01X2992Y25300D01*
G01X2985Y25229D01*
G01X2977Y25159D01*
G01X3038Y25060D01*
G01X3064Y25021D01*
G01X3089Y24990D01*
G01X3110Y24969D01*
G01X3125Y24962D01*
G01X3150Y24964D01*
G01X3159Y25020D01*
G01X3161Y25033D01*
G01X3165Y25049D01*
G01X3170Y25067D01*
G01X3176Y25087D01*
G01X3183Y25108D01*
G01X3199Y25150D01*
G01X3207Y25170D01*
G01X3247Y25265D01*
G01X3284Y25281D01*
G01X3320Y25296D01*
G01X3411Y25235D01*
G01X3429Y25222D01*
G01X3447Y25208D01*
G01X3464Y25194D01*
G01X3479Y25180D01*
G01X3492Y25166D01*
G01X3503Y25153D01*
G01X3511Y25142D01*
G01X3516Y25132D01*
G01X3525Y25111D01*
G01X3535Y25098D01*
G01X3546Y25092D01*
G01X3558Y25093D01*
G01X3570Y25101D01*
G01X3583Y25116D01*
G01X3596Y25138D01*
G01X3609Y25168D01*
G01X3642Y25246D01*
G01X3607Y25258D01*
G01X3598Y25263D01*
G01X3587Y25270D01*
G01X3573Y25281D01*
G01X3558Y25293D01*
G01X3542Y25308D01*
G01X3524Y25325D01*
G01X3507Y25342D01*
G01X3490Y25360D01*
G01X3407Y25450D01*
G01X3373Y25618D01*
G01X3338Y25787D01*
G01X3384Y25919D01*
G01X3392Y25941D01*
G01X3399Y25962D01*
G01X3405Y25983D01*
G01X3410Y26002D01*
G01X3418Y26040D01*
G01X3420Y26059D01*
G01X3422Y26077D01*
G01X3423Y26095D01*
G01X3423Y26114D01*
G01X3422Y26133D01*
G01X3418Y26171D01*
G01X3414Y26192D01*
G01X3409Y26213D01*
G01X3403Y26235D01*
G01X3397Y26258D01*
G01X3389Y26282D01*
G01X3380Y26308D01*
G01X3370Y26335D01*
G01X3359Y26364D01*
G01X3347Y26394D01*
G01X3334Y26427D01*
G01X3319Y26461D01*
G01X3306Y26491D01*
G01X3294Y26519D01*
G01X3270Y26567D01*
G01X3259Y26585D01*
G01X3250Y26599D01*
G01X3243Y26608D01*
G37*

%LPD*%
G36*
G01X5293Y28185D02*
G01X5290Y28186D01*
G01X5280Y28183D01*
G01X5257Y28179D01*
G01X5225Y28174D01*
G01X5186Y28170D01*
G01X5087Y28158D01*
G01X5087Y28133D01*
G01X5091Y28122D01*
G01X5102Y28111D01*
G01X5117Y28100D01*
G01X5136Y28091D01*
G01X5186Y28074D01*
G01X5256Y28104D01*
G01X5327Y28133D01*
G01X5311Y28162D01*
G01X5304Y28173D01*
G01X5298Y28181D01*
G01X5293Y28185D01*
G37*

%LPD*%
G36*
G01X4591Y28104D02*
G01X4431Y28104D01*
G01X4415Y28076D01*
G01X4399Y28047D01*
G01X4438Y28030D01*
G01X4457Y28024D01*
G01X4480Y28021D01*
G01X4503Y28021D01*
G01X4523Y28023D01*
G01X4569Y28033D01*
G01X4580Y28069D01*
G01X4591Y28104D01*
G37*

%LPD*%
G36*
G01X4818Y28162D02*
G01X4794Y28162D01*
G01X4785Y28160D01*
G01X4778Y28156D01*
G01X4773Y28149D01*
G01X4772Y28140D01*
G01X4773Y28133D01*
G01X4775Y28120D01*
G01X4778Y28102D01*
G01X4783Y28079D01*
G01X4788Y28053D01*
G01X4793Y28025D01*
G01X4807Y27963D01*
G01X4840Y27807D01*
G01X4871Y27795D01*
G01X4903Y27784D01*
G01X4903Y27831D01*
G01X4902Y27843D01*
G01X4899Y27861D01*
G01X4895Y27882D01*
G01X4890Y27906D01*
G01X4884Y27933D01*
G01X4877Y27961D01*
G01X4869Y27991D01*
G01X4860Y28020D01*
G01X4818Y28162D01*
G37*

%LPD*%
G36*
G01X1819Y26985D02*
G01X1741Y26985D01*
G01X1741Y26947D01*
G01X1743Y26931D01*
G01X1747Y26913D01*
G01X1755Y26896D01*
G01X1763Y26883D01*
G01X1768Y26874D01*
G01X1775Y26861D01*
G01X1782Y26844D01*
G01X1797Y26799D01*
G01X1805Y26773D01*
G01X1812Y26746D01*
G01X1820Y26718D01*
G01X1854Y26580D01*
G01X1883Y26592D01*
G01X1912Y26603D01*
G01X1904Y26694D01*
G01X1901Y26715D01*
G01X1897Y26738D01*
G01X1887Y26788D01*
G01X1873Y26840D01*
G01X1865Y26864D01*
G01X1857Y26885D01*
G01X1819Y26985D01*
G37*

%LPD*%
G36*
G01X1273Y26005D02*
G01X1261Y26007D01*
G01X1249Y26003D01*
G01X1237Y25993D01*
G01X1226Y25978D01*
G01X1209Y25948D01*
G01X1383Y25635D01*
G01X1451Y25635D01*
G01X1451Y25671D01*
G01X1446Y25692D01*
G01X1435Y25721D01*
G01X1418Y25757D01*
G01X1397Y25793D01*
G01X1385Y25811D01*
G01X1374Y25831D01*
G01X1362Y25852D01*
G01X1351Y25873D01*
G01X1341Y25893D01*
G01X1332Y25912D01*
G01X1324Y25929D01*
G01X1318Y25944D01*
G01X1308Y25967D01*
G01X1297Y25985D01*
G01X1285Y25998D01*
G01X1273Y26005D01*
G37*

%LPD*%
G36*
G01X3210Y26032D02*
G01X3205Y26033D01*
G01X3199Y26031D01*
G01X3192Y26026D01*
G01X3185Y26017D01*
G01X3178Y26005D01*
G01X3170Y25989D01*
G01X3162Y25970D01*
G01X3152Y25946D01*
G01X3142Y25917D01*
G01X3130Y25884D01*
G01X3118Y25847D01*
G01X3104Y25804D01*
G01X3089Y25756D01*
G01X3077Y25718D01*
G01X3055Y25644D01*
G01X3044Y25609D01*
G01X3035Y25576D01*
G01X3026Y25545D01*
G01X3018Y25516D01*
G01X3011Y25491D01*
G01X3006Y25469D01*
G01X3001Y25451D01*
G01X2998Y25437D01*
G01X2997Y25428D01*
G01X2992Y25379D01*
G01X3019Y25374D01*
G01X3045Y25369D01*
G01X3095Y25480D01*
G01X3102Y25497D01*
G01X3110Y25517D01*
G01X3119Y25539D01*
G01X3145Y25617D01*
G01X3154Y25645D01*
G01X3162Y25674D01*
G01X3171Y25704D01*
G01X3179Y25733D01*
G01X3187Y25761D01*
G01X3194Y25789D01*
G01X3242Y25986D01*
G01X3228Y26012D01*
G01X3222Y26021D01*
G01X3216Y26028D01*
G01X3210Y26032D01*
G37*

%LPD*%
G36*
G01X4030Y25348D02*
G01X3992Y25348D01*
G01X3977Y25346D01*
G01X3966Y25341D01*
G01X3958Y25335D01*
G01X3955Y25326D01*
G01X3959Y25312D01*
G01X3971Y25291D01*
G01X3988Y25264D01*
G01X4009Y25235D01*
G01X4062Y25166D01*
G01X4087Y25194D01*
G01X4112Y25221D01*
G01X4071Y25284D01*
G01X4030Y25348D01*
G37*

%LPD*%
G36*
G01X4824Y25290D02*
G01X4771Y25290D01*
G01X4771Y25147D01*
G01X4824Y25147D01*
G01X4824Y25290D01*
G37*

%LPD*%
G36*
G01X5008Y25319D02*
G01X4983Y25319D01*
G01X4971Y25315D01*
G01X4957Y25303D01*
G01X4943Y25285D01*
G01X4930Y25264D01*
G01X4919Y25237D01*
G01X4911Y25207D01*
G01X4905Y25176D01*
G01X4903Y25149D01*
G01X4903Y25089D01*
G01X4922Y25090D01*
G01X4933Y25096D01*
G01X4946Y25112D01*
G01X4960Y25137D01*
G01X4974Y25166D01*
G01X4987Y25198D01*
G01X4998Y25229D01*
G01X5005Y25258D01*
G01X5008Y25282D01*
G01X5008Y25319D01*
G37*

%LPD*%
G36*
G01X3393Y24572D02*
G01X3322Y24572D01*
G01X3322Y24520D01*
G01X3325Y24504D01*
G01X3328Y24484D01*
G01X3333Y24462D01*
G01X3339Y24438D01*
G01X3345Y24411D01*
G01X3361Y24355D01*
G01X3369Y24325D01*
G01X3387Y24267D01*
G01X3396Y24239D01*
G01X3405Y24212D01*
G01X3414Y24187D01*
G01X3422Y24164D01*
G01X3430Y24143D01*
G01X3438Y24126D01*
G01X3444Y24113D01*
G01X3450Y24103D01*
G01X3454Y24098D01*
G01X3480Y24081D01*
G01X3495Y24124D01*
G01X3511Y24167D01*
G01X3452Y24370D01*
G01X3393Y24572D01*
G37*

%LPD*%
G54D10*
G01X8439Y37864D02*
G01X8439Y39124D01*
G01X5998Y39124D01*
G01X5998Y37864D01*
G01X8439Y37864D01*
G01X4003Y30559D02*
G01X3703Y30559D01*
G01X3703Y31709D01*
G01X6403Y31709D01*
G01X6403Y30559D01*
G01X6103Y30559D01*
G01X6844Y36408D02*
G01X7415Y36408D01*
G01X7415Y34479D01*
G01X3261Y36408D02*
G01X2690Y36408D01*
G01X2690Y34479D01*
G01X2690Y34479D02*
G01X3478Y34479D01*
G01X7415Y34479D02*
G01X6745Y34479D01*
G54D25*
G01X3059Y31199D02*
G01X3059Y31718D01*
G01X2244Y31718D01*
G01X2244Y31199D01*
G01X3059Y30753D02*
G01X3059Y30233D01*
G01X2244Y30233D01*
G01X2244Y30753D01*
G01X7863Y31199D02*
G01X7863Y31718D01*
G01X7048Y31718D01*
G01X7048Y31199D01*
G01X7863Y30753D02*
G01X7863Y30233D01*
G01X7048Y30233D01*
G01X7048Y30753D01*
G01X7469Y29466D02*
G01X7469Y29986D01*
G01X6654Y29986D01*
G01X6654Y29466D01*
G01X7469Y29021D02*
G01X7469Y28501D01*
G01X6654Y28501D01*
G01X6654Y29021D01*
G54D26*
G01X1651Y38122D02*
G01X4651Y38122D01*
G01X4651Y38122D02*
G01X4651Y39122D01*
G01X1651Y39122D02*
G01X4651Y39122D01*
G01X1651Y38122D02*
G01X1651Y39122D01*
G54D25*
G01X1288Y38088D02*
G01X1288Y38608D01*
G01X473Y38608D01*
G01X473Y38088D01*
G01X1288Y37643D02*
G01X1288Y37123D01*
G01X473Y37123D01*
G01X473Y37643D01*
G54D10*
G01X7716Y28155D02*
G01X7716Y28785D01*
G01X8661Y28155D02*
G01X8661Y28785D01*
G01X7716Y27446D02*
G01X7716Y26855D01*
G01X8661Y27446D02*
G01X8661Y26855D01*
G01X7716Y28785D02*
G01X8661Y28785D01*
G01X7913Y26698D02*
G01X8464Y26698D01*
G01X7913Y26698D02*
G01X7874Y26698D01*
G01X7716Y26855D01*
G01X8464Y26698D02*
G01X8503Y26698D01*
G01X8661Y26855D01*
G01X8916Y28155D02*
G01X8916Y28785D01*
G01X9861Y28155D02*
G01X9861Y28785D01*
G01X8916Y27446D02*
G01X8916Y26855D01*
G01X9861Y27446D02*
G01X9861Y26855D01*
G01X8916Y28785D02*
G01X9861Y28785D01*
G01X9113Y26698D02*
G01X9664Y26698D01*
G01X9113Y26698D02*
G01X9074Y26698D01*
G01X8916Y26855D01*
G01X9664Y26698D02*
G01X9703Y26698D01*
G01X9861Y26855D01*
G01X966Y28155D02*
G01X966Y28785D01*
G01X1911Y28155D02*
G01X1911Y28785D01*
G01X966Y27446D02*
G01X966Y26855D01*
G01X1911Y27446D02*
G01X1911Y26855D01*
G01X966Y28785D02*
G01X1911Y28785D01*
G01X1163Y26698D02*
G01X1714Y26698D01*
G01X1163Y26698D02*
G01X1124Y26698D01*
G01X966Y26855D01*
G01X1714Y26698D02*
G01X1753Y26698D01*
G01X1911Y26855D01*
G54D27*
G01X4112Y37173D02*
G01X4398Y37173D01*
G01X4452Y37155D01*
G01X4470Y37138D01*
G01X4488Y37102D01*
G01X4488Y37048D01*
G01X4470Y37012D01*
G01X4166Y37173D02*
G01X4130Y37138D01*
G01X4112Y37102D01*
G01X4112Y37048D01*
G01X4130Y37012D01*
G01X4166Y36976D01*
G01X4219Y36959D01*
G01X4255Y36959D01*
G01X4309Y36976D01*
G01X4345Y37012D01*
G01X4362Y37048D01*
G01X4362Y37102D01*
G01X4345Y37138D01*
G01X4309Y37173D01*
G01X4112Y37291D02*
G01X4362Y37291D01*
G01X4183Y37291D02*
G01X4130Y37345D01*
G01X4112Y37381D01*
G01X4112Y37435D01*
G01X4130Y37470D01*
G01X4183Y37488D01*
G01X4362Y37488D01*
G01X3987Y37821D02*
G01X4362Y37821D01*
G01X4166Y37821D02*
G01X4130Y37785D01*
G01X4112Y37750D01*
G01X4112Y37696D01*
G01X4130Y37660D01*
G01X4166Y37624D01*
G01X4219Y37606D01*
G01X4255Y37606D01*
G01X4309Y37624D01*
G01X4345Y37660D01*
G01X4362Y37696D01*
G01X4362Y37750D01*
G01X4345Y37785D01*
G01X4309Y37821D01*
G01X2983Y36935D02*
G01X2983Y37132D01*
G01X3126Y37025D01*
G01X3126Y37078D01*
G01X3144Y37114D01*
G01X3162Y37132D01*
G01X3215Y37150D01*
G01X3251Y37150D01*
G01X3305Y37132D01*
G01X3341Y37096D01*
G01X3358Y37042D01*
G01X3358Y36989D01*
G01X3341Y36935D01*
G01X3323Y36917D01*
G01X3287Y36899D01*
G01X3108Y37268D02*
G01X3358Y37375D01*
G01X3108Y37483D02*
G01X3358Y37375D01*
G01X2983Y37637D02*
G01X2983Y37833D01*
G01X3126Y37726D01*
G01X3126Y37780D01*
G01X3144Y37816D01*
G01X3162Y37833D01*
G01X3215Y37851D01*
G01X3251Y37851D01*
G01X3305Y37833D01*
G01X3341Y37798D01*
G01X3358Y37744D01*
G01X3358Y37690D01*
G01X3341Y37637D01*
G01X3323Y37619D01*
G01X3287Y37601D01*
G01X2040Y37352D02*
G01X2004Y37334D01*
G01X1986Y37280D01*
G01X1986Y37226D01*
G01X2004Y37173D01*
G01X2040Y37155D01*
G01X2075Y37173D01*
G01X2093Y37209D01*
G01X2111Y37298D01*
G01X2129Y37334D01*
G01X2165Y37352D01*
G01X2183Y37352D01*
G01X2219Y37334D01*
G01X2236Y37280D01*
G01X2236Y37226D01*
G01X2219Y37173D01*
G01X2183Y37155D01*
G01X1861Y37470D02*
G01X1879Y37488D01*
G01X1861Y37506D01*
G01X1843Y37488D01*
G01X1861Y37470D01*
G01X1986Y37488D02*
G01X2236Y37488D01*
G01X1986Y37839D02*
G01X2272Y37839D01*
G01X2326Y37821D01*
G01X2344Y37803D01*
G01X2362Y37767D01*
G01X2362Y37713D01*
G01X2344Y37677D01*
G01X2040Y37839D02*
G01X2004Y37803D01*
G01X1986Y37767D01*
G01X1986Y37713D01*
G01X2004Y37677D01*
G01X2040Y37642D01*
G01X2093Y37624D01*
G01X2129Y37624D01*
G01X2183Y37642D01*
G01X2219Y37677D01*
G01X2236Y37713D01*
G01X2236Y37767D01*
G01X2219Y37803D01*
G01X2183Y37839D01*
G01X6628Y37506D02*
G01X6628Y37130D01*
G01X6628Y37452D02*
G01X6664Y37488D01*
G01X6700Y37506D01*
G01X6753Y37506D01*
G01X6789Y37488D01*
G01X6825Y37452D01*
G01X6843Y37398D01*
G01X6843Y37363D01*
G01X6825Y37309D01*
G01X6789Y37273D01*
G01X6753Y37255D01*
G01X6700Y37255D01*
G01X6664Y37273D01*
G01X6628Y37309D01*
G01X7050Y37506D02*
G01X7015Y37488D01*
G01X6979Y37452D01*
G01X6961Y37398D01*
G01X6961Y37363D01*
G01X6979Y37309D01*
G01X7015Y37273D01*
G01X7050Y37255D01*
G01X7104Y37255D01*
G01X7140Y37273D01*
G01X7176Y37309D01*
G01X7193Y37363D01*
G01X7193Y37398D01*
G01X7176Y37452D01*
G01X7140Y37488D01*
G01X7104Y37506D01*
G01X7050Y37506D01*
G01X7508Y37452D02*
G01X7491Y37488D01*
G01X7437Y37506D01*
G01X7383Y37506D01*
G01X7329Y37488D01*
G01X7312Y37452D01*
G01X7329Y37416D01*
G01X7365Y37398D01*
G01X7455Y37381D01*
G01X7491Y37363D01*
G01X7508Y37327D01*
G01X7508Y37309D01*
G01X7491Y37273D01*
G01X7437Y37255D01*
G01X7383Y37255D01*
G01X7329Y37273D01*
G01X7312Y37309D01*
G01X7680Y37631D02*
G01X7680Y37327D01*
G01X7698Y37273D01*
G01X7734Y37255D01*
G01X7770Y37255D01*
G01X7627Y37506D02*
G01X7752Y37506D01*
G01X2768Y32488D02*
G01X2750Y32523D01*
G01X2696Y32541D01*
G01X2642Y32541D01*
G01X2589Y32523D01*
G01X2571Y32488D01*
G01X2589Y32452D01*
G01X2624Y32434D01*
G01X2714Y32416D01*
G01X2750Y32398D01*
G01X2768Y32362D01*
G01X2768Y32344D01*
G01X2750Y32309D01*
G01X2696Y32291D01*
G01X2642Y32291D01*
G01X2589Y32309D01*
G01X2571Y32344D01*
G01X3083Y32488D02*
G01X3065Y32523D01*
G01X3011Y32541D01*
G01X2957Y32541D01*
G01X2904Y32523D01*
G01X2886Y32488D01*
G01X2904Y32452D01*
G01X2939Y32434D01*
G01X3029Y32416D01*
G01X3065Y32398D01*
G01X3083Y32362D01*
G01X3083Y32344D01*
G01X3065Y32309D01*
G01X3011Y32291D01*
G01X2957Y32291D01*
G01X2904Y32309D01*
G01X2886Y32344D01*
G01X3415Y32667D02*
G01X3415Y32291D01*
G01X3415Y32488D02*
G01X3380Y32523D01*
G01X3344Y32541D01*
G01X3290Y32541D01*
G01X3254Y32523D01*
G01X3219Y32488D01*
G01X3201Y32434D01*
G01X3201Y32398D01*
G01X3219Y32344D01*
G01X3254Y32309D01*
G01X3290Y32291D01*
G01X3344Y32291D01*
G01X3380Y32309D01*
G01X3415Y32344D01*
G01X3533Y32595D02*
G01X3569Y32613D01*
G01X3623Y32667D01*
G01X3623Y32291D01*
G01X3777Y32667D02*
G01X3974Y32667D01*
G01X3866Y32523D01*
G01X3920Y32523D01*
G01X3956Y32505D01*
G01X3974Y32488D01*
G01X3992Y32434D01*
G01X3992Y32398D01*
G01X3974Y32344D01*
G01X3938Y32309D01*
G01X3884Y32291D01*
G01X3831Y32291D01*
G01X3777Y32309D01*
G01X3759Y32327D01*
G01X3741Y32362D01*
G01X4324Y32613D02*
G01X4307Y32649D01*
G01X4253Y32667D01*
G01X4217Y32667D01*
G01X4163Y32649D01*
G01X4128Y32595D01*
G01X4110Y32505D01*
G01X4110Y32416D01*
G01X4128Y32344D01*
G01X4163Y32309D01*
G01X4217Y32291D01*
G01X4235Y32291D01*
G01X4289Y32309D01*
G01X4324Y32344D01*
G01X4342Y32398D01*
G01X4342Y32416D01*
G01X4324Y32470D01*
G01X4289Y32505D01*
G01X4235Y32523D01*
G01X4217Y32523D01*
G01X4163Y32505D01*
G01X4128Y32470D01*
G01X4110Y32416D01*
G01X4568Y32667D02*
G01X4514Y32649D01*
G01X4478Y32595D01*
G01X4460Y32505D01*
G01X4460Y32452D01*
G01X4478Y32362D01*
G01X4514Y32309D01*
G01X4568Y32291D01*
G01X4604Y32291D01*
G01X4657Y32309D01*
G01X4693Y32362D01*
G01X4711Y32452D01*
G01X4711Y32505D01*
G01X4693Y32595D01*
G01X4657Y32649D01*
G01X4604Y32667D01*
G01X4568Y32667D01*
G01X5123Y32380D02*
G01X5105Y32362D01*
G01X5123Y32344D01*
G01X5140Y32362D01*
G01X5123Y32380D01*
G01X5438Y32667D02*
G01X5259Y32416D01*
G01X5527Y32416D01*
G01X5438Y32667D02*
G01X5438Y32291D01*
G01X5878Y32541D02*
G01X5860Y32488D01*
G01X5824Y32452D01*
G01X5770Y32434D01*
G01X5753Y32434D01*
G01X5699Y32452D01*
G01X5663Y32488D01*
G01X5645Y32541D01*
G01X5645Y32559D01*
G01X5663Y32613D01*
G01X5699Y32649D01*
G01X5753Y32667D01*
G01X5770Y32667D01*
G01X5824Y32649D01*
G01X5860Y32613D01*
G01X5878Y32541D01*
G01X5878Y32452D01*
G01X5860Y32362D01*
G01X5824Y32309D01*
G01X5770Y32291D01*
G01X5735Y32291D01*
G01X5681Y32309D01*
G01X5663Y32344D01*
G01X5996Y32667D02*
G01X5996Y32541D01*
G01X6139Y32667D02*
G01X6139Y32541D01*
G01X6622Y32541D02*
G01X6586Y32523D01*
G01X6551Y32488D01*
G01X6533Y32434D01*
G01X6533Y32398D01*
G01X6551Y32344D01*
G01X6586Y32309D01*
G01X6622Y32291D01*
G01X6676Y32291D01*
G01X6712Y32309D01*
G01X6747Y32344D01*
G01X6765Y32398D01*
G01X6765Y32434D01*
G01X6747Y32488D01*
G01X6712Y32523D01*
G01X6676Y32541D01*
G01X6622Y32541D01*
G01X6883Y32667D02*
G01X6883Y32291D01*
G01X7002Y32434D02*
G01X7216Y32434D01*
G01X7216Y32470D01*
G01X7198Y32505D01*
G01X7181Y32523D01*
G01X7145Y32541D01*
G01X7091Y32541D01*
G01X7055Y32523D01*
G01X7020Y32488D01*
G01X7002Y32434D01*
G01X7002Y32398D01*
G01X7020Y32344D01*
G01X7055Y32309D01*
G01X7091Y32291D01*
G01X7145Y32291D01*
G01X7181Y32309D01*
G01X7216Y32344D01*
G01X7549Y32667D02*
G01X7549Y32291D01*
G01X7549Y32488D02*
G01X7513Y32523D01*
G01X7478Y32541D01*
G01X7424Y32541D01*
G01X7388Y32523D01*
G01X7352Y32488D01*
G01X7334Y32434D01*
G01X7334Y32398D01*
G01X7352Y32344D01*
G01X7388Y32309D01*
G01X7424Y32291D01*
G01X7478Y32291D01*
G01X7513Y32309D01*
G01X7549Y32344D01*
G01X12029Y40833D02*
G01X12029Y40251D01*
G01X11992Y40142D01*
G01X11956Y40106D01*
G01X11883Y40070D01*
G01X11811Y40070D01*
G01X11738Y40106D01*
G01X11702Y40142D01*
G01X11665Y40251D01*
G01X11665Y40324D01*
G01X12269Y40833D02*
G01X12269Y40070D01*
G01X12269Y40070D02*
G01X12705Y40070D01*
G01X13491Y40651D02*
G01X13454Y40724D01*
G01X13382Y40797D01*
G01X13309Y40833D01*
G01X13163Y40833D01*
G01X13091Y40797D01*
G01X13018Y40724D01*
G01X12982Y40651D01*
G01X12945Y40542D01*
G01X12945Y40360D01*
G01X12982Y40251D01*
G01X13018Y40179D01*
G01X13091Y40106D01*
G01X13163Y40070D01*
G01X13309Y40070D01*
G01X13382Y40106D01*
G01X13454Y40179D01*
G01X13491Y40251D01*
G01X14094Y40833D02*
G01X14094Y40251D01*
G01X14058Y40142D01*
G01X14022Y40106D01*
G01X13949Y40070D01*
G01X13876Y40070D01*
G01X13803Y40106D01*
G01X13767Y40142D01*
G01X13731Y40251D01*
G01X13731Y40324D01*
G01X14334Y40833D02*
G01X14334Y40070D01*
G01X14334Y40070D02*
G01X14771Y40070D01*
G01X15556Y40651D02*
G01X15520Y40724D01*
G01X15447Y40797D01*
G01X15374Y40833D01*
G01X15229Y40833D01*
G01X15156Y40797D01*
G01X15083Y40724D01*
G01X15047Y40651D01*
G01X15011Y40542D01*
G01X15011Y40360D01*
G01X15047Y40251D01*
G01X15083Y40179D01*
G01X15156Y40106D01*
G01X15229Y40070D01*
G01X15374Y40070D01*
G01X15447Y40106D01*
G01X15520Y40179D01*
G01X15556Y40251D01*
G01X16160Y40833D02*
G01X16160Y40251D01*
G01X16123Y40142D01*
G01X16087Y40106D01*
G01X16014Y40070D01*
G01X15942Y40070D01*
G01X15869Y40106D01*
G01X15832Y40142D01*
G01X15796Y40251D01*
G01X15796Y40324D01*
G01X16400Y40833D02*
G01X16400Y40070D01*
G01X16400Y40070D02*
G01X16836Y40070D01*
G01X17622Y40651D02*
G01X17585Y40724D01*
G01X17512Y40797D01*
G01X17440Y40833D01*
G01X17294Y40833D01*
G01X17222Y40797D01*
G01X17149Y40724D01*
G01X17112Y40651D01*
G01X17076Y40542D01*
G01X17076Y40360D01*
G01X17112Y40251D01*
G01X17149Y40179D01*
G01X17222Y40106D01*
G01X17294Y40070D01*
G01X17440Y40070D01*
G01X17512Y40106D01*
G01X17585Y40179D01*
G01X17622Y40251D01*
G01X18225Y40833D02*
G01X18225Y40251D01*
G01X18189Y40142D01*
G01X18152Y40106D01*
G01X18080Y40070D01*
G01X18007Y40070D01*
G01X17934Y40106D01*
G01X17898Y40142D01*
G01X17862Y40251D01*
G01X17862Y40324D01*
G01X18465Y40833D02*
G01X18465Y40070D01*
G01X18465Y40070D02*
G01X18902Y40070D01*
G01X19687Y40651D02*
G01X19651Y40724D01*
G01X19578Y40797D01*
G01X19505Y40833D01*
G01X19360Y40833D01*
G01X19287Y40797D01*
G01X19214Y40724D01*
G01X19178Y40651D01*
G01X19142Y40542D01*
G01X19142Y40360D01*
G01X19178Y40251D01*
G01X19214Y40179D01*
G01X19287Y40106D01*
G01X19360Y40070D01*
G01X19505Y40070D01*
G01X19578Y40106D01*
G01X19651Y40179D01*
G01X19687Y40251D01*
G54D28*
G01X11Y42270D02*
G01X15546Y42270D01*
G01X23846Y42270D02*
G01X39381Y42270D01*
G01X611Y42120D02*
G01X11Y42270D01*
G01X611Y42420D01*
G01X38781Y42120D02*
G01X39381Y42270D01*
G01X38781Y42420D01*
G01X15746Y43097D02*
G01X15837Y43142D01*
G01X15973Y43278D01*
G01X15973Y42324D01*
G01X16546Y43278D02*
G01X16410Y43233D01*
G01X16319Y43097D01*
G01X16273Y42869D01*
G01X16273Y42733D01*
G01X16319Y42506D01*
G01X16410Y42369D01*
G01X16546Y42324D01*
G01X16637Y42324D01*
G01X16773Y42369D01*
G01X16864Y42506D01*
G01X16910Y42733D01*
G01X16910Y42869D01*
G01X16864Y43097D01*
G01X16773Y43233D01*
G01X16637Y43278D01*
G01X16546Y43278D01*
G01X17482Y43278D02*
G01X17346Y43233D01*
G01X17255Y43097D01*
G01X17210Y42869D01*
G01X17210Y42733D01*
G01X17255Y42506D01*
G01X17346Y42369D01*
G01X17482Y42324D01*
G01X17573Y42324D01*
G01X17710Y42369D01*
G01X17801Y42506D01*
G01X17846Y42733D01*
G01X17846Y42869D01*
G01X17801Y43097D01*
G01X17710Y43233D01*
G01X17573Y43278D01*
G01X17482Y43278D01*
G01X18191Y42551D02*
G01X18146Y42506D01*
G01X18191Y42460D01*
G01X18237Y42506D01*
G01X18191Y42551D01*
G01X18810Y43278D02*
G01X18673Y43233D01*
G01X18582Y43097D01*
G01X18537Y42869D01*
G01X18537Y42733D01*
G01X18582Y42506D01*
G01X18673Y42369D01*
G01X18810Y42324D01*
G01X18901Y42324D01*
G01X19037Y42369D01*
G01X19128Y42506D01*
G01X19173Y42733D01*
G01X19173Y42869D01*
G01X19128Y43097D01*
G01X19037Y43233D01*
G01X18901Y43278D01*
G01X18810Y43278D01*
G01X19746Y43278D02*
G01X19610Y43233D01*
G01X19519Y43097D01*
G01X19473Y42869D01*
G01X19473Y42733D01*
G01X19519Y42506D01*
G01X19610Y42369D01*
G01X19746Y42324D01*
G01X19837Y42324D01*
G01X19973Y42369D01*
G01X20064Y42506D01*
G01X20110Y42733D01*
G01X20110Y42869D01*
G01X20064Y43097D01*
G01X19973Y43233D01*
G01X19837Y43278D01*
G01X19746Y43278D01*
G01X20682Y43278D02*
G01X20546Y43233D01*
G01X20455Y43097D01*
G01X20410Y42869D01*
G01X20410Y42733D01*
G01X20455Y42506D01*
G01X20546Y42369D01*
G01X20682Y42324D01*
G01X20773Y42324D01*
G01X20910Y42369D01*
G01X21001Y42506D01*
G01X21046Y42733D01*
G01X21046Y42869D01*
G01X21001Y43097D01*
G01X20910Y43233D01*
G01X20773Y43278D01*
G01X20682Y43278D01*
G01X21346Y42960D02*
G01X21346Y42324D01*
G01X21346Y42778D02*
G01X21482Y42915D01*
G01X21573Y42960D01*
G01X21710Y42960D01*
G01X21801Y42915D01*
G01X21846Y42778D01*
G01X21846Y42324D01*
G01X21846Y42778D02*
G01X21982Y42915D01*
G01X22073Y42960D01*
G01X22210Y42960D01*
G01X22301Y42915D01*
G01X22346Y42778D01*
G01X22346Y42324D01*
G01X22646Y42960D02*
G01X22646Y42324D01*
G01X22646Y42778D02*
G01X22782Y42915D01*
G01X22873Y42960D01*
G01X23010Y42960D01*
G01X23101Y42915D01*
G01X23146Y42778D01*
G01X23146Y42324D01*
G01X23146Y42778D02*
G01X23282Y42915D01*
G01X23373Y42960D01*
G01X23510Y42960D01*
G01X23601Y42915D01*
G01X23646Y42778D01*
G01X23646Y42324D01*
G01X11Y41489D02*
G01X11Y43270D01*
G01X39381Y41489D02*
G01X39381Y43270D01*
G01X-854Y104D02*
G01X-854Y15639D01*
G01X-854Y23939D02*
G01X-854Y39474D01*
G01X-704Y704D02*
G01X-854Y104D01*
G01X-1004Y704D01*
G01X-704Y38874D02*
G01X-854Y39474D01*
G01X-1004Y38874D01*
G01X-1682Y15839D02*
G01X-1727Y15930D01*
G01X-1863Y16066D01*
G01X-909Y16066D01*
G01X-1863Y16639D02*
G01X-1818Y16503D01*
G01X-1682Y16412D01*
G01X-1454Y16366D01*
G01X-1318Y16366D01*
G01X-1091Y16412D01*
G01X-954Y16503D01*
G01X-909Y16639D01*
G01X-909Y16730D01*
G01X-954Y16866D01*
G01X-1091Y16957D01*
G01X-1318Y17003D01*
G01X-1454Y17003D01*
G01X-1682Y16957D01*
G01X-1818Y16866D01*
G01X-1863Y16730D01*
G01X-1863Y16639D01*
G01X-1863Y17575D02*
G01X-1818Y17439D01*
G01X-1682Y17348D01*
G01X-1454Y17303D01*
G01X-1318Y17303D01*
G01X-1091Y17348D01*
G01X-954Y17439D01*
G01X-909Y17575D01*
G01X-909Y17666D01*
G01X-954Y17803D01*
G01X-1091Y17894D01*
G01X-1318Y17939D01*
G01X-1454Y17939D01*
G01X-1682Y17894D01*
G01X-1818Y17803D01*
G01X-1863Y17666D01*
G01X-1863Y17575D01*
G01X-1136Y18284D02*
G01X-1091Y18239D01*
G01X-1045Y18284D01*
G01X-1091Y18330D01*
G01X-1136Y18284D01*
G01X-1863Y18903D02*
G01X-1818Y18766D01*
G01X-1682Y18675D01*
G01X-1454Y18630D01*
G01X-1318Y18630D01*
G01X-1091Y18675D01*
G01X-954Y18766D01*
G01X-909Y18903D01*
G01X-909Y18994D01*
G01X-954Y19130D01*
G01X-1091Y19221D01*
G01X-1318Y19266D01*
G01X-1454Y19266D01*
G01X-1682Y19221D01*
G01X-1818Y19130D01*
G01X-1863Y18994D01*
G01X-1863Y18903D01*
G01X-1863Y19839D02*
G01X-1818Y19703D01*
G01X-1682Y19612D01*
G01X-1454Y19566D01*
G01X-1318Y19566D01*
G01X-1091Y19612D01*
G01X-954Y19703D01*
G01X-909Y19839D01*
G01X-909Y19930D01*
G01X-954Y20066D01*
G01X-1091Y20157D01*
G01X-1318Y20203D01*
G01X-1454Y20203D01*
G01X-1682Y20157D01*
G01X-1818Y20066D01*
G01X-1863Y19930D01*
G01X-1863Y19839D01*
G01X-1863Y20775D02*
G01X-1818Y20639D01*
G01X-1682Y20548D01*
G01X-1454Y20503D01*
G01X-1318Y20503D01*
G01X-1091Y20548D01*
G01X-954Y20639D01*
G01X-909Y20775D01*
G01X-909Y20866D01*
G01X-954Y21003D01*
G01X-1091Y21094D01*
G01X-1318Y21139D01*
G01X-1454Y21139D01*
G01X-1682Y21094D01*
G01X-1818Y21003D01*
G01X-1863Y20866D01*
G01X-1863Y20775D01*
G01X-1545Y21439D02*
G01X-909Y21439D01*
G01X-1363Y21439D02*
G01X-1500Y21575D01*
G01X-1545Y21666D01*
G01X-1545Y21803D01*
G01X-1500Y21894D01*
G01X-1363Y21939D01*
G01X-909Y21939D01*
G01X-1363Y21939D02*
G01X-1500Y22075D01*
G01X-1545Y22166D01*
G01X-1545Y22303D01*
G01X-1500Y22394D01*
G01X-1363Y22439D01*
G01X-909Y22439D01*
G01X-1545Y22739D02*
G01X-909Y22739D01*
G01X-1363Y22739D02*
G01X-1500Y22875D01*
G01X-1545Y22966D01*
G01X-1545Y23103D01*
G01X-1500Y23194D01*
G01X-1363Y23239D01*
G01X-909Y23239D01*
G01X-1363Y23239D02*
G01X-1500Y23375D01*
G01X-1545Y23466D01*
G01X-1545Y23603D01*
G01X-1500Y23694D01*
G01X-1363Y23739D01*
G01X-909Y23739D01*
G01X-74Y104D02*
G01X-1854Y104D01*
G01X-74Y39474D02*
G01X-1854Y39474D01*
G54D27*
G01X996Y36616D02*
G01X996Y36240D01*
G01X996Y36616D02*
G01X1157Y36616D01*
G01X1211Y36598D01*
G01X1229Y36580D01*
G01X1247Y36544D01*
G01X1247Y36509D01*
G01X1229Y36473D01*
G01X1211Y36455D01*
G01X1157Y36437D01*
G01X996Y36437D01*
G01X1121Y36437D02*
G01X1247Y36240D01*
G01X1615Y36562D02*
G01X1579Y36598D01*
G01X1526Y36616D01*
G01X1454Y36616D01*
G01X1400Y36598D01*
G01X1365Y36562D01*
G01X1365Y36526D01*
G01X1383Y36491D01*
G01X1400Y36473D01*
G01X1436Y36455D01*
G01X1544Y36419D01*
G01X1579Y36401D01*
G01X1597Y36383D01*
G01X1615Y36347D01*
G01X1615Y36294D01*
G01X1579Y36258D01*
G01X1526Y36240D01*
G01X1454Y36240D01*
G01X1400Y36258D01*
G01X1365Y36294D01*
G01X1859Y36616D02*
G01X1859Y36240D01*
G01X1733Y36616D02*
G01X1984Y36616D01*
G01X1139Y35666D02*
G01X996Y35290D01*
G01X1139Y35666D02*
G01X1282Y35290D01*
G01X1050Y35415D02*
G01X1229Y35415D01*
G01X1508Y35666D02*
G01X1454Y35648D01*
G01X1418Y35594D01*
G01X1400Y35505D01*
G01X1400Y35451D01*
G01X1418Y35362D01*
G01X1454Y35308D01*
G01X1508Y35290D01*
G01X1544Y35290D01*
G01X1597Y35308D01*
G01X1633Y35362D01*
G01X1651Y35451D01*
G01X1651Y35505D01*
G01X1633Y35594D01*
G01X1597Y35648D01*
G01X1544Y35666D01*
G01X1508Y35666D01*
G01X996Y34616D02*
G01X996Y34240D01*
G01X996Y34616D02*
G01X1121Y34616D01*
G01X1175Y34598D01*
G01X1211Y34562D01*
G01X1229Y34526D01*
G01X1246Y34473D01*
G01X1246Y34383D01*
G01X1229Y34330D01*
G01X1211Y34294D01*
G01X1175Y34258D01*
G01X1121Y34240D01*
G01X996Y34240D01*
G01X1472Y34616D02*
G01X1418Y34598D01*
G01X1382Y34544D01*
G01X1365Y34455D01*
G01X1365Y34401D01*
G01X1382Y34312D01*
G01X1418Y34258D01*
G01X1472Y34240D01*
G01X1508Y34240D01*
G01X1561Y34258D01*
G01X1597Y34312D01*
G01X1615Y34401D01*
G01X1615Y34455D01*
G01X1597Y34544D01*
G01X1561Y34598D01*
G01X1508Y34616D01*
G01X1472Y34616D01*
G01X996Y33666D02*
G01X996Y33290D01*
G01X996Y33666D02*
G01X1121Y33666D01*
G01X1175Y33648D01*
G01X1211Y33612D01*
G01X1229Y33576D01*
G01X1246Y33523D01*
G01X1246Y33433D01*
G01X1229Y33380D01*
G01X1211Y33344D01*
G01X1175Y33308D01*
G01X1121Y33290D01*
G01X996Y33290D01*
G01X1579Y33666D02*
G01X1400Y33666D01*
G01X1382Y33505D01*
G01X1400Y33523D01*
G01X1454Y33541D01*
G01X1508Y33541D01*
G01X1561Y33523D01*
G01X1597Y33487D01*
G01X1615Y33433D01*
G01X1615Y33397D01*
G01X1597Y33344D01*
G01X1561Y33308D01*
G01X1508Y33290D01*
G01X1454Y33290D01*
G01X1400Y33308D01*
G01X1382Y33326D01*
G01X1365Y33362D01*
G01X996Y32666D02*
G01X996Y32290D01*
G01X996Y32666D02*
G01X1121Y32666D01*
G01X1175Y32648D01*
G01X1211Y32612D01*
G01X1229Y32576D01*
G01X1247Y32523D01*
G01X1247Y32433D01*
G01X1229Y32380D01*
G01X1211Y32344D01*
G01X1175Y32308D01*
G01X1121Y32290D01*
G01X996Y32290D01*
G01X1579Y32612D02*
G01X1561Y32648D01*
G01X1508Y32666D01*
G01X1472Y32666D01*
G01X1418Y32648D01*
G01X1383Y32594D01*
G01X1365Y32505D01*
G01X1365Y32415D01*
G01X1383Y32344D01*
G01X1418Y32308D01*
G01X1472Y32290D01*
G01X1490Y32290D01*
G01X1544Y32308D01*
G01X1579Y32344D01*
G01X1597Y32397D01*
G01X1597Y32415D01*
G01X1579Y32469D01*
G01X1544Y32505D01*
G01X1490Y32523D01*
G01X1472Y32523D01*
G01X1418Y32505D01*
G01X1383Y32469D01*
G01X1365Y32415D01*
G01X996Y31666D02*
G01X996Y31290D01*
G01X996Y31666D02*
G01X1121Y31666D01*
G01X1175Y31648D01*
G01X1211Y31612D01*
G01X1229Y31576D01*
G01X1246Y31523D01*
G01X1246Y31433D01*
G01X1229Y31380D01*
G01X1211Y31344D01*
G01X1175Y31308D01*
G01X1121Y31290D01*
G01X996Y31290D01*
G01X1615Y31666D02*
G01X1436Y31290D01*
G01X1365Y31666D02*
G01X1615Y31666D01*
G01X996Y30666D02*
G01X996Y30290D01*
G01X996Y30666D02*
G01X1121Y30666D01*
G01X1175Y30648D01*
G01X1211Y30612D01*
G01X1229Y30576D01*
G01X1246Y30523D01*
G01X1246Y30433D01*
G01X1229Y30380D01*
G01X1211Y30344D01*
G01X1175Y30308D01*
G01X1121Y30290D01*
G01X996Y30290D01*
G01X1454Y30666D02*
G01X1400Y30648D01*
G01X1382Y30612D01*
G01X1382Y30576D01*
G01X1400Y30541D01*
G01X1436Y30523D01*
G01X1508Y30505D01*
G01X1561Y30487D01*
G01X1597Y30451D01*
G01X1615Y30415D01*
G01X1615Y30362D01*
G01X1597Y30326D01*
G01X1579Y30308D01*
G01X1526Y30290D01*
G01X1454Y30290D01*
G01X1400Y30308D01*
G01X1382Y30326D01*
G01X1365Y30362D01*
G01X1365Y30415D01*
G01X1382Y30451D01*
G01X1418Y30487D01*
G01X1472Y30505D01*
G01X1544Y30523D01*
G01X1579Y30541D01*
G01X1597Y30576D01*
G01X1597Y30612D01*
G01X1579Y30648D01*
G01X1526Y30666D01*
G01X1454Y30666D01*
G01X1032Y29616D02*
G01X1229Y29616D01*
G01X1121Y29473D01*
G01X1175Y29473D01*
G01X1211Y29455D01*
G01X1229Y29437D01*
G01X1247Y29383D01*
G01X1247Y29347D01*
G01X1229Y29294D01*
G01X1193Y29258D01*
G01X1139Y29240D01*
G01X1085Y29240D01*
G01X1032Y29258D01*
G01X1014Y29276D01*
G01X996Y29312D01*
G01X1365Y29616D02*
G01X1508Y29240D01*
G01X1651Y29616D02*
G01X1508Y29240D01*
G01X1805Y29616D02*
G01X2002Y29616D01*
G01X1894Y29473D01*
G01X1948Y29473D01*
G01X1984Y29455D01*
G01X2002Y29437D01*
G01X2020Y29383D01*
G01X2020Y29347D01*
G01X2002Y29294D01*
G01X1966Y29258D01*
G01X1912Y29240D01*
G01X1859Y29240D01*
G01X1805Y29258D01*
G01X1787Y29276D01*
G01X1769Y29312D01*
G01X8553Y36616D02*
G01X8553Y36240D01*
G01X8428Y36616D02*
G01X8678Y36616D01*
G01X8797Y36616D02*
G01X9047Y36240D01*
G01X9047Y36616D02*
G01X8797Y36240D01*
G01X8428Y35616D02*
G01X8428Y35240D01*
G01X8428Y35616D02*
G01X8589Y35616D01*
G01X8643Y35598D01*
G01X8661Y35580D01*
G01X8678Y35544D01*
G01X8678Y35508D01*
G01X8661Y35473D01*
G01X8643Y35455D01*
G01X8589Y35437D01*
G01X8428Y35437D01*
G01X8553Y35437D02*
G01X8678Y35240D01*
G01X8797Y35616D02*
G01X9047Y35240D01*
G01X9047Y35616D02*
G01X8797Y35240D01*
G01X8628Y34666D02*
G01X8628Y34290D01*
G01X8628Y34666D02*
G01X8753Y34666D01*
G01X8807Y34648D01*
G01X8843Y34612D01*
G01X8861Y34576D01*
G01X8878Y34523D01*
G01X8878Y34433D01*
G01X8861Y34379D01*
G01X8843Y34344D01*
G01X8807Y34308D01*
G01X8753Y34290D01*
G01X8628Y34290D01*
G01X8997Y34594D02*
G01X9032Y34612D01*
G01X9086Y34666D01*
G01X9086Y34290D01*
G01X8428Y33674D02*
G01X8428Y33298D01*
G01X8428Y33674D02*
G01X8553Y33674D01*
G01X8607Y33656D01*
G01X8643Y33620D01*
G01X8660Y33585D01*
G01X8678Y33531D01*
G01X8678Y33442D01*
G01X8660Y33388D01*
G01X8643Y33352D01*
G01X8607Y33316D01*
G01X8553Y33298D01*
G01X8428Y33298D01*
G01X8814Y33585D02*
G01X8814Y33603D01*
G01X8832Y33638D01*
G01X8850Y33656D01*
G01X8886Y33674D01*
G01X8958Y33674D01*
G01X8993Y33656D01*
G01X9011Y33638D01*
G01X9029Y33603D01*
G01X9029Y33567D01*
G01X9011Y33531D01*
G01X8975Y33477D01*
G01X8796Y33298D01*
G01X9047Y33298D01*
G01X8428Y32616D02*
G01X8428Y32240D01*
G01X8428Y32616D02*
G01X8553Y32616D01*
G01X8607Y32598D01*
G01X8643Y32562D01*
G01X8661Y32526D01*
G01X8678Y32473D01*
G01X8678Y32383D01*
G01X8661Y32329D01*
G01X8643Y32294D01*
G01X8607Y32258D01*
G01X8553Y32240D01*
G01X8428Y32240D01*
G01X8832Y32616D02*
G01X9029Y32616D01*
G01X8922Y32473D01*
G01X8976Y32473D01*
G01X9011Y32455D01*
G01X9029Y32437D01*
G01X9047Y32383D01*
G01X9047Y32347D01*
G01X9029Y32294D01*
G01X8993Y32258D01*
G01X8940Y32240D01*
G01X8886Y32240D01*
G01X8832Y32258D01*
G01X8814Y32276D01*
G01X8797Y32312D01*
G01X8428Y31624D02*
G01X8428Y31248D01*
G01X8428Y31624D02*
G01X8553Y31624D01*
G01X8607Y31606D01*
G01X8643Y31570D01*
G01X8660Y31535D01*
G01X8678Y31481D01*
G01X8678Y31392D01*
G01X8660Y31338D01*
G01X8643Y31302D01*
G01X8607Y31266D01*
G01X8553Y31248D01*
G01X8428Y31248D01*
G01X8975Y31624D02*
G01X8796Y31374D01*
G01X9065Y31374D01*
G01X8975Y31624D02*
G01X8975Y31248D01*
G01X8350Y30510D02*
G01X8332Y30546D01*
G01X8297Y30582D01*
G01X8261Y30600D01*
G01X8189Y30600D01*
G01X8153Y30582D01*
G01X8118Y30546D01*
G01X8100Y30510D01*
G01X8082Y30457D01*
G01X8082Y30367D01*
G01X8100Y30313D01*
G01X8118Y30278D01*
G01X8153Y30242D01*
G01X8189Y30224D01*
G01X8261Y30224D01*
G01X8297Y30242D01*
G01X8332Y30278D01*
G01X8350Y30313D01*
G01X8350Y30367D01*
G01X8261Y30367D02*
G01X8350Y30367D01*
G01X8468Y30600D02*
G01X8468Y30224D01*
G01X8468Y30600D02*
G01X8719Y30224D01*
G01X8719Y30600D02*
G01X8719Y30224D01*
G01X8837Y30600D02*
G01X8837Y30224D01*
G01X8837Y30600D02*
G01X8962Y30600D01*
G01X9016Y30582D01*
G01X9052Y30546D01*
G01X9070Y30510D01*
G01X9088Y30457D01*
G01X9088Y30367D01*
G01X9070Y30313D01*
G01X9052Y30278D01*
G01X9016Y30242D01*
G01X8962Y30224D01*
G01X8837Y30224D01*
G01X8593Y29616D02*
G01X8414Y29616D01*
G01X8396Y29455D01*
G01X8414Y29473D01*
G01X8467Y29491D01*
G01X8521Y29491D01*
G01X8575Y29473D01*
G01X8610Y29437D01*
G01X8628Y29383D01*
G01X8628Y29347D01*
G01X8610Y29294D01*
G01X8575Y29258D01*
G01X8521Y29240D01*
G01X8467Y29240D01*
G01X8414Y29258D01*
G01X8396Y29276D01*
G01X8378Y29312D01*
G01X8746Y29616D02*
G01X8890Y29240D01*
G01X9033Y29616D02*
G01X8890Y29240D01*
G54D10*
G75*
G01X7532Y38475D02*
G03X7532Y38475I-295J0D01*
G01*
G75*
G01X7828Y38475D02*
G03X7828Y38475I-591J0D01*
G01*
G75*
G01X3055Y36212D02*
G03X3055Y36212I-49J0D01*
G01*
G01X2258Y36604D02*
G01X7849Y36604D01*
G01X7849Y32037D01*
G01X2258Y32037D01*
G01X2258Y36604D01*

%LPD*%
G36*
G01X8503Y27918D02*
G01X7874Y27918D01*
G01X7874Y27840D01*
G01X8503Y27840D01*
G01X8503Y27918D01*
G37*

%LPD*%
G36*
G01X8228Y27879D02*
G01X8149Y27879D01*
G01X8149Y27643D01*
G01X8228Y27643D01*
G01X8228Y27879D01*
G37*

%LPD*%
G36*
G01X9703Y27918D02*
G01X9074Y27918D01*
G01X9074Y27840D01*
G01X9703Y27840D01*
G01X9703Y27918D01*
G37*

%LPD*%
G36*
G01X9428Y27879D02*
G01X9349Y27879D01*
G01X9349Y27643D01*
G01X9428Y27643D01*
G01X9428Y27879D01*
G37*

%LPD*%
G36*
G01X1753Y27918D02*
G01X1124Y27918D01*
G01X1124Y27840D01*
G01X1753Y27840D01*
G01X1753Y27918D01*
G37*

%LPD*%
G36*
G01X1478Y27879D02*
G01X1399Y27879D01*
G01X1399Y27643D01*
G01X1478Y27643D01*
G01X1478Y27879D01*
G37*
M00*
M02*
