G04 Layer: TopSolderMaskLayer*
G04 EasyEDA v6.3.22, 2020-01-19T16:38:24+00:00*
G04 a2d37a9207c24dc198fa5f1151cfaccd,4b468aaabfa54ef3be77053c06c4e1f4,10*
G04 Gerber Generator version 0.2*
G04 Scale: 100 percent, Rotated: No, Reflected: No *
G04 Dimensions in inches *
G04 leading zeros omitted , absolute positions ,2 integer and 4 decimal *
%FSLAX24Y24*%
%MOIN*%
G90*
G70D02*

%ADD31C,0.061100*%
%ADD37C,0.067000*%
%ADD39C,0.068000*%
%ADD40C,0.118110*%

%LPD*%
G36*
G01X6233Y25714D02*
G01X6233Y26325D01*
G01X6844Y26325D01*
G01X6844Y25714D01*
G01X6233Y25714D01*
G37*
G54D31*
G01X5538Y26020D03*
G01X4538Y26020D03*
G01X3538Y26020D03*
G36*
G01X5387Y38257D02*
G01X5387Y38730D01*
G01X6058Y38730D01*
G01X6058Y38257D01*
G01X5387Y38257D01*
G37*
G36*
G01X8379Y38257D02*
G01X8379Y38730D01*
G01X9050Y38730D01*
G01X9050Y38257D01*
G01X8379Y38257D01*
G37*
G36*
G01X5625Y30304D02*
G01X5625Y31014D01*
G01X5981Y31014D01*
G01X5981Y30304D01*
G01X5625Y30304D01*
G37*
G36*
G01X5125Y30304D02*
G01X5125Y31014D01*
G01X5481Y31014D01*
G01X5481Y30304D01*
G01X5125Y30304D01*
G37*
G36*
G01X4625Y30304D02*
G01X4625Y31014D01*
G01X4981Y31014D01*
G01X4981Y30304D01*
G01X4625Y30304D01*
G37*
G36*
G01X4125Y30304D02*
G01X4125Y31014D01*
G01X4481Y31014D01*
G01X4481Y30304D01*
G01X4125Y30304D01*
G37*
G36*
G01X4806Y35619D02*
G01X4806Y36487D01*
G01X5023Y36487D01*
G01X5023Y35619D01*
G01X4806Y35619D01*
G37*
G36*
G01X5081Y35619D02*
G01X5081Y36487D01*
G01X5298Y36487D01*
G01X5298Y35619D01*
G01X5081Y35619D01*
G37*
G36*
G01X5357Y35619D02*
G01X5357Y36487D01*
G01X5574Y36487D01*
G01X5574Y35619D01*
G01X5357Y35619D01*
G37*
G36*
G01X4530Y35620D02*
G01X4530Y36487D01*
G01X4748Y36487D01*
G01X4748Y35620D01*
G01X4530Y35620D01*
G37*
G36*
G01X4254Y35619D02*
G01X4254Y36487D01*
G01X4472Y36487D01*
G01X4472Y35619D01*
G01X4254Y35619D01*
G37*
G36*
G01X5632Y35620D02*
G01X5632Y36487D01*
G01X5850Y36487D01*
G01X5850Y35620D01*
G01X5632Y35620D01*
G37*
G36*
G01X5907Y35620D02*
G01X5907Y36487D01*
G01X6125Y36487D01*
G01X6125Y35620D01*
G01X5907Y35620D01*
G37*
G36*
G01X3979Y35620D02*
G01X3979Y36487D01*
G01X4197Y36487D01*
G01X4197Y35620D01*
G01X3979Y35620D01*
G37*
G36*
G01X6183Y35620D02*
G01X6183Y36487D01*
G01X6401Y36487D01*
G01X6401Y35620D01*
G01X6183Y35620D01*
G37*
G36*
G01X3703Y35620D02*
G01X3703Y36487D01*
G01X3920Y36487D01*
G01X3920Y35620D01*
G01X3703Y35620D01*
G37*
G36*
G01X3427Y35620D02*
G01X3427Y36487D01*
G01X3645Y36487D01*
G01X3645Y35620D01*
G01X3427Y35620D01*
G37*
G36*
G01X6459Y35619D02*
G01X6459Y36487D01*
G01X6677Y36487D01*
G01X6677Y35619D01*
G01X6459Y35619D01*
G37*
G36*
G01X3152Y35620D02*
G01X3152Y36487D01*
G01X3370Y36487D01*
G01X3370Y35620D01*
G01X3152Y35620D01*
G37*
G36*
G01X6735Y35620D02*
G01X6735Y36487D01*
G01X6952Y36487D01*
G01X6952Y35620D01*
G01X6735Y35620D01*
G37*
G36*
G01X2322Y30312D02*
G01X2322Y30848D01*
G01X2981Y30848D01*
G01X2981Y30312D01*
G01X2322Y30312D01*
G37*
G36*
G01X2322Y31112D02*
G01X2322Y31648D01*
G01X2981Y31648D01*
G01X2981Y31112D01*
G01X2322Y31112D01*
G37*
G36*
G01X7125Y30312D02*
G01X7125Y30848D01*
G01X7784Y30848D01*
G01X7784Y30312D01*
G01X7125Y30312D01*
G37*
G36*
G01X7125Y31112D02*
G01X7125Y31648D01*
G01X7784Y31648D01*
G01X7784Y31112D01*
G01X7125Y31112D01*
G37*
G36*
G01X6732Y28579D02*
G01X6732Y29116D01*
G01X7390Y29116D01*
G01X7390Y28579D01*
G01X6732Y28579D01*
G37*
G36*
G01X6732Y29379D02*
G01X6732Y29916D01*
G01X7390Y29916D01*
G01X7390Y29379D01*
G01X6732Y29379D01*
G37*
G36*
G01X1815Y38287D02*
G01X1815Y38957D01*
G01X2485Y38957D01*
G01X2485Y38287D01*
G01X1815Y38287D01*
G37*
G54D37*
G01X3151Y38622D03*
G01X4151Y38622D03*
G36*
G01X551Y37201D02*
G01X551Y37738D01*
G01X1209Y37738D01*
G01X1209Y37201D01*
G01X551Y37201D01*
G37*
G36*
G01X551Y38001D02*
G01X551Y38538D01*
G01X1209Y38538D01*
G01X1209Y38001D01*
G01X551Y38001D01*
G37*
G36*
G01X7794Y28055D02*
G01X7794Y28726D01*
G01X8583Y28726D01*
G01X8583Y28055D01*
G01X7794Y28055D01*
G37*
G36*
G01X7794Y26874D02*
G01X7794Y27545D01*
G01X8583Y27545D01*
G01X8583Y26874D01*
G01X7794Y26874D01*
G37*
G36*
G01X8994Y28055D02*
G01X8994Y28726D01*
G01X9783Y28726D01*
G01X9783Y28055D01*
G01X8994Y28055D01*
G37*
G36*
G01X8994Y26874D02*
G01X8994Y27545D01*
G01X9783Y27545D01*
G01X9783Y26874D01*
G01X8994Y26874D01*
G37*
G36*
G01X1044Y28055D02*
G01X1044Y28726D01*
G01X1833Y28726D01*
G01X1833Y28055D01*
G01X1044Y28055D01*
G37*
G36*
G01X1044Y26874D02*
G01X1044Y27545D01*
G01X1833Y27545D01*
G01X1833Y26874D01*
G01X1044Y26874D01*
G37*
G54D39*
G01X539Y29451D03*
G01X539Y30451D03*
G01X539Y31451D03*
G01X539Y32451D03*
G01X539Y33451D03*
G01X539Y34451D03*
G01X539Y35451D03*
G01X539Y36451D03*
G01X9539Y29451D03*
G01X9539Y30451D03*
G01X9539Y31451D03*
G01X9539Y32451D03*
G01X9539Y33451D03*
G01X9539Y34451D03*
G01X9539Y35451D03*
G01X9539Y36451D03*
G54D40*
G01X3937Y40435D03*
G01X27559Y40435D03*
G01X5905Y4184D03*
G01X25591Y4184D03*
M00*
M02*
