G04 Layer: BoardOutline*
G04 EasyEDA v6.3.22, 2020-01-19T16:38:24+00:00*
G04 a2d37a9207c24dc198fa5f1151cfaccd,4b468aaabfa54ef3be77053c06c4e1f4,10*
G04 Gerber Generator version 0.2*
G04 Scale: 100 percent, Rotated: No, Reflected: No *
G04 Dimensions in inches *
G04 leading zeros omitted , absolute positions ,2 integer and 4 decimal *
%FSLAX24Y24*%
%MOIN*%
G90*
G70D02*

%ADD10C,0.010000*%
G54D10*
G01X196Y28821D02*
G01X0Y28821D01*
G01X787Y25907D02*
G01X787Y28230D01*
G01X0Y38466D02*
G01X0Y28821D01*
G01X10078Y25907D02*
G01X10078Y38466D01*
G01X0Y38466D02*
G01X984Y39451D01*
G01X9094Y39451D02*
G01X984Y39451D01*
G01X9094Y39451D02*
G01X10078Y38466D01*
G01X787Y25907D02*
G01X799Y25577D01*
G01X799Y25576D02*
G01X799Y25183D01*
G01X996Y24887D01*
G01X1193Y24789D01*
G01X1488Y24789D01*
G01X1783Y24198D01*
G01X1882Y23805D01*
G01X2079Y23509D01*
G01X2571Y23411D01*
G01X2768Y23509D01*
G01X2866Y23214D01*
G01X3063Y22919D01*
G01X3457Y22820D01*
G01X4047Y22820D01*
G01X4146Y23116D01*
G01X4441Y23214D01*
G01X5130Y23313D01*
G01X5622Y23411D01*
G01X6311Y23509D01*
G01X6409Y23313D01*
G01X6508Y22919D01*
G01X6902Y22624D01*
G01X7295Y22624D01*
G01X7394Y22919D01*
G01X7787Y23313D01*
G01X7886Y23706D01*
G01X8181Y23805D01*
G01X8476Y23706D01*
G01X8772Y23805D01*
G01X8870Y24100D01*
G01X9264Y24002D01*
G01X9559Y24100D01*
G01X9756Y24395D01*
G01X9854Y25084D01*
G01X10079Y25907D01*
G75*
G01X787Y28231D02*
G03X197Y28821I-590J0D01*
G01*
G01X10905Y28821D02*
G01X10708Y28821D01*
G01X11496Y25907D02*
G01X11496Y28230D01*
G01X10708Y38466D02*
G01X10708Y28821D01*
G01X20787Y25907D02*
G01X20787Y38466D01*
G01X10708Y38466D02*
G01X11693Y39451D01*
G01X19803Y39451D02*
G01X11693Y39451D01*
G01X19803Y39451D02*
G01X20787Y38466D01*
G01X11496Y25907D02*
G01X11508Y25577D01*
G01X11507Y25576D02*
G01X11507Y25183D01*
G01X11704Y24887D01*
G01X11901Y24789D01*
G01X12196Y24789D01*
G01X12491Y24198D01*
G01X12590Y23805D01*
G01X12787Y23509D01*
G01X13279Y23411D01*
G01X13476Y23509D01*
G01X13574Y23214D01*
G01X13771Y22919D01*
G01X14165Y22820D01*
G01X14755Y22820D01*
G01X14854Y23116D01*
G01X15149Y23214D01*
G01X15838Y23313D01*
G01X16330Y23411D01*
G01X17019Y23509D01*
G01X17117Y23313D01*
G01X17216Y22919D01*
G01X17610Y22624D01*
G01X18003Y22624D01*
G01X18102Y22919D01*
G01X18495Y23313D01*
G01X18594Y23706D01*
G01X18889Y23805D01*
G01X19184Y23706D01*
G01X19480Y23805D01*
G01X19578Y24100D01*
G01X19972Y24002D01*
G01X20267Y24100D01*
G01X20464Y24395D01*
G01X20562Y25084D01*
G01X20787Y25907D01*
G75*
G01X11496Y28231D02*
G03X10906Y28821I-590J0D01*
G01*
G01X21614Y28821D02*
G01X21417Y28821D01*
G01X22205Y25907D02*
G01X22205Y28230D01*
G01X21417Y38466D02*
G01X21417Y28821D01*
G01X31496Y25907D02*
G01X31496Y38466D01*
G01X21417Y38466D02*
G01X22402Y39451D01*
G01X30512Y39451D02*
G01X22402Y39451D01*
G01X30512Y39451D02*
G01X31496Y38466D01*
G01X22205Y25907D02*
G01X22217Y25577D01*
G01X22216Y25576D02*
G01X22216Y25183D01*
G01X22413Y24887D01*
G01X22610Y24789D01*
G01X22905Y24789D01*
G01X23200Y24198D01*
G01X23299Y23805D01*
G01X23496Y23509D01*
G01X23988Y23411D01*
G01X24185Y23509D01*
G01X24283Y23214D01*
G01X24480Y22919D01*
G01X24874Y22820D01*
G01X25464Y22820D01*
G01X25563Y23116D01*
G01X25858Y23214D01*
G01X26547Y23313D01*
G01X27039Y23411D01*
G01X27728Y23509D01*
G01X27826Y23313D01*
G01X27925Y22919D01*
G01X28319Y22624D01*
G01X28712Y22624D01*
G01X28811Y22919D01*
G01X29204Y23313D01*
G01X29303Y23706D01*
G01X29598Y23805D01*
G01X29893Y23706D01*
G01X30189Y23805D01*
G01X30287Y24100D01*
G01X30681Y24002D01*
G01X30976Y24100D01*
G01X31173Y24395D01*
G01X31271Y25084D01*
G01X31496Y25907D01*
G75*
G01X22205Y28231D02*
G03X21615Y28821I-590J0D01*
G01*
G01X196Y11364D02*
G01X0Y11364D01*
G01X787Y8451D02*
G01X787Y10774D01*
G01X0Y21010D02*
G01X0Y11364D01*
G01X10078Y8451D02*
G01X10078Y21010D01*
G01X0Y21010D02*
G01X984Y21994D01*
G01X9094Y21994D02*
G01X984Y21994D01*
G01X9094Y21994D02*
G01X10078Y21010D01*
G01X787Y8451D02*
G01X799Y8120D01*
G01X799Y8120D02*
G01X799Y7727D01*
G01X996Y7431D01*
G01X1193Y7333D01*
G01X1488Y7333D01*
G01X1783Y6742D01*
G01X1882Y6349D01*
G01X2079Y6053D01*
G01X2571Y5955D01*
G01X2768Y6053D01*
G01X2866Y5758D01*
G01X3063Y5463D01*
G01X3457Y5364D01*
G01X4047Y5364D01*
G01X4146Y5660D01*
G01X4441Y5758D01*
G01X5130Y5857D01*
G01X5622Y5955D01*
G01X6311Y6053D01*
G01X6409Y5857D01*
G01X6508Y5463D01*
G01X6902Y5168D01*
G01X7295Y5168D01*
G01X7394Y5463D01*
G01X7787Y5857D01*
G01X7886Y6250D01*
G01X8181Y6349D01*
G01X8476Y6250D01*
G01X8772Y6349D01*
G01X8870Y6644D01*
G01X9264Y6546D01*
G01X9559Y6644D01*
G01X9756Y6939D01*
G01X9854Y7628D01*
G01X10079Y8451D01*
G75*
G01X787Y10774D02*
G03X197Y11365I-590J0D01*
G01*
G01X10905Y11364D02*
G01X10708Y11364D01*
G01X11496Y8451D02*
G01X11496Y10774D01*
G01X10708Y21010D02*
G01X10708Y11364D01*
G01X20787Y8451D02*
G01X20787Y21010D01*
G01X10708Y21010D02*
G01X11693Y21994D01*
G01X19803Y21994D02*
G01X11693Y21994D01*
G01X19803Y21994D02*
G01X20787Y21010D01*
G01X11496Y8451D02*
G01X11508Y8120D01*
G01X11507Y8120D02*
G01X11507Y7727D01*
G01X11704Y7431D01*
G01X11901Y7333D01*
G01X12196Y7333D01*
G01X12491Y6742D01*
G01X12590Y6349D01*
G01X12787Y6053D01*
G01X13279Y5955D01*
G01X13476Y6053D01*
G01X13574Y5758D01*
G01X13771Y5463D01*
G01X14165Y5364D01*
G01X14755Y5364D01*
G01X14854Y5660D01*
G01X15149Y5758D01*
G01X15838Y5857D01*
G01X16330Y5955D01*
G01X17019Y6053D01*
G01X17117Y5857D01*
G01X17216Y5463D01*
G01X17610Y5168D01*
G01X18003Y5168D01*
G01X18102Y5463D01*
G01X18495Y5857D01*
G01X18594Y6250D01*
G01X18889Y6349D01*
G01X19184Y6250D01*
G01X19480Y6349D01*
G01X19578Y6644D01*
G01X19972Y6546D01*
G01X20267Y6644D01*
G01X20464Y6939D01*
G01X20562Y7628D01*
G01X20787Y8451D01*
G75*
G01X11496Y10774D02*
G03X10906Y11365I-590J0D01*
G01*
G01X21614Y11364D02*
G01X21417Y11364D01*
G01X22205Y8451D02*
G01X22205Y10774D01*
G01X21417Y21010D02*
G01X21417Y11364D01*
G01X31496Y8451D02*
G01X31496Y21010D01*
G01X21417Y21010D02*
G01X22402Y21994D01*
G01X30512Y21994D02*
G01X22402Y21994D01*
G01X30512Y21994D02*
G01X31496Y21010D01*
G01X22205Y8451D02*
G01X22217Y8120D01*
G01X22216Y8120D02*
G01X22216Y7727D01*
G01X22413Y7431D01*
G01X22610Y7333D01*
G01X22905Y7333D01*
G01X23200Y6742D01*
G01X23299Y6349D01*
G01X23496Y6053D01*
G01X23988Y5955D01*
G01X24185Y6053D01*
G01X24283Y5758D01*
G01X24480Y5463D01*
G01X24874Y5364D01*
G01X25464Y5364D01*
G01X25563Y5660D01*
G01X25858Y5758D01*
G01X26547Y5857D01*
G01X27039Y5955D01*
G01X27728Y6053D01*
G01X27826Y5857D01*
G01X27925Y5463D01*
G01X28319Y5168D01*
G01X28712Y5168D01*
G01X28811Y5463D01*
G01X29204Y5857D01*
G01X29303Y6250D01*
G01X29598Y6349D01*
G01X29893Y6250D01*
G01X30189Y6349D01*
G01X30287Y6644D01*
G01X30681Y6546D01*
G01X30976Y6644D01*
G01X31173Y6939D01*
G01X31271Y7628D01*
G01X31496Y8451D01*
G75*
G01X22205Y10774D02*
G03X21615Y11365I-590J0D01*
G01*
G01X0Y41419D02*
G01X31496Y41419D01*
G01X31496Y3200D01*
G01X0Y3200D01*
G01X0Y41419D01*
G01X0Y21994D02*
G01X31496Y21994D01*
G01X0Y22624D02*
G01X31496Y22624D01*
G01X0Y39451D02*
G01X31496Y39451D01*
G01X0Y5168D02*
G01X31496Y5168D01*
G01X10708Y41419D02*
G01X10708Y3200D01*
G01X10079Y41419D02*
G01X10079Y3200D01*
G01X21417Y41419D02*
G01X21417Y3200D01*
G01X20787Y41419D02*
G01X20787Y3200D01*

%LPD*%
M00*
M02*
