G04 Layer: BottomSolderMaskLayer*
G04 EasyEDA v6.3.22, 2020-01-19T16:38:24+00:00*
G04 a2d37a9207c24dc198fa5f1151cfaccd,4b468aaabfa54ef3be77053c06c4e1f4,10*
G04 Gerber Generator version 0.2*
G04 Scale: 100 percent, Rotated: No, Reflected: No *
G04 Dimensions in inches *
G04 leading zeros omitted , absolute positions ,2 integer and 4 decimal *
%FSLAX24Y24*%
%MOIN*%
G90*
G70D02*

%ADD31C,0.061100*%
%ADD37C,0.067000*%
%ADD39C,0.068000*%
%ADD40C,0.118110*%

%LPD*%
G36*
G01X6233Y25714D02*
G01X6233Y26325D01*
G01X6844Y26325D01*
G01X6844Y25714D01*
G01X6233Y25714D01*
G37*
G54D31*
G01X5538Y26020D03*
G01X4538Y26020D03*
G01X3538Y26020D03*
G36*
G01X5387Y38256D02*
G01X5387Y38730D01*
G01X6058Y38730D01*
G01X6058Y38256D01*
G01X5387Y38256D01*
G37*
G36*
G01X8379Y38256D02*
G01X8379Y38730D01*
G01X9050Y38730D01*
G01X9050Y38256D01*
G01X8379Y38256D01*
G37*
G36*
G01X1815Y38287D02*
G01X1815Y38957D01*
G01X2485Y38957D01*
G01X2485Y38287D01*
G01X1815Y38287D01*
G37*
G54D37*
G01X3151Y38622D03*
G01X4151Y38622D03*
G36*
G01X3901Y33233D02*
G01X3901Y33770D01*
G01X4552Y33770D01*
G01X4552Y33233D01*
G01X3901Y33233D01*
G37*
G36*
G01X3901Y34083D02*
G01X3901Y34620D01*
G01X4552Y34620D01*
G01X4552Y34083D01*
G01X3901Y34083D01*
G37*
G36*
G01X1145Y33941D02*
G01X1145Y34478D01*
G01X1796Y34478D01*
G01X1796Y33941D01*
G01X1145Y33941D01*
G37*
G36*
G01X1145Y34792D02*
G01X1145Y35329D01*
G01X1796Y35329D01*
G01X1796Y34792D01*
G01X1145Y34792D01*
G37*
G36*
G01X2326Y33745D02*
G01X2326Y34281D01*
G01X2977Y34281D01*
G01X2977Y33745D01*
G01X2326Y33745D01*
G37*
G36*
G01X2326Y34595D02*
G01X2326Y35132D01*
G01X2977Y35132D01*
G01X2977Y34595D01*
G01X2326Y34595D01*
G37*
G36*
G01X7090Y34595D02*
G01X7090Y35132D01*
G01X7741Y35132D01*
G01X7741Y34595D01*
G01X7090Y34595D01*
G37*
G36*
G01X7090Y33745D02*
G01X7090Y34281D01*
G01X7741Y34281D01*
G01X7741Y33745D01*
G01X7090Y33745D01*
G37*
G36*
G01X8271Y34792D02*
G01X8271Y35329D01*
G01X8922Y35329D01*
G01X8922Y34792D01*
G01X8271Y34792D01*
G37*
G36*
G01X8271Y33941D02*
G01X8271Y34478D01*
G01X8922Y34478D01*
G01X8922Y33941D01*
G01X8271Y33941D01*
G37*
G36*
G01X5003Y33745D02*
G01X5003Y34281D01*
G01X5654Y34281D01*
G01X5654Y33745D01*
G01X5003Y33745D01*
G37*
G36*
G01X5003Y34595D02*
G01X5003Y35132D01*
G01X5654Y35132D01*
G01X5654Y34595D01*
G01X5003Y34595D01*
G37*
G36*
G01X551Y38001D02*
G01X551Y38538D01*
G01X1209Y38538D01*
G01X1209Y38001D01*
G01X551Y38001D01*
G37*
G36*
G01X551Y37201D02*
G01X551Y37738D01*
G01X1209Y37738D01*
G01X1209Y37201D01*
G01X551Y37201D01*
G37*
G36*
G01X6023Y33776D02*
G01X6023Y34313D01*
G01X6682Y34313D01*
G01X6682Y33776D01*
G01X6023Y33776D01*
G37*
G36*
G01X6023Y34576D02*
G01X6023Y35113D01*
G01X6682Y35113D01*
G01X6682Y34576D01*
G01X6023Y34576D01*
G37*
G54D39*
G01X539Y29451D03*
G01X539Y30451D03*
G01X539Y31451D03*
G01X539Y32451D03*
G01X539Y33451D03*
G01X539Y34451D03*
G01X539Y35451D03*
G01X539Y36451D03*
G01X9539Y29451D03*
G01X9539Y30451D03*
G01X9539Y31451D03*
G01X9539Y32451D03*
G01X9539Y33451D03*
G01X9539Y34451D03*
G01X9539Y35451D03*
G01X9539Y36451D03*
G54D40*
G01X3937Y40435D03*
G01X27559Y40435D03*
G01X5905Y4184D03*
G01X25591Y4184D03*
M00*
M02*
