G04 Layer: BottomSilkLayer*
G04 EasyEDA v6.3.22, 2020-01-19T16:38:24+00:00*
G04 a2d37a9207c24dc198fa5f1151cfaccd,4b468aaabfa54ef3be77053c06c4e1f4,10*
G04 Gerber Generator version 0.2*
G04 Scale: 100 percent, Rotated: No, Reflected: No *
G04 Dimensions in inches *
G04 leading zeros omitted , absolute positions ,2 integer and 4 decimal *
%FSLAX24Y24*%
%MOIN*%
G90*
G70D02*

%ADD10C,0.010000*%
%ADD25C,0.007870*%
%ADD27C,0.008000*%
%ADD29C,0.006000*%

%LPD*%

%LPD*%
G36*
G01X7001Y30909D02*
G01X6879Y30953D01*
G01X6786Y30948D01*
G01X6692Y30944D01*
G01X6621Y30908D01*
G01X6550Y30871D01*
G01X6499Y30812D01*
G01X6447Y30752D01*
G01X6393Y30625D01*
G01X6372Y30488D01*
G01X6384Y30418D01*
G01X6390Y30385D01*
G01X6397Y30355D01*
G01X6406Y30326D01*
G01X6416Y30299D01*
G01X6429Y30273D01*
G01X6443Y30247D01*
G01X6459Y30221D01*
G01X6478Y30195D01*
G01X6522Y30136D01*
G01X6581Y30098D01*
G01X6639Y30060D01*
G01X6710Y30041D01*
G01X6780Y30022D01*
G01X6910Y30038D01*
G01X6968Y30061D01*
G01X7027Y30085D01*
G01X7159Y30216D01*
G01X7182Y30264D01*
G01X7192Y30288D01*
G01X7204Y30317D01*
G01X7215Y30348D01*
G01X7224Y30377D01*
G01X7243Y30441D01*
G01X7244Y30405D01*
G01X7245Y30379D01*
G01X7249Y30352D01*
G01X7254Y30326D01*
G01X7261Y30300D01*
G01X7270Y30275D01*
G01X7280Y30251D01*
G01X7292Y30227D01*
G01X7305Y30204D01*
G01X7319Y30182D01*
G01X7335Y30162D01*
G01X7352Y30142D01*
G01X7370Y30125D01*
G01X7389Y30108D01*
G01X7409Y30093D01*
G01X7430Y30080D01*
G01X7451Y30069D01*
G01X7500Y30047D01*
G01X7659Y30020D01*
G01X7667Y30028D01*
G01X7674Y30036D01*
G01X7661Y30126D01*
G01X7648Y30215D01*
G01X7607Y30315D01*
G01X7527Y30411D01*
G01X7409Y30471D01*
G01X7323Y30484D01*
G01X7237Y30498D01*
G01X7231Y30559D01*
G01X7225Y30621D01*
G01X7197Y30684D01*
G01X7183Y30713D01*
G01X7168Y30741D01*
G01X7152Y30767D01*
G01X7134Y30791D01*
G01X7116Y30813D01*
G01X7096Y30835D01*
G01X7074Y30854D01*
G01X7051Y30872D01*
G01X7001Y30909D01*
G37*

%LPD*%
G36*
G01X6901Y29940D02*
G01X6744Y29942D01*
G01X6628Y29916D01*
G01X6494Y29848D01*
G01X6382Y29740D01*
G01X6330Y29642D01*
G01X6215Y29236D01*
G01X6099Y28831D01*
G01X6099Y28765D01*
G01X6130Y28732D01*
G01X6162Y28698D01*
G01X6241Y28682D01*
G01X6241Y28525D01*
G01X6258Y28499D01*
G01X6278Y28477D01*
G01X6305Y28457D01*
G01X6334Y28443D01*
G01X6361Y28438D01*
G01X6383Y28438D01*
G01X6383Y27915D01*
G01X6411Y27857D01*
G01X6447Y27830D01*
G01X6484Y27803D01*
G01X6571Y27803D01*
G01X6609Y27823D01*
G01X6646Y27842D01*
G01X6677Y27893D01*
G01X6694Y28104D01*
G01X6698Y28162D01*
G01X6700Y28190D01*
G01X6703Y28218D01*
G01X6705Y28245D01*
G01X6707Y28271D01*
G01X6709Y28294D01*
G01X6711Y28316D01*
G01X6713Y28336D01*
G01X6714Y28352D01*
G01X6715Y28366D01*
G01X6716Y28376D01*
G01X6723Y28438D01*
G01X6906Y28438D01*
G01X6911Y28411D01*
G01X6912Y28406D01*
G01X6913Y28396D01*
G01X6915Y28382D01*
G01X6916Y28365D01*
G01X6918Y28345D01*
G01X6920Y28322D01*
G01X6922Y28297D01*
G01X6924Y28269D01*
G01X6927Y28240D01*
G01X6929Y28209D01*
G01X6932Y28177D01*
G01X6934Y28144D01*
G01X6952Y27903D01*
G01X6968Y27876D01*
G01X6977Y27864D01*
G01X6990Y27850D01*
G01X7004Y27837D01*
G01X7019Y27826D01*
G01X7054Y27803D01*
G01X7137Y27803D01*
G01X7168Y27821D01*
G01X7182Y27830D01*
G01X7197Y27842D01*
G01X7211Y27856D01*
G01X7222Y27869D01*
G01X7245Y27900D01*
G01X7245Y28438D01*
G01X7312Y28438D01*
G01X7350Y28478D01*
G01X7387Y28518D01*
G01X7387Y28682D01*
G01X7466Y28698D01*
G01X7497Y28732D01*
G01X7528Y28765D01*
G01X7528Y28841D01*
G01X7308Y29619D01*
G01X7282Y29673D01*
G01X7257Y29727D01*
G01X7207Y29780D01*
G01X7156Y29834D01*
G01X7093Y29870D01*
G01X7029Y29907D01*
G01X6965Y29923D01*
G01X6901Y29940D01*
G37*

%LPD*%
G54D10*
G01X2069Y35390D02*
G01X3069Y37360D01*
G01X7009Y37360D01*
G01X8009Y35390D01*
G01X2069Y35390D01*
G01X2069Y27510D01*
G01X3539Y27510D01*
G01X4539Y27510D01*
G01X5539Y27510D01*
G01X6539Y27510D01*
G01X8009Y27510D01*
G01X8009Y35390D01*
G01X6539Y26450D02*
G01X6539Y27510D01*
G01X5539Y26450D02*
G01X5539Y27510D01*
G01X4539Y26450D02*
G01X4539Y27510D01*
G01X3539Y26450D02*
G01X3539Y27510D01*
G01X8439Y39124D02*
G01X8439Y37864D01*
G01X5998Y37864D01*
G01X5998Y39124D01*
G01X8439Y39124D01*
G54D25*
G01X3819Y34145D02*
G01X3819Y34700D01*
G01X4153Y34700D01*
G01X4634Y34700D01*
G01X4634Y34145D01*
G01X3819Y33699D02*
G01X3819Y33153D01*
G01X4634Y33153D01*
G01X4634Y33699D01*
G01X1063Y34854D02*
G01X1063Y35409D01*
G01X1397Y35409D01*
G01X1878Y35409D01*
G01X1878Y34854D01*
G01X1063Y34408D02*
G01X1063Y33862D01*
G01X1878Y33862D01*
G01X1878Y34408D01*
G01X2244Y34657D02*
G01X2244Y35212D01*
G01X2578Y35212D01*
G01X3059Y35212D01*
G01X3059Y34657D01*
G01X2244Y34211D02*
G01X2244Y33665D01*
G01X3059Y33665D01*
G01X3059Y34211D01*
G01X7823Y34220D02*
G01X7823Y33665D01*
G01X7489Y33665D01*
G01X7008Y33665D01*
G01X7008Y34220D01*
G01X7823Y34666D02*
G01X7823Y35212D01*
G01X7008Y35212D01*
G01X7008Y34666D01*
G01X9004Y34417D02*
G01X9004Y33862D01*
G01X8670Y33862D01*
G01X8189Y33862D01*
G01X8189Y34417D01*
G01X9004Y34863D02*
G01X9004Y35409D01*
G01X8189Y35409D01*
G01X8189Y34863D01*
G01X4922Y34657D02*
G01X4922Y35212D01*
G01X5255Y35212D01*
G01X5737Y35212D01*
G01X5737Y34657D01*
G01X4922Y34211D02*
G01X4922Y33665D01*
G01X5737Y33665D01*
G01X5737Y34211D01*
G01X473Y38088D02*
G01X473Y38608D01*
G01X1288Y38608D01*
G01X1288Y38088D01*
G01X473Y37643D02*
G01X473Y37123D01*
G01X1288Y37123D01*
G01X1288Y37643D01*
G01X5945Y34663D02*
G01X5945Y35183D01*
G01X6760Y35183D01*
G01X6760Y34663D01*
G01X5945Y34218D02*
G01X5945Y33698D01*
G01X6760Y33698D01*
G01X6760Y34218D01*

%LPD*%
G36*
G01X4931Y29814D02*
G01X4898Y29816D01*
G01X4874Y29815D01*
G01X4852Y29813D01*
G01X4830Y29809D01*
G01X4810Y29803D01*
G01X4789Y29796D01*
G01X4769Y29788D01*
G01X4750Y29778D01*
G01X4730Y29767D01*
G01X4734Y29645D01*
G01X4788Y29645D01*
G01X4811Y29747D01*
G01X4833Y29756D01*
G01X4854Y29763D01*
G01X4876Y29767D01*
G01X4898Y29769D01*
G01X4925Y29767D01*
G01X4949Y29762D01*
G01X4969Y29755D01*
G01X4986Y29745D01*
G01X4999Y29732D01*
G01X5008Y29717D01*
G01X5014Y29700D01*
G01X5016Y29681D01*
G01X5014Y29662D01*
G01X5010Y29645D01*
G01X5002Y29631D01*
G01X4990Y29618D01*
G01X4975Y29607D01*
G01X4955Y29596D01*
G01X4932Y29585D01*
G01X4904Y29574D01*
G01X4862Y29559D01*
G01X4834Y29548D01*
G01X4808Y29537D01*
G01X4786Y29525D01*
G01X4766Y29512D01*
G01X4749Y29498D01*
G01X4735Y29484D01*
G01X4723Y29470D01*
G01X4713Y29454D01*
G01X4706Y29438D01*
G01X4701Y29421D01*
G01X4698Y29403D01*
G01X4697Y29385D01*
G01X4698Y29368D01*
G01X4701Y29351D01*
G01X4705Y29335D01*
G01X4712Y29319D01*
G01X4720Y29304D01*
G01X4730Y29290D01*
G01X4742Y29277D01*
G01X4756Y29265D01*
G01X4771Y29254D01*
G01X4789Y29244D01*
G01X4808Y29235D01*
G01X4829Y29228D01*
G01X4851Y29222D01*
G01X4876Y29217D01*
G01X4902Y29215D01*
G01X4930Y29214D01*
G01X4955Y29214D01*
G01X4979Y29217D01*
G01X5002Y29220D01*
G01X5025Y29225D01*
G01X5046Y29231D01*
G01X5068Y29239D01*
G01X5090Y29248D01*
G01X5112Y29259D01*
G01X5114Y29391D01*
G01X5057Y29391D01*
G01X5030Y29280D01*
G01X5008Y29271D01*
G01X4984Y29264D01*
G01X4959Y29261D01*
G01X4931Y29260D01*
G01X4898Y29262D01*
G01X4870Y29267D01*
G01X4846Y29275D01*
G01X4827Y29286D01*
G01X4812Y29301D01*
G01X4801Y29317D01*
G01X4795Y29336D01*
G01X4793Y29357D01*
G01X4794Y29375D01*
G01X4799Y29392D01*
G01X4807Y29406D01*
G01X4819Y29420D01*
G01X4835Y29432D01*
G01X4854Y29444D01*
G01X4877Y29456D01*
G01X4905Y29467D01*
G01X4961Y29485D01*
G01X4982Y29493D01*
G01X5003Y29503D01*
G01X5039Y29523D01*
G01X5054Y29535D01*
G01X5068Y29548D01*
G01X5080Y29562D01*
G01X5090Y29576D01*
G01X5098Y29592D01*
G01X5104Y29609D01*
G01X5108Y29628D01*
G01X5109Y29648D01*
G01X5107Y29670D01*
G01X5103Y29691D01*
G01X5095Y29712D01*
G01X5084Y29731D01*
G01X5071Y29749D01*
G01X5054Y29765D01*
G01X5035Y29780D01*
G01X5013Y29792D01*
G01X4988Y29802D01*
G01X4961Y29809D01*
G01X4931Y29814D01*
G37*

%LPD*%
G36*
G01X5490Y30069D02*
G01X5304Y30120D01*
G01X5289Y30111D01*
G01X5292Y29940D01*
G01X5292Y29277D01*
G01X5194Y29266D01*
G01X5194Y29229D01*
G01X5381Y29217D01*
G01X5388Y29299D01*
G01X5404Y29280D01*
G01X5422Y29263D01*
G01X5441Y29248D01*
G01X5461Y29236D01*
G01X5483Y29226D01*
G01X5506Y29219D01*
G01X5530Y29215D01*
G01X5557Y29214D01*
G01X5579Y29215D01*
G01X5600Y29217D01*
G01X5620Y29222D01*
G01X5639Y29228D01*
G01X5658Y29235D01*
G01X5676Y29244D01*
G01X5692Y29255D01*
G01X5708Y29267D01*
G01X5723Y29281D01*
G01X5736Y29296D01*
G01X5749Y29312D01*
G01X5760Y29329D01*
G01X5770Y29348D01*
G01X5779Y29368D01*
G01X5787Y29389D01*
G01X5793Y29411D01*
G01X5798Y29434D01*
G01X5802Y29458D01*
G01X5804Y29483D01*
G01X5805Y29509D01*
G01X5804Y29536D01*
G01X5802Y29563D01*
G01X5798Y29588D01*
G01X5792Y29613D01*
G01X5785Y29636D01*
G01X5777Y29658D01*
G01X5768Y29679D01*
G01X5757Y29698D01*
G01X5745Y29716D01*
G01X5732Y29733D01*
G01X5717Y29748D01*
G01X5702Y29762D01*
G01X5686Y29774D01*
G01X5668Y29785D01*
G01X5650Y29794D01*
G01X5631Y29802D01*
G01X5611Y29808D01*
G01X5590Y29812D01*
G01X5569Y29815D01*
G01X5547Y29816D01*
G01X5526Y29815D01*
G01X5506Y29812D01*
G01X5486Y29807D01*
G01X5466Y29799D01*
G01X5446Y29789D01*
G01X5427Y29775D01*
G01X5408Y29758D01*
G01X5389Y29738D01*
G01X5389Y30024D01*
G01X5490Y30033D01*
G01X5490Y30069D01*
G37*

%LPC*%
G36*
G01X5545Y29755D02*
G01X5528Y29756D01*
G01X5512Y29755D01*
G01X5497Y29752D01*
G01X5481Y29748D01*
G01X5464Y29742D01*
G01X5447Y29733D01*
G01X5429Y29722D01*
G01X5410Y29708D01*
G01X5391Y29692D01*
G01X5391Y29343D01*
G01X5408Y29325D01*
G01X5424Y29311D01*
G01X5441Y29299D01*
G01X5457Y29290D01*
G01X5474Y29283D01*
G01X5491Y29278D01*
G01X5510Y29276D01*
G01X5529Y29275D01*
G01X5547Y29276D01*
G01X5564Y29278D01*
G01X5581Y29282D01*
G01X5597Y29288D01*
G01X5612Y29296D01*
G01X5626Y29306D01*
G01X5639Y29318D01*
G01X5651Y29331D01*
G01X5661Y29347D01*
G01X5671Y29364D01*
G01X5679Y29384D01*
G01X5686Y29405D01*
G01X5691Y29429D01*
G01X5695Y29455D01*
G01X5698Y29483D01*
G01X5699Y29513D01*
G01X5698Y29544D01*
G01X5695Y29573D01*
G01X5691Y29599D01*
G01X5685Y29624D01*
G01X5678Y29646D01*
G01X5669Y29666D01*
G01X5659Y29683D01*
G01X5648Y29699D01*
G01X5636Y29713D01*
G01X5622Y29724D01*
G01X5608Y29734D01*
G01X5593Y29742D01*
G01X5578Y29748D01*
G01X5562Y29752D01*
G01X5545Y29755D01*
G37*

%LPD*%
G54D27*
G01X8870Y37541D02*
G01X8870Y37291D01*
G01X8870Y37434D02*
G01X8852Y37488D01*
G01X8816Y37523D01*
G01X8780Y37541D01*
G01X8727Y37541D01*
G01X8608Y37434D02*
G01X8394Y37434D01*
G01X8394Y37470D01*
G01X8412Y37506D01*
G01X8430Y37523D01*
G01X8465Y37541D01*
G01X8519Y37541D01*
G01X8555Y37523D01*
G01X8591Y37488D01*
G01X8608Y37434D01*
G01X8608Y37398D01*
G01X8591Y37344D01*
G01X8555Y37309D01*
G01X8519Y37291D01*
G01X8465Y37291D01*
G01X8430Y37309D01*
G01X8394Y37344D01*
G01X8079Y37488D02*
G01X8097Y37523D01*
G01X8150Y37541D01*
G01X8204Y37541D01*
G01X8258Y37523D01*
G01X8276Y37488D01*
G01X8258Y37452D01*
G01X8222Y37434D01*
G01X8132Y37416D01*
G01X8097Y37398D01*
G01X8079Y37362D01*
G01X8079Y37344D01*
G01X8097Y37309D01*
G01X8150Y37291D01*
G01X8204Y37291D01*
G01X8258Y37309D01*
G01X8276Y37344D01*
G01X7961Y37434D02*
G01X7746Y37434D01*
G01X7746Y37470D01*
G01X7764Y37506D01*
G01X7782Y37523D01*
G01X7817Y37541D01*
G01X7871Y37541D01*
G01X7907Y37523D01*
G01X7943Y37488D01*
G01X7961Y37434D01*
G01X7961Y37398D01*
G01X7943Y37344D01*
G01X7907Y37309D01*
G01X7871Y37291D01*
G01X7817Y37291D01*
G01X7782Y37309D01*
G01X7746Y37344D01*
G01X7574Y37667D02*
G01X7574Y37362D01*
G01X7556Y37309D01*
G01X7520Y37291D01*
G01X7485Y37291D01*
G01X7628Y37541D02*
G01X7503Y37541D01*
G01X9381Y25502D02*
G01X9381Y25126D01*
G01X9381Y25305D02*
G01X9328Y25358D01*
G01X9292Y25376D01*
G01X9238Y25376D01*
G01X9202Y25358D01*
G01X9184Y25305D01*
G01X9184Y25126D01*
G01X9013Y25502D02*
G01X9013Y25197D01*
G01X8995Y25144D01*
G01X8959Y25126D01*
G01X8923Y25126D01*
G01X9066Y25376D02*
G01X8941Y25376D01*
G01X8751Y25502D02*
G01X8751Y25197D01*
G01X8734Y25144D01*
G01X8698Y25126D01*
G01X8662Y25126D01*
G01X8805Y25376D02*
G01X8680Y25376D01*
G01X8544Y25376D02*
G01X8544Y25000D01*
G01X8544Y25323D02*
G01X8508Y25358D01*
G01X8472Y25376D01*
G01X8419Y25376D01*
G01X8383Y25358D01*
G01X8347Y25323D01*
G01X8329Y25269D01*
G01X8329Y25233D01*
G01X8347Y25179D01*
G01X8383Y25144D01*
G01X8419Y25126D01*
G01X8472Y25126D01*
G01X8508Y25144D01*
G01X8544Y25179D01*
G01X8014Y25323D02*
G01X8032Y25358D01*
G01X8086Y25376D01*
G01X8139Y25376D01*
G01X8193Y25358D01*
G01X8211Y25323D01*
G01X8193Y25287D01*
G01X8157Y25269D01*
G01X8068Y25251D01*
G01X8032Y25233D01*
G01X8014Y25197D01*
G01X8014Y25179D01*
G01X8032Y25144D01*
G01X8086Y25126D01*
G01X8139Y25126D01*
G01X8193Y25144D01*
G01X8211Y25179D01*
G01X7878Y25340D02*
G01X7896Y25323D01*
G01X7878Y25305D01*
G01X7860Y25323D01*
G01X7878Y25340D01*
G01X7878Y25215D02*
G01X7896Y25197D01*
G01X7878Y25179D01*
G01X7860Y25197D01*
G01X7878Y25215D01*
G01X7420Y25573D02*
G01X7742Y25000D01*
G01X6980Y25573D02*
G01X7302Y25000D01*
G01X6647Y25502D02*
G01X6647Y25126D01*
G01X6647Y25323D02*
G01X6683Y25358D01*
G01X6719Y25376D01*
G01X6772Y25376D01*
G01X6808Y25358D01*
G01X6844Y25323D01*
G01X6862Y25269D01*
G01X6862Y25233D01*
G01X6844Y25179D01*
G01X6808Y25144D01*
G01X6772Y25126D01*
G01X6719Y25126D01*
G01X6683Y25144D01*
G01X6647Y25179D01*
G01X6314Y25376D02*
G01X6314Y25126D01*
G01X6314Y25323D02*
G01X6350Y25358D01*
G01X6386Y25376D01*
G01X6439Y25376D01*
G01X6475Y25358D01*
G01X6511Y25323D01*
G01X6529Y25269D01*
G01X6529Y25233D01*
G01X6511Y25179D01*
G01X6475Y25144D01*
G01X6439Y25126D01*
G01X6386Y25126D01*
G01X6350Y25144D01*
G01X6314Y25179D01*
G01X6196Y25376D02*
G01X6196Y25197D01*
G01X6178Y25144D01*
G01X6142Y25126D01*
G01X6089Y25126D01*
G01X6053Y25144D01*
G01X5999Y25197D01*
G01X5999Y25376D02*
G01X5999Y25126D01*
G01X5666Y25376D02*
G01X5666Y25090D01*
G01X5684Y25036D01*
G01X5702Y25018D01*
G01X5738Y25000D01*
G01X5792Y25000D01*
G01X5827Y25018D01*
G01X5666Y25323D02*
G01X5702Y25358D01*
G01X5738Y25376D01*
G01X5792Y25376D01*
G01X5827Y25358D01*
G01X5863Y25323D01*
G01X5881Y25269D01*
G01X5881Y25233D01*
G01X5863Y25179D01*
G01X5827Y25144D01*
G01X5792Y25126D01*
G01X5738Y25126D01*
G01X5702Y25144D01*
G01X5666Y25179D01*
G01X5548Y25502D02*
G01X5548Y25126D01*
G01X5548Y25305D02*
G01X5494Y25358D01*
G01X5459Y25376D01*
G01X5405Y25376D01*
G01X5369Y25358D01*
G01X5351Y25305D01*
G01X5351Y25126D01*
G01X5179Y25502D02*
G01X5179Y25197D01*
G01X5162Y25144D01*
G01X5126Y25126D01*
G01X5090Y25126D01*
G01X5233Y25376D02*
G01X5108Y25376D01*
G01X4972Y25269D02*
G01X4757Y25269D01*
G01X4757Y25305D01*
G01X4775Y25340D01*
G01X4793Y25358D01*
G01X4829Y25376D01*
G01X4882Y25376D01*
G01X4918Y25358D01*
G01X4954Y25323D01*
G01X4972Y25269D01*
G01X4972Y25233D01*
G01X4954Y25179D01*
G01X4918Y25144D01*
G01X4882Y25126D01*
G01X4829Y25126D01*
G01X4793Y25144D01*
G01X4757Y25179D01*
G01X4639Y25376D02*
G01X4639Y25126D01*
G01X4639Y25269D02*
G01X4621Y25323D01*
G01X4585Y25358D01*
G01X4550Y25376D01*
G01X4496Y25376D01*
G01X4360Y25215D02*
G01X4378Y25197D01*
G01X4360Y25179D01*
G01X4342Y25197D01*
G01X4360Y25215D01*
G01X4027Y25323D02*
G01X4045Y25358D01*
G01X4099Y25376D01*
G01X4152Y25376D01*
G01X4206Y25358D01*
G01X4224Y25323D01*
G01X4206Y25287D01*
G01X4170Y25269D01*
G01X4081Y25251D01*
G01X4045Y25233D01*
G01X4027Y25197D01*
G01X4027Y25179D01*
G01X4045Y25144D01*
G01X4099Y25126D01*
G01X4152Y25126D01*
G01X4206Y25144D01*
G01X4224Y25179D01*
G01X3891Y25376D02*
G01X3784Y25126D01*
G01X3676Y25376D02*
G01X3784Y25126D01*
G01X3819Y25054D01*
G01X3855Y25018D01*
G01X3891Y25000D01*
G01X3909Y25000D01*
G01X3361Y25323D02*
G01X3379Y25358D01*
G01X3433Y25376D01*
G01X3487Y25376D01*
G01X3540Y25358D01*
G01X3558Y25323D01*
G01X3540Y25287D01*
G01X3504Y25269D01*
G01X3415Y25251D01*
G01X3379Y25233D01*
G01X3361Y25197D01*
G01X3361Y25179D01*
G01X3379Y25144D01*
G01X3433Y25126D01*
G01X3487Y25126D01*
G01X3540Y25144D01*
G01X3558Y25179D01*
G01X3190Y25502D02*
G01X3190Y25197D01*
G01X3172Y25144D01*
G01X3136Y25126D01*
G01X3100Y25126D01*
G01X3243Y25376D02*
G01X3118Y25376D01*
G01X2982Y25269D02*
G01X2767Y25269D01*
G01X2767Y25305D01*
G01X2785Y25340D01*
G01X2803Y25358D01*
G01X2839Y25376D01*
G01X2892Y25376D01*
G01X2928Y25358D01*
G01X2964Y25323D01*
G01X2982Y25269D01*
G01X2982Y25233D01*
G01X2964Y25179D01*
G01X2928Y25144D01*
G01X2892Y25126D01*
G01X2839Y25126D01*
G01X2803Y25144D01*
G01X2767Y25179D01*
G01X2649Y25376D02*
G01X2649Y25126D01*
G01X2649Y25305D02*
G01X2595Y25358D01*
G01X2560Y25376D01*
G01X2506Y25376D01*
G01X2470Y25358D01*
G01X2452Y25305D01*
G01X2452Y25126D01*
G01X2452Y25305D02*
G01X2399Y25358D01*
G01X2363Y25376D01*
G01X2309Y25376D01*
G01X2273Y25358D01*
G01X2255Y25305D01*
G01X2255Y25126D01*
G01X1940Y25323D02*
G01X1958Y25358D01*
G01X2012Y25376D01*
G01X2066Y25376D01*
G01X2119Y25358D01*
G01X2137Y25323D01*
G01X2119Y25287D01*
G01X2084Y25269D01*
G01X1994Y25251D01*
G01X1958Y25233D01*
G01X1940Y25197D01*
G01X1940Y25179D01*
G01X1958Y25144D01*
G01X2012Y25126D01*
G01X2066Y25126D01*
G01X2119Y25144D01*
G01X2137Y25179D01*
G01X1500Y25573D02*
G01X1822Y25000D01*
G54D29*
G01X3990Y28143D02*
G01X3990Y27767D01*
G01X3990Y28143D02*
G01X3865Y28143D01*
G01X3812Y28125D01*
G01X3776Y28089D01*
G01X3758Y28053D01*
G01X3740Y28000D01*
G01X3740Y27910D01*
G01X3758Y27857D01*
G01X3776Y27821D01*
G01X3812Y27785D01*
G01X3865Y27767D01*
G01X3990Y27767D01*
G01X3622Y28143D02*
G01X3622Y27767D01*
G01X3371Y28143D02*
G01X3371Y27767D01*
G01X3622Y27964D02*
G01X3371Y27964D01*
G01X3128Y28143D02*
G01X3128Y27767D01*
G01X3253Y28143D02*
G01X3003Y28143D01*
G01X2867Y28053D02*
G01X2867Y28071D01*
G01X2849Y28107D01*
G01X2831Y28125D01*
G01X2795Y28143D01*
G01X2723Y28143D01*
G01X2688Y28125D01*
G01X2670Y28107D01*
G01X2652Y28071D01*
G01X2652Y28035D01*
G01X2670Y28000D01*
G01X2706Y27946D01*
G01X2885Y27767D01*
G01X2634Y27767D01*
G01X2498Y28053D02*
G01X2498Y28071D01*
G01X2480Y28107D01*
G01X2462Y28125D01*
G01X2426Y28143D01*
G01X2355Y28143D01*
G01X2319Y28125D01*
G01X2301Y28107D01*
G01X2283Y28071D01*
G01X2283Y28035D01*
G01X2301Y28000D01*
G01X2337Y27946D01*
G01X2516Y27767D01*
G01X2265Y27767D01*
G01X4382Y32541D02*
G01X4423Y32520D01*
G01X4464Y32479D01*
G01X4484Y32439D01*
G01X4484Y32357D01*
G01X4464Y32316D01*
G01X4423Y32275D01*
G01X4382Y32254D01*
G01X4320Y32234D01*
G01X4218Y32234D01*
G01X4157Y32254D01*
G01X4116Y32275D01*
G01X4075Y32316D01*
G01X4055Y32357D01*
G01X4055Y32439D01*
G01X4075Y32479D01*
G01X4116Y32520D01*
G01X4157Y32541D01*
G01X4484Y32717D02*
G01X4484Y32942D01*
G01X4320Y32819D01*
G01X4320Y32880D01*
G01X4300Y32921D01*
G01X4280Y32942D01*
G01X4218Y32962D01*
G01X4177Y32962D01*
G01X4116Y32942D01*
G01X4075Y32901D01*
G01X4055Y32839D01*
G01X4055Y32778D01*
G01X4075Y32717D01*
G01X4095Y32696D01*
G01X4136Y32676D01*
G01X1587Y33407D02*
G01X1628Y33386D01*
G01X1669Y33345D01*
G01X1689Y33305D01*
G01X1689Y33223D01*
G01X1669Y33182D01*
G01X1628Y33141D01*
G01X1587Y33120D01*
G01X1525Y33100D01*
G01X1423Y33100D01*
G01X1362Y33120D01*
G01X1321Y33141D01*
G01X1280Y33182D01*
G01X1260Y33223D01*
G01X1260Y33305D01*
G01X1280Y33345D01*
G01X1321Y33386D01*
G01X1362Y33407D01*
G01X1607Y33542D02*
G01X1628Y33583D01*
G01X1689Y33644D01*
G01X1260Y33644D01*
G01X2768Y33053D02*
G01X2809Y33032D01*
G01X2850Y32991D01*
G01X2870Y32951D01*
G01X2870Y32869D01*
G01X2850Y32828D01*
G01X2809Y32787D01*
G01X2768Y32766D01*
G01X2706Y32746D01*
G01X2604Y32746D01*
G01X2543Y32766D01*
G01X2502Y32787D01*
G01X2461Y32828D01*
G01X2441Y32869D01*
G01X2441Y32951D01*
G01X2461Y32991D01*
G01X2502Y33032D01*
G01X2543Y33053D01*
G01X2768Y33208D02*
G01X2788Y33208D01*
G01X2829Y33229D01*
G01X2850Y33249D01*
G01X2870Y33290D01*
G01X2870Y33372D01*
G01X2850Y33413D01*
G01X2829Y33433D01*
G01X2788Y33454D01*
G01X2747Y33454D01*
G01X2706Y33433D01*
G01X2645Y33392D01*
G01X2441Y33188D01*
G01X2441Y33474D01*
G01X7379Y33069D02*
G01X7338Y33090D01*
G01X7297Y33131D01*
G01X7277Y33171D01*
G01X7277Y33253D01*
G01X7297Y33294D01*
G01X7338Y33335D01*
G01X7379Y33356D01*
G01X7441Y33376D01*
G01X7543Y33376D01*
G01X7604Y33356D01*
G01X7645Y33335D01*
G01X7686Y33294D01*
G01X7706Y33253D01*
G01X7706Y33171D01*
G01X7686Y33131D01*
G01X7645Y33090D01*
G01X7604Y33069D01*
G01X7277Y32689D02*
G01X7277Y32893D01*
G01X7461Y32914D01*
G01X7441Y32893D01*
G01X7420Y32832D01*
G01X7420Y32771D01*
G01X7441Y32709D01*
G01X7481Y32668D01*
G01X7543Y32648D01*
G01X7584Y32648D01*
G01X7645Y32668D01*
G01X7686Y32709D01*
G01X7706Y32771D01*
G01X7706Y32832D01*
G01X7686Y32893D01*
G01X7666Y32914D01*
G01X7625Y32934D01*
G01X8560Y33187D02*
G01X8519Y33208D01*
G01X8478Y33249D01*
G01X8458Y33289D01*
G01X8458Y33371D01*
G01X8478Y33412D01*
G01X8519Y33453D01*
G01X8560Y33474D01*
G01X8622Y33494D01*
G01X8724Y33494D01*
G01X8785Y33474D01*
G01X8826Y33453D01*
G01X8867Y33412D01*
G01X8887Y33371D01*
G01X8887Y33289D01*
G01X8867Y33249D01*
G01X8826Y33208D01*
G01X8785Y33187D01*
G01X8519Y32807D02*
G01X8478Y32827D01*
G01X8458Y32889D01*
G01X8458Y32929D01*
G01X8478Y32991D01*
G01X8540Y33032D01*
G01X8642Y33052D01*
G01X8744Y33052D01*
G01X8826Y33032D01*
G01X8867Y32991D01*
G01X8887Y32929D01*
G01X8887Y32909D01*
G01X8867Y32848D01*
G01X8826Y32807D01*
G01X8765Y32786D01*
G01X8744Y32786D01*
G01X8683Y32807D01*
G01X8642Y32848D01*
G01X8622Y32909D01*
G01X8622Y32929D01*
G01X8642Y32991D01*
G01X8683Y33032D01*
G01X8744Y33052D01*
G01X5484Y33053D02*
G01X5525Y33032D01*
G01X5566Y32991D01*
G01X5586Y32951D01*
G01X5586Y32869D01*
G01X5566Y32828D01*
G01X5525Y32787D01*
G01X5484Y32766D01*
G01X5422Y32746D01*
G01X5320Y32746D01*
G01X5259Y32766D01*
G01X5218Y32787D01*
G01X5177Y32828D01*
G01X5157Y32869D01*
G01X5157Y32951D01*
G01X5177Y32991D01*
G01X5218Y33032D01*
G01X5259Y33053D01*
G01X5586Y33392D02*
G01X5300Y33188D01*
G01X5300Y33495D01*
G01X5586Y33392D02*
G01X5157Y33392D01*
G01X6610Y32785D02*
G01X6181Y32785D01*
G01X6610Y32785D02*
G01X6610Y32969D01*
G01X6590Y33030D01*
G01X6569Y33051D01*
G01X6528Y33071D01*
G01X6487Y33071D01*
G01X6446Y33051D01*
G01X6426Y33030D01*
G01X6406Y32969D01*
G01X6406Y32785D01*
G01X6406Y32928D02*
G01X6181Y33071D01*
G01X6610Y33411D02*
G01X6324Y33206D01*
G01X6324Y33513D01*
G01X6610Y33411D02*
G01X6181Y33411D01*
G54D10*
G75*
G01X7532Y38513D02*
G03X7532Y38513I-295J0D01*
G01*
G75*
G01X7828Y38513D02*
G03X7828Y38513I-591J0D01*
G01*
M00*
M02*
