G04 Layer: BottomLayer*
G04 EasyEDA v6.3.22, 2020-01-19T16:38:24+00:00*
G04 a2d37a9207c24dc198fa5f1151cfaccd,4b468aaabfa54ef3be77053c06c4e1f4,10*
G04 Gerber Generator version 0.2*
G04 Scale: 100 percent, Rotated: No, Reflected: No *
G04 Dimensions in inches *
G04 leading zeros omitted , absolute positions ,2 integer and 4 decimal *
%FSLAX24Y24*%
%MOIN*%
G90*
G70D02*

%ADD11C,0.019685*%
%ADD12C,0.024000*%
%ADD18C,0.039370*%
%ADD20C,0.053100*%
%ADD21R,0.059000X0.059000*%
%ADD22C,0.059000*%
%ADD23C,0.060000*%

%LPD*%
G54D11*
G01X1980Y35025D02*
G01X1506Y35025D01*
G01X1470Y35060D01*
G01X1980Y34513D02*
G01X1676Y34210D01*
G01X1470Y34210D01*
G01X3121Y34868D02*
G01X2652Y34863D01*
G01X2649Y34002D02*
G01X2652Y34013D01*
G01X4420Y33490D02*
G01X4409Y33501D01*
G01X4226Y33501D01*
G01X5326Y34002D02*
G01X5329Y34013D01*
G01X8121Y35065D02*
G01X8596Y35060D01*
G01X6389Y34828D02*
G01X6373Y34845D01*
G01X6352Y34845D01*
G01X8597Y34210D02*
G01X8400Y34013D01*
G01X7416Y34013D01*
G01X7416Y34013D02*
G01X7384Y34045D01*
G01X6353Y34045D01*
G01X6353Y34045D02*
G01X5534Y34864D01*
G01X5329Y34864D01*
G01X3151Y38622D02*
G01X3151Y38755D01*
G01X3633Y39238D01*
G01X5011Y39238D01*
G01X5723Y38527D01*
G01X5723Y38494D01*
G01X8715Y38494D02*
G01X6865Y38494D01*
G01X6114Y37742D01*
G01X1586Y37742D02*
G01X1058Y38270D01*
G01X880Y38270D01*
G01X3791Y29553D02*
G01X6538Y26805D01*
G01X6538Y26020D01*
G01X8988Y29907D02*
G01X8988Y27585D01*
G01X9381Y27191D01*
G01X5366Y35380D02*
G01X4933Y35380D01*
G01X4854Y35301D01*
G01X4854Y34489D01*
G01X5329Y34013D01*
G01X5329Y34013D02*
G01X5326Y34010D01*
G01X5326Y31325D01*
G01X539Y30451D02*
G01X1108Y30451D01*
G01X5538Y26020D01*
G01X1586Y37742D02*
G01X1586Y36600D01*
G01X1436Y36451D01*
G01X539Y36451D01*
G01X2151Y38622D02*
G01X1901Y38373D01*
G01X1901Y36246D01*
G01X1106Y35451D01*
G01X539Y35451D01*
G01X3151Y38622D02*
G01X4657Y37116D01*
G01X4657Y36876D01*
G01X5090Y37073D02*
G01X4151Y38012D01*
G01X4151Y38622D01*
G01X5090Y37073D02*
G01X5090Y36758D01*
G01X4814Y36482D01*
G01X4145Y36482D01*
G01X3594Y37033D01*
G01X3594Y37427D01*
G36*
G01X6018Y38690D02*
G01X5427Y38690D01*
G01X5427Y38297D01*
G01X6018Y38297D01*
G01X6018Y38690D01*
G37*
G36*
G01X9010Y38690D02*
G01X8420Y38690D01*
G01X8420Y38297D01*
G01X9010Y38297D01*
G01X9010Y38690D01*
G37*
G36*
G01X4512Y33273D02*
G01X4512Y33730D01*
G01X3941Y33730D01*
G01X3941Y33273D01*
G01X4512Y33273D01*
G37*
G36*
G01X4512Y34124D02*
G01X4512Y34580D01*
G01X3941Y34580D01*
G01X3941Y34124D01*
G01X4512Y34124D01*
G37*
G36*
G01X1756Y33982D02*
G01X1756Y34439D01*
G01X1185Y34439D01*
G01X1185Y33982D01*
G01X1756Y33982D01*
G37*
G36*
G01X1756Y34832D02*
G01X1756Y35289D01*
G01X1185Y35289D01*
G01X1185Y34832D01*
G01X1756Y34832D01*
G37*
G36*
G01X2937Y33785D02*
G01X2937Y34242D01*
G01X2366Y34242D01*
G01X2366Y33785D01*
G01X2937Y33785D01*
G37*
G36*
G01X2937Y34635D02*
G01X2937Y35092D01*
G01X2366Y35092D01*
G01X2366Y34635D01*
G01X2937Y34635D01*
G37*
G36*
G01X7130Y35092D02*
G01X7130Y34635D01*
G01X7701Y34635D01*
G01X7701Y35092D01*
G01X7130Y35092D01*
G37*
G36*
G01X7130Y34242D02*
G01X7130Y33785D01*
G01X7701Y33785D01*
G01X7701Y34242D01*
G01X7130Y34242D01*
G37*
G36*
G01X8311Y35289D02*
G01X8311Y34832D01*
G01X8882Y34832D01*
G01X8882Y35289D01*
G01X8311Y35289D01*
G37*
G36*
G01X8311Y34439D02*
G01X8311Y33982D01*
G01X8882Y33982D01*
G01X8882Y34439D01*
G01X8311Y34439D01*
G37*
G36*
G01X5614Y33785D02*
G01X5614Y34242D01*
G01X5044Y34242D01*
G01X5044Y33785D01*
G01X5614Y33785D01*
G37*
G36*
G01X5614Y34635D02*
G01X5614Y35092D01*
G01X5044Y35092D01*
G01X5044Y34635D01*
G01X5614Y34635D01*
G37*
G36*
G01X1170Y38042D02*
G01X1170Y38498D01*
G01X591Y38498D01*
G01X591Y38042D01*
G01X1170Y38042D01*
G37*
G36*
G01X1170Y37242D02*
G01X1170Y37698D01*
G01X591Y37698D01*
G01X591Y37242D01*
G01X1170Y37242D01*
G37*
G36*
G01X6642Y33816D02*
G01X6642Y34273D01*
G01X6063Y34273D01*
G01X6063Y33816D01*
G01X6642Y33816D01*
G37*
G36*
G01X6642Y34616D02*
G01X6642Y35073D01*
G01X6063Y35073D01*
G01X6063Y34616D01*
G01X6642Y34616D01*
G37*
G54D18*
G01X3937Y40435D03*
G01X27559Y40435D03*
G01X5905Y4184D03*
G01X25591Y4184D03*
G36*
G01X6804Y26286D02*
G01X6273Y26286D01*
G01X6273Y25755D01*
G01X6804Y25755D01*
G01X6804Y26286D01*
G37*
G54D20*
G01X5538Y26020D03*
G01X4538Y26020D03*
G01X3538Y26020D03*
G54D21*
G01X2151Y38622D03*
G54D22*
G01X3151Y38622D03*
G01X4151Y38622D03*
G54D23*
G01X539Y29451D03*
G01X539Y30451D03*
G01X539Y31451D03*
G01X539Y32451D03*
G01X539Y33451D03*
G01X539Y34451D03*
G01X539Y35451D03*
G01X539Y36451D03*
G01X9539Y29451D03*
G01X9539Y30451D03*
G01X9539Y31451D03*
G01X9539Y32451D03*
G01X9539Y33451D03*
G01X9539Y34451D03*
G01X9539Y35451D03*
G01X9539Y36451D03*
G54D12*
G01X1980Y35026D03*
G01X1980Y34514D03*
G01X3121Y34868D03*
G01X2649Y34002D03*
G01X4224Y34356D03*
G01X4421Y33490D03*
G01X5326Y34868D03*
G01X8121Y35065D03*
G01X7413Y34868D03*
G01X6389Y34829D03*
G01X4657Y36876D03*
G01X6114Y37742D03*
G01X1586Y37742D03*
G01X5090Y37073D03*
G01X3791Y29553D03*
G01X8988Y29907D03*
G01X9381Y27191D03*
G01X5366Y35380D03*
G01X5326Y31325D03*
G01X877Y37466D03*
G01X3594Y37427D03*
M00*
M02*
