G04 Layer: BottomPasteMaskLayer*
G04 EasyEDA v6.3.22, 2020-01-19T16:38:24+00:00*
G04 a2d37a9207c24dc198fa5f1151cfaccd,4b468aaabfa54ef3be77053c06c4e1f4,10*
G04 Gerber Generator version 0.2*
G04 Scale: 100 percent, Rotated: No, Reflected: No *
G04 Dimensions in inches *
G04 leading zeros omitted , absolute positions ,2 integer and 4 decimal *
%FSLAX24Y24*%
%MOIN*%
G90*
G70D02*


%LPD*%
G36*
G01X6018Y38690D02*
G01X5427Y38690D01*
G01X5427Y38297D01*
G01X6018Y38297D01*
G01X6018Y38690D01*
G37*
G36*
G01X9010Y38690D02*
G01X8420Y38690D01*
G01X8420Y38297D01*
G01X9010Y38297D01*
G01X9010Y38690D01*
G37*
G36*
G01X4512Y33273D02*
G01X4512Y33730D01*
G01X3941Y33730D01*
G01X3941Y33273D01*
G01X4512Y33273D01*
G37*
G36*
G01X4512Y34124D02*
G01X4512Y34580D01*
G01X3941Y34580D01*
G01X3941Y34124D01*
G01X4512Y34124D01*
G37*
G36*
G01X1756Y33982D02*
G01X1756Y34439D01*
G01X1185Y34439D01*
G01X1185Y33982D01*
G01X1756Y33982D01*
G37*
G36*
G01X1756Y34832D02*
G01X1756Y35289D01*
G01X1185Y35289D01*
G01X1185Y34832D01*
G01X1756Y34832D01*
G37*
G36*
G01X2937Y33785D02*
G01X2937Y34242D01*
G01X2366Y34242D01*
G01X2366Y33785D01*
G01X2937Y33785D01*
G37*
G36*
G01X2937Y34635D02*
G01X2937Y35092D01*
G01X2366Y35092D01*
G01X2366Y34635D01*
G01X2937Y34635D01*
G37*
G36*
G01X7130Y35092D02*
G01X7130Y34635D01*
G01X7701Y34635D01*
G01X7701Y35092D01*
G01X7130Y35092D01*
G37*
G36*
G01X7130Y34242D02*
G01X7130Y33785D01*
G01X7701Y33785D01*
G01X7701Y34242D01*
G01X7130Y34242D01*
G37*
G36*
G01X8311Y35289D02*
G01X8311Y34832D01*
G01X8882Y34832D01*
G01X8882Y35289D01*
G01X8311Y35289D01*
G37*
G36*
G01X8311Y34439D02*
G01X8311Y33982D01*
G01X8882Y33982D01*
G01X8882Y34439D01*
G01X8311Y34439D01*
G37*
G36*
G01X5614Y33785D02*
G01X5614Y34242D01*
G01X5044Y34242D01*
G01X5044Y33785D01*
G01X5614Y33785D01*
G37*
G36*
G01X5614Y34635D02*
G01X5614Y35092D01*
G01X5044Y35092D01*
G01X5044Y34635D01*
G01X5614Y34635D01*
G37*
G36*
G01X1170Y38042D02*
G01X1170Y38498D01*
G01X591Y38498D01*
G01X591Y38042D01*
G01X1170Y38042D01*
G37*
G36*
G01X1170Y37242D02*
G01X1170Y37698D01*
G01X591Y37698D01*
G01X591Y37242D01*
G01X1170Y37242D01*
G37*
G36*
G01X6642Y33816D02*
G01X6642Y34273D01*
G01X6063Y34273D01*
G01X6063Y33816D01*
G01X6642Y33816D01*
G37*
G36*
G01X6642Y34616D02*
G01X6642Y35073D01*
G01X6063Y35073D01*
G01X6063Y34616D01*
G01X6642Y34616D01*
G37*
M00*
M02*
