G04 Layer: TopLayer*
G04 EasyEDA v6.3.22, 2020-01-19T16:38:24+00:00*
G04 a2d37a9207c24dc198fa5f1151cfaccd,4b468aaabfa54ef3be77053c06c4e1f4,10*
G04 Gerber Generator version 0.2*
G04 Scale: 100 percent, Rotated: No, Reflected: No *
G04 Dimensions in inches *
G04 leading zeros omitted , absolute positions ,2 integer and 4 decimal *
%FSLAX24Y24*%
%MOIN*%
G90*
G70D02*

%ADD11C,0.019685*%
%ADD12C,0.024000*%
%ADD13R,0.059055X0.039370*%
%ADD14R,0.027559X0.062992*%
%ADD15R,0.013780X0.078740*%
%ADD16R,0.057870X0.045670*%
%ADD17R,0.070866X0.059055*%
%ADD18C,0.039370*%
%ADD20C,0.053100*%
%ADD21R,0.059000X0.059000*%
%ADD22C,0.059000*%
%ADD23C,0.060000*%

%LPD*%
G36*
G01X4592Y26913D02*
G01X4586Y26914D01*
G01X4579Y26913D01*
G01X4573Y26911D01*
G01X4566Y26908D01*
G01X3936Y26538D01*
G01X3931Y26534D01*
G01X3927Y26530D01*
G01X3923Y26525D01*
G01X3920Y26520D01*
G01X3918Y26515D01*
G01X3916Y26503D01*
G01X3917Y26497D01*
G01X3918Y26492D01*
G01X4027Y26128D01*
G01X3830Y26128D01*
G01X3686Y26176D01*
G01X3677Y26178D01*
G01X3669Y26182D01*
G01X3594Y26207D01*
G01X3476Y26285D01*
G01X3443Y26307D01*
G01X3438Y26310D01*
G01X3432Y26312D01*
G01X3427Y26314D01*
G01X3415Y26314D01*
G01X3409Y26312D01*
G01X3399Y26308D01*
G01X3394Y26304D01*
G01X3390Y26300D01*
G01X3387Y26296D01*
G01X3384Y26291D01*
G01X3382Y26285D01*
G01X3381Y26280D01*
G01X3381Y26178D01*
G01X3208Y26178D01*
G01X3216Y26195D01*
G01X3225Y26211D01*
G01X3236Y26227D01*
G01X3246Y26242D01*
G01X3270Y26270D01*
G01X3284Y26284D01*
G01X3297Y26296D01*
G01X3332Y26324D01*
G01X3336Y26328D01*
G01X3342Y26340D01*
G01X3344Y26352D01*
G01X3343Y26359D01*
G01X3339Y26371D01*
G01X3335Y26377D01*
G01X3331Y26381D01*
G01X3326Y26385D01*
G01X3265Y26426D01*
G01X3260Y26429D01*
G01X3255Y26431D01*
G01X3249Y26432D01*
G01X3237Y26432D01*
G01X3232Y26431D01*
G01X3226Y26429D01*
G01X3221Y26426D01*
G01X3216Y26422D01*
G01X2872Y26112D01*
G01X2867Y26107D01*
G01X2864Y26102D01*
G01X2861Y26095D01*
G01X2859Y26089D01*
G01X2859Y26076D01*
G01X2860Y26070D01*
G01X2866Y26060D01*
G01X3274Y25466D01*
G01X3277Y25462D01*
G01X3282Y25457D01*
G01X3287Y25454D01*
G01X3624Y25267D01*
G01X3630Y25264D01*
G01X3637Y25262D01*
G01X3988Y25262D01*
G01X4991Y24721D01*
G01X4997Y24719D01*
G01X5004Y24717D01*
G01X5017Y24717D01*
G01X5024Y24719D01*
G01X5031Y24722D01*
G01X6054Y25329D01*
G01X6059Y25332D01*
G01X6063Y25336D01*
G01X6067Y25341D01*
G01X6070Y25346D01*
G01X6072Y25351D01*
G01X6074Y25363D01*
G01X6074Y25364D01*
G01X6036Y26685D01*
G01X6034Y26697D01*
G01X6031Y26703D01*
G01X6028Y26708D01*
G01X6023Y26712D01*
G01X6019Y26716D01*
G01X6007Y26722D01*
G01X6001Y26723D01*
G01X4592Y26913D01*
G37*

%LPC*%
G36*
G01X5556Y26386D02*
G01X5538Y26387D01*
G01X5504Y26385D01*
G01X5486Y26383D01*
G01X5452Y26377D01*
G01X5435Y26372D01*
G01X5419Y26367D01*
G01X5402Y26361D01*
G01X5386Y26354D01*
G01X5370Y26346D01*
G01X5355Y26338D01*
G01X5340Y26329D01*
G01X5326Y26319D01*
G01X5298Y26297D01*
G01X5286Y26286D01*
G01X5273Y26273D01*
G01X5261Y26260D01*
G01X5250Y26247D01*
G01X5230Y26219D01*
G01X5221Y26204D01*
G01X5213Y26188D01*
G01X5205Y26173D01*
G01X5198Y26157D01*
G01X5192Y26140D01*
G01X5187Y26124D01*
G01X5182Y26107D01*
G01X5176Y26073D01*
G01X5174Y26055D01*
G01X5172Y26038D01*
G01X5172Y26003D01*
G01X5174Y25986D01*
G01X5176Y25968D01*
G01X5182Y25934D01*
G01X5187Y25917D01*
G01X5192Y25901D01*
G01X5198Y25884D01*
G01X5205Y25868D01*
G01X5213Y25852D01*
G01X5221Y25837D01*
G01X5230Y25822D01*
G01X5250Y25794D01*
G01X5261Y25780D01*
G01X5273Y25767D01*
G01X5286Y25755D01*
G01X5298Y25743D01*
G01X5312Y25732D01*
G01X5340Y25712D01*
G01X5355Y25703D01*
G01X5370Y25695D01*
G01X5386Y25687D01*
G01X5402Y25680D01*
G01X5419Y25674D01*
G01X5435Y25669D01*
G01X5452Y25664D01*
G01X5486Y25658D01*
G01X5504Y25656D01*
G01X5521Y25654D01*
G01X5556Y25654D01*
G01X5573Y25656D01*
G01X5591Y25658D01*
G01X5625Y25664D01*
G01X5642Y25669D01*
G01X5658Y25674D01*
G01X5675Y25680D01*
G01X5691Y25687D01*
G01X5706Y25695D01*
G01X5722Y25703D01*
G01X5737Y25712D01*
G01X5765Y25732D01*
G01X5778Y25743D01*
G01X5804Y25767D01*
G01X5815Y25780D01*
G01X5827Y25794D01*
G01X5847Y25822D01*
G01X5856Y25837D01*
G01X5864Y25852D01*
G01X5872Y25868D01*
G01X5879Y25884D01*
G01X5885Y25901D01*
G01X5890Y25917D01*
G01X5895Y25934D01*
G01X5901Y25968D01*
G01X5903Y25986D01*
G01X5905Y26003D01*
G01X5905Y26038D01*
G01X5903Y26055D01*
G01X5901Y26073D01*
G01X5895Y26107D01*
G01X5890Y26124D01*
G01X5885Y26140D01*
G01X5879Y26157D01*
G01X5872Y26173D01*
G01X5864Y26188D01*
G01X5856Y26204D01*
G01X5847Y26219D01*
G01X5827Y26247D01*
G01X5815Y26260D01*
G01X5804Y26273D01*
G01X5791Y26286D01*
G01X5765Y26308D01*
G01X5751Y26319D01*
G01X5737Y26329D01*
G01X5722Y26338D01*
G01X5706Y26346D01*
G01X5691Y26354D01*
G01X5675Y26361D01*
G01X5658Y26367D01*
G01X5642Y26372D01*
G01X5625Y26377D01*
G01X5591Y26383D01*
G01X5573Y26385D01*
G01X5556Y26386D01*
G37*
G36*
G01X4556Y26386D02*
G01X4538Y26387D01*
G01X4504Y26385D01*
G01X4486Y26383D01*
G01X4452Y26377D01*
G01X4435Y26372D01*
G01X4419Y26367D01*
G01X4402Y26361D01*
G01X4386Y26354D01*
G01X4370Y26346D01*
G01X4355Y26338D01*
G01X4340Y26329D01*
G01X4326Y26319D01*
G01X4298Y26297D01*
G01X4286Y26286D01*
G01X4273Y26273D01*
G01X4261Y26260D01*
G01X4250Y26247D01*
G01X4230Y26219D01*
G01X4221Y26204D01*
G01X4213Y26188D01*
G01X4205Y26173D01*
G01X4198Y26157D01*
G01X4192Y26140D01*
G01X4187Y26124D01*
G01X4182Y26107D01*
G01X4176Y26073D01*
G01X4174Y26055D01*
G01X4172Y26038D01*
G01X4172Y26003D01*
G01X4174Y25986D01*
G01X4176Y25968D01*
G01X4182Y25934D01*
G01X4187Y25917D01*
G01X4192Y25901D01*
G01X4198Y25884D01*
G01X4205Y25868D01*
G01X4213Y25852D01*
G01X4221Y25837D01*
G01X4230Y25822D01*
G01X4250Y25794D01*
G01X4261Y25780D01*
G01X4273Y25767D01*
G01X4286Y25755D01*
G01X4298Y25743D01*
G01X4312Y25732D01*
G01X4340Y25712D01*
G01X4355Y25703D01*
G01X4370Y25695D01*
G01X4386Y25687D01*
G01X4402Y25680D01*
G01X4419Y25674D01*
G01X4435Y25669D01*
G01X4452Y25664D01*
G01X4486Y25658D01*
G01X4504Y25656D01*
G01X4521Y25654D01*
G01X4556Y25654D01*
G01X4573Y25656D01*
G01X4591Y25658D01*
G01X4625Y25664D01*
G01X4642Y25669D01*
G01X4658Y25674D01*
G01X4675Y25680D01*
G01X4691Y25687D01*
G01X4706Y25695D01*
G01X4722Y25703D01*
G01X4737Y25712D01*
G01X4765Y25732D01*
G01X4778Y25743D01*
G01X4804Y25767D01*
G01X4815Y25780D01*
G01X4827Y25794D01*
G01X4847Y25822D01*
G01X4856Y25837D01*
G01X4864Y25852D01*
G01X4872Y25868D01*
G01X4879Y25884D01*
G01X4885Y25901D01*
G01X4890Y25917D01*
G01X4895Y25934D01*
G01X4901Y25968D01*
G01X4903Y25986D01*
G01X4905Y26003D01*
G01X4905Y26038D01*
G01X4903Y26055D01*
G01X4901Y26073D01*
G01X4895Y26107D01*
G01X4890Y26124D01*
G01X4885Y26140D01*
G01X4879Y26157D01*
G01X4872Y26173D01*
G01X4864Y26188D01*
G01X4856Y26204D01*
G01X4847Y26219D01*
G01X4827Y26247D01*
G01X4815Y26260D01*
G01X4804Y26273D01*
G01X4791Y26286D01*
G01X4765Y26308D01*
G01X4751Y26319D01*
G01X4737Y26329D01*
G01X4722Y26338D01*
G01X4706Y26346D01*
G01X4691Y26354D01*
G01X4675Y26361D01*
G01X4658Y26367D01*
G01X4642Y26372D01*
G01X4625Y26377D01*
G01X4591Y26383D01*
G01X4573Y26385D01*
G01X4556Y26386D01*
G37*
G36*
G01X3869Y25863D02*
G01X3696Y25863D01*
G01X3696Y25690D01*
G01X3728Y25706D01*
G01X3743Y25716D01*
G01X3757Y25726D01*
G01X3771Y25737D01*
G01X3785Y25749D01*
G01X3798Y25761D01*
G01X3810Y25774D01*
G01X3822Y25788D01*
G01X3833Y25802D01*
G01X3843Y25816D01*
G01X3852Y25831D01*
G01X3861Y25847D01*
G01X3869Y25863D01*
G37*
G36*
G01X3381Y25863D02*
G01X3208Y25863D01*
G01X3216Y25847D01*
G01X3225Y25831D01*
G01X3234Y25816D01*
G01X3244Y25802D01*
G01X3255Y25788D01*
G01X3267Y25774D01*
G01X3279Y25761D01*
G01X3292Y25749D01*
G01X3306Y25737D01*
G01X3320Y25726D01*
G01X3334Y25716D01*
G01X3349Y25706D01*
G01X3381Y25690D01*
G01X3381Y25863D01*
G37*

%LPD*%
G54D11*
G01X3261Y36054D02*
G01X3008Y36054D01*
G01X1980Y35025D01*
G01X3536Y36054D02*
G01X3536Y35519D01*
G01X3397Y35380D01*
G01X2846Y35380D01*
G01X1980Y34514D01*
G01X880Y38270D02*
G01X579Y38270D01*
G01X287Y37978D01*
G01X287Y37033D01*
G01X366Y36955D01*
G01X720Y36955D01*
G01X1035Y36640D01*
G01X1035Y33947D01*
G01X539Y33451D01*
G01X3812Y36054D02*
G01X3812Y35401D01*
G01X3279Y34868D01*
G01X3122Y34868D01*
G01X4088Y36054D02*
G01X4088Y35205D01*
G01X3122Y34238D01*
G01X2885Y34002D01*
G01X2649Y34002D01*
G01X4363Y36053D02*
G01X4363Y34496D01*
G01X4224Y34356D01*
G01X4915Y36054D02*
G01X4915Y35638D01*
G01X4657Y35380D01*
G01X4657Y33726D01*
G01X4421Y33490D01*
G01X4915Y36054D02*
G01X4915Y35280D01*
G01X5326Y34868D01*
G01X5803Y30659D02*
G01X6017Y30872D01*
G01X6017Y36054D01*
G01X4303Y30659D02*
G01X4303Y31168D01*
G01X5741Y32606D01*
G01X5741Y36054D01*
G01X6844Y36054D02*
G01X7133Y36054D01*
G01X8122Y35065D01*
G01X6568Y36053D02*
G01X6568Y35634D01*
G01X7059Y35144D01*
G01X7334Y34868D01*
G01X7413Y34868D01*
G01X6292Y36054D02*
G01X6292Y34926D01*
G01X6389Y34829D01*
G01X4363Y36053D02*
G01X4363Y36779D01*
G01X4460Y36876D01*
G01X4814Y36876D01*
G01X4915Y36776D01*
G01X4915Y36054D01*
G01X3151Y38622D02*
G01X3151Y38755D01*
G01X3633Y39238D01*
G01X4978Y39238D01*
G01X5723Y38494D01*
G01X8715Y38494D02*
G01X6708Y38494D01*
G01X6271Y38057D01*
G01X1093Y38057D01*
G01X880Y38270D01*
G01X6114Y37742D02*
G01X1586Y37742D01*
G01X5741Y36054D02*
G01X5741Y36976D01*
G01X6153Y37388D01*
G01X7531Y37388D01*
G01X8909Y36010D01*
G01X8909Y35081D01*
G01X9539Y34451D01*
G01X9539Y33451D02*
G01X8555Y34435D01*
G01X8555Y35852D01*
G01X7373Y37033D01*
G01X6271Y37033D01*
G01X6017Y36779D01*
G01X6017Y36054D01*
G01X5190Y36053D02*
G01X5190Y36973D01*
G01X5090Y37073D01*
G01X5303Y30659D02*
G01X5326Y30636D01*
G01X5326Y28648D01*
G01X2652Y31380D02*
G01X3145Y31380D01*
G01X3358Y31167D01*
G01X3358Y30459D01*
G01X3791Y30025D01*
G01X4618Y30025D01*
G01X4803Y30211D01*
G01X4803Y30659D01*
G01X2652Y30580D02*
G01X1438Y29367D01*
G01X1438Y28391D01*
G01X539Y29451D02*
G01X2468Y31380D01*
G01X2652Y31380D01*
G01X3791Y30025D02*
G01X3791Y29553D01*
G01X4421Y33490D02*
G01X2652Y31721D01*
G01X2652Y31380D01*
G01X9539Y32451D02*
G01X8468Y31380D01*
G01X7455Y31380D01*
G01X7061Y29648D02*
G01X7736Y29648D01*
G01X9539Y31451D01*
G01X8188Y28391D02*
G01X6725Y28391D01*
G01X6547Y28569D01*
G01X6547Y30301D01*
G01X6826Y30580D01*
G01X7455Y30580D01*
G01X7061Y28848D02*
G01X7373Y29159D01*
G01X8620Y29159D01*
G01X9388Y28391D01*
G01X9539Y30451D02*
G01X8995Y29907D01*
G01X8988Y29907D01*
G01X9381Y27191D02*
G01X9388Y27209D01*
G01X9388Y27210D02*
G01X8188Y27210D01*
G01X5190Y36053D02*
G01X5190Y35556D01*
G01X5366Y35380D01*
G01X5326Y31324D02*
G01X5326Y30681D01*
G01X5303Y30659D01*
G01X5466Y36053D02*
G01X5466Y37130D01*
G01X5208Y37388D01*
G01X4539Y37388D01*
G01X3791Y36640D01*
G01X2137Y36640D01*
G01X1665Y36167D01*
G01X1665Y32821D01*
G01X1295Y32451D01*
G01X539Y32451D01*
G01X880Y37470D02*
G01X923Y37427D01*
G01X3594Y37427D01*
G54D13*
G01X5723Y38494D03*
G01X8715Y38494D03*
G54D14*
G01X5803Y30659D03*
G01X5303Y30659D03*
G01X4803Y30659D03*
G01X4303Y30659D03*
G54D15*
G01X4915Y36054D03*
G01X5190Y36053D03*
G01X5466Y36053D03*
G01X4639Y36054D03*
G01X4363Y36053D03*
G01X5741Y36054D03*
G01X6017Y36054D03*
G01X4088Y36054D03*
G01X6292Y36054D03*
G01X3812Y36054D03*
G01X3536Y36054D03*
G01X6568Y36053D03*
G01X3261Y36054D03*
G01X6844Y36054D03*
G54D16*
G01X2652Y30580D03*
G01X2652Y31380D03*
G01X7455Y30580D03*
G01X7455Y31380D03*
G01X7061Y28848D03*
G01X7061Y29648D03*
G01X880Y37470D03*
G01X880Y38270D03*
G54D17*
G01X8188Y28391D03*
G01X8188Y27210D03*
G01X9388Y28391D03*
G01X9388Y27210D03*
G01X1438Y28391D03*
G01X1438Y27210D03*
G54D18*
G01X3937Y40435D03*
G01X27559Y40435D03*
G01X5905Y4184D03*
G01X25591Y4184D03*

%LPD*%
G36*
G01X3589Y25000D02*
G01X3289Y25250D01*
G01X3139Y24950D01*
G01X3039Y24400D01*
G01X2989Y24100D01*
G01X3189Y23850D01*
G01X3089Y23750D01*
G01X2989Y23500D01*
G01X3089Y23200D01*
G01X3239Y23150D01*
G01X3339Y23150D01*
G01X3539Y23100D01*
G01X3639Y23000D01*
G01X3789Y23000D01*
G01X3939Y23150D01*
G01X3989Y23500D01*
G01X3939Y24250D01*
G01X3589Y25000D01*
G37*

%LPD*%
G36*
G01X1389Y26100D02*
G01X1139Y26250D01*
G01X1089Y25950D01*
G01X1039Y25500D01*
G01X1089Y25150D01*
G01X1239Y25000D01*
G01X1339Y25000D01*
G01X1539Y25150D01*
G01X1639Y25150D01*
G01X1689Y25300D01*
G01X1839Y25250D01*
G01X1839Y24850D01*
G01X1889Y24450D01*
G01X1989Y24250D01*
G01X2189Y24150D01*
G01X2139Y23900D01*
G01X2239Y23700D01*
G01X2539Y23700D01*
G01X2739Y23750D01*
G01X2839Y24000D01*
G01X2789Y24400D01*
G01X2739Y24450D01*
G01X2939Y24650D01*
G01X2789Y24950D01*
G01X2589Y25100D01*
G01X2389Y25500D01*
G01X2189Y25750D01*
G01X1989Y25850D01*
G01X1889Y25700D01*
G01X1689Y25900D01*
G01X1389Y26100D01*
G37*

%LPD*%
G36*
G01X2639Y27750D02*
G01X2539Y27750D01*
G01X2389Y27350D01*
G01X2139Y26850D01*
G01X1839Y27200D01*
G01X1789Y27250D01*
G01X1589Y27050D01*
G01X1489Y26550D01*
G01X1589Y26250D01*
G01X1739Y26200D01*
G01X1889Y26350D01*
G01X1939Y26450D01*
G01X2139Y26400D01*
G01X2739Y26400D01*
G01X2989Y26250D01*
G01X3089Y26550D01*
G01X2989Y27200D01*
G01X2639Y27750D01*
G37*

%LPD*%
G36*
G01X3039Y26250D02*
G01X2939Y26300D01*
G01X2639Y25900D01*
G01X2489Y25650D01*
G01X2439Y25250D01*
G01X2589Y25050D01*
G01X2839Y25050D01*
G01X2939Y25100D01*
G01X3139Y24850D01*
G01X3239Y25100D01*
G01X3339Y25250D01*
G01X3589Y24950D01*
G01X3589Y25050D01*
G01X3639Y25100D01*
G01X3689Y25300D01*
G01X3239Y25750D01*
G01X3039Y26250D01*
G37*

%LPD*%
G36*
G01X3389Y26350D02*
G01X3239Y26700D01*
G01X2939Y26350D01*
G01X3039Y26050D01*
G01X3239Y26300D01*
G01X3389Y26350D01*
G37*

%LPD*%
G36*
G01X4239Y25200D02*
G01X4189Y25500D01*
G01X3739Y25350D01*
G01X3789Y25250D01*
G01X3939Y25200D01*
G01X3739Y25050D01*
G01X3739Y24900D01*
G01X3989Y24800D01*
G01X4239Y25200D01*
G37*

%LPD*%
G36*
G01X5289Y25350D02*
G01X3889Y25500D01*
G01X3939Y25200D01*
G01X3789Y24400D01*
G01X4089Y23700D01*
G01X4939Y23700D01*
G01X5339Y24550D01*
G01X5289Y25350D01*
G37*

%LPD*%
G36*
G01X7139Y24200D02*
G01X6739Y24750D01*
G01X6639Y24200D01*
G01X6589Y23900D01*
G01X7139Y23300D01*
G01X7439Y23250D01*
G01X7539Y23400D01*
G01X7589Y23700D01*
G01X7439Y24000D01*
G01X7139Y24200D01*
G37*

%LPD*%
G36*
G01X7089Y24650D02*
G01X7139Y25600D01*
G01X6689Y25550D01*
G01X5639Y25550D01*
G01X5839Y25250D01*
G01X7089Y24650D01*
G37*

%LPD*%
G36*
G01X7360Y23272D02*
G01X6639Y24400D01*
G01X6639Y23300D01*
G01X6689Y23050D01*
G01X6939Y22900D01*
G01X7089Y22900D01*
G01X7189Y22950D01*
G01X7239Y23150D01*
G01X7360Y23272D01*
G37*
G36*
G01X7389Y23300D02*
G01X7389Y23350D01*
G01X7360Y23272D01*
G01X7389Y23300D01*
G37*

%LPD*%
G36*
G01X9589Y25700D02*
G01X9339Y25700D01*
G01X9389Y25550D01*
G01X9589Y25600D01*
G01X9589Y25700D01*
G37*

%LPD*%
G36*
G01X9639Y25050D02*
G01X9589Y25700D01*
G01X9289Y25600D01*
G01X8939Y25400D01*
G01X8689Y25150D01*
G01X8639Y24850D01*
G01X8789Y24700D01*
G01X8939Y24400D01*
G01X9239Y24250D01*
G01X9489Y24400D01*
G01X9639Y25050D01*
G37*

%LPD*%
G36*
G01X8139Y25650D02*
G01X7739Y25650D01*
G01X7739Y24700D01*
G01X7639Y24250D01*
G01X7839Y24000D01*
G01X7989Y24000D01*
G01X8139Y24150D01*
G01X8339Y23950D01*
G01X8539Y23950D01*
G01X8639Y24100D01*
G01X8689Y24350D01*
G01X8589Y24650D01*
G01X8389Y25050D01*
G01X8289Y25300D01*
G01X8489Y25300D01*
G01X8589Y25500D01*
G01X8139Y25650D01*
G37*

%LPD*%
G36*
G01X7389Y25300D02*
G01X6939Y25600D01*
G01X6639Y25350D01*
G01X6789Y24600D01*
G01X7289Y24600D01*
G01X7389Y25300D01*
G37*

%LPD*%
G36*
G01X8339Y25550D02*
G01X7289Y26450D01*
G01X7239Y26250D01*
G01X6989Y25650D01*
G01X7189Y24550D01*
G01X7539Y24650D01*
G01X7789Y24750D01*
G01X7989Y25350D01*
G01X8339Y25550D01*
G37*

%LPD*%
G36*
G01X8339Y26700D02*
G01X7689Y26800D01*
G01X7689Y26300D01*
G01X7639Y26100D01*
G01X7989Y25550D01*
G01X8089Y25600D01*
G01X8189Y25450D01*
G01X8539Y25300D01*
G01X8689Y25350D01*
G01X8739Y25550D01*
G01X8639Y26000D01*
G01X8339Y26700D01*
G37*

%LPD*%
G36*
G01X9289Y26700D02*
G01X9189Y27050D01*
G01X8889Y26750D01*
G01X8739Y26450D01*
G01X8739Y26200D01*
G01X8789Y26050D01*
G01X8989Y26000D01*
G01X9189Y25900D01*
G01X9339Y25900D01*
G01X9389Y26250D01*
G01X9289Y26700D01*
G37*

%LPD*%
G36*
G01X7689Y27450D02*
G01X7389Y27700D01*
G01X7289Y27300D01*
G01X7339Y27000D01*
G01X7439Y26850D01*
G01X7539Y26850D01*
G01X7739Y26500D01*
G01X7839Y26650D01*
G01X8339Y26650D01*
G01X8289Y26850D01*
G01X7689Y27450D01*
G37*

%LPD*%
G36*
G01X3439Y27850D02*
G01X3289Y28250D01*
G01X3089Y28200D01*
G01X2889Y27950D01*
G01X2939Y27750D01*
G01X3239Y27550D01*
G01X3389Y27550D01*
G01X3439Y27850D01*
G37*

%LPD*%
G36*
G01X5239Y28900D02*
G01X4089Y29100D01*
G01X4039Y28650D01*
G01X4289Y27200D01*
G01X4542Y26604D01*
G01X4857Y26683D01*
G01X5368Y26643D01*
G01X5689Y27000D01*
G01X6289Y27850D01*
G01X6289Y28850D01*
G01X5239Y28900D01*
G37*
G36*
G01X6804Y26286D02*
G01X6273Y26286D01*
G01X6273Y25755D01*
G01X6804Y25755D01*
G01X6804Y26286D01*
G37*
G54D20*
G01X5538Y26020D03*
G01X4538Y26020D03*
G01X3538Y26020D03*
G54D21*
G01X2151Y38622D03*
G54D22*
G01X3151Y38622D03*
G01X4151Y38622D03*
G54D23*
G01X539Y29451D03*
G01X539Y30451D03*
G01X539Y31451D03*
G01X539Y32451D03*
G01X539Y33451D03*
G01X539Y34451D03*
G01X539Y35451D03*
G01X539Y36451D03*
G01X9539Y29451D03*
G01X9539Y30451D03*
G01X9539Y31451D03*
G01X9539Y32451D03*
G01X9539Y33451D03*
G01X9539Y34451D03*
G01X9539Y35451D03*
G01X9539Y36451D03*
G54D12*
G01X1980Y35026D03*
G01X1980Y34514D03*
G01X3121Y34868D03*
G01X2649Y34002D03*
G01X4224Y34356D03*
G01X4421Y33490D03*
G01X5326Y34868D03*
G01X8121Y35065D03*
G01X7413Y34868D03*
G01X6389Y34829D03*
G01X4657Y36876D03*
G01X6114Y37742D03*
G01X1586Y37742D03*
G01X5090Y37073D03*
G01X3791Y29553D03*
G01X8988Y29907D03*
G01X9381Y27191D03*
G01X5366Y35380D03*
G01X5326Y31325D03*
G01X877Y37466D03*
G01X3594Y37427D03*
M00*
M02*
